<svg id="Layer_1" data-name="Layer 1" xmlns="http://www.w3.org/2000/svg" viewBox="0 0 778.96 571.78">
  <defs>
    <style>
      .cls-1, .cls-2 {
        fill: #fff;
      }

      .cls-1 {
        stroke: #fff;
        stroke-miterlimit: 10;
      }
    </style>
  </defs>
  <title>Drop_File</title>
  <g id="_Group_" data-name="&lt;Group&gt;">
    <path id="_Compound_Path_" data-name="&lt;Compound Path&gt;" class="cls-1" d="M682.74,87h-80V67.2h80Zm-80,59.77H742.51V127H602.76Zm0,40H742.51V167H602.76Zm0,40H742.51V207H602.76Zm200-149.64V266.72a19.73,19.73,0,0,1-19.78,19.78H583a19.73,19.73,0,0,1-19.78-19.78V26.78A19.73,19.73,0,0,1,583,7H732.62ZM782.5,87l-59.77-60.2H583V266.29H782.5Z" transform="translate(-293.52 -6.5)"/>
  </g>
  <g>
    <path class="cls-2" d="M415.88,404.53V350.07h13.71q13.57,0,20.65,6.75t7.08,19.72a30.47,30.47,0,0,1-3.46,14.73,23.63,23.63,0,0,1-9.93,9.83,31.91,31.91,0,0,1-15.15,3.43Zm3.9-50.87V401h8.51q12.06,0,18.53-6.31t6.47-18q0-23-24.26-23Z" transform="translate(-293.52 -6.5)"/>
    <path class="cls-2" d="M486.09,369.44a6.91,6.91,0,0,0-4.15-1.27q-4.82,0-7.77,4.92t-3,13.08v18.35h-3.59V365.64h3.59v8.58h.14a14.16,14.16,0,0,1,4.18-6.86,9.9,9.9,0,0,1,6.68-2.5,10.15,10.15,0,0,1,3.87.7Z" transform="translate(-293.52 -6.5)"/>
    <path class="cls-2" d="M508,405.48a18.49,18.49,0,0,1-9.7-2.53,16.78,16.78,0,0,1-6.49-7.1,23.35,23.35,0,0,1-2.27-10.51,24.58,24.58,0,0,1,2.3-11,16.46,16.46,0,0,1,6.61-7.19,19.58,19.58,0,0,1,10-2.5q8.33,0,13.15,5.47t4.82,15a24,24,0,0,1-2.27,10.63A16.63,16.63,0,0,1,517.7,403,18.48,18.48,0,0,1,508,405.48Zm.28-37.48q-7,0-11,4.73t-4,12.67q0,7.63,4,12.2t10.79,4.57q7,0,10.76-4.5t3.8-12.59q0-8.3-3.73-12.69T508.27,368Z" transform="translate(-293.52 -6.5)"/>
    <path class="cls-2" d="M539.74,397.71v24.71h-3.66V365.64h3.66v7.95h.14a15.58,15.58,0,0,1,5.87-6.56,16.09,16.09,0,0,1,8.61-2.34q7.35,0,11.55,5.12t4.2,13.87A28.28,28.28,0,0,1,567.93,395a17.49,17.49,0,0,1-6.15,7.73,15.73,15.73,0,0,1-9.07,2.71q-8.68,0-12.83-7.77Zm0-9.63a15.33,15.33,0,0,0,1.69,7.14,12.58,12.58,0,0,0,4.75,5.12,12.94,12.94,0,0,0,6.82,1.85,11.16,11.16,0,0,0,6.93-2.32,14.78,14.78,0,0,0,4.73-6.57,25.89,25.89,0,0,0,1.67-9.53q0-7.21-3.39-11.48a11,11,0,0,0-9.05-4.27,14,14,0,0,0-7.42,2,13.14,13.14,0,0,0-5,5.45,17,17,0,0,0-1.76,7.75Z" transform="translate(-293.52 -6.5)"/>
    <path class="cls-2" d="M624.25,404.53v-7.7h-.14a15.53,15.53,0,0,1-5.48,6.35,13.83,13.83,0,0,1-7.73,2.3,12.33,12.33,0,0,1-8.75-3.08,10.3,10.3,0,0,1-3.3-7.89q0-10.34,13.46-12.34l12-1.79q0-12.37-9.35-12.37-6.43,0-12.52,5.13v-4.32a19.08,19.08,0,0,1,6-3,22.8,22.8,0,0,1,6.91-1.11q6.12,0,9.39,3.71t3.27,10.85v25.28ZM602.67,394.3A7.39,7.39,0,0,0,605,400a8.94,8.94,0,0,0,6.29,2.16,12.07,12.07,0,0,0,6.59-1.88,12.85,12.85,0,0,0,4.66-5.27,16.7,16.7,0,0,0,1.69-7.54v-3.8l-10.62,1.51q-6,.84-8.49,3A7.63,7.63,0,0,0,602.67,394.3Z" transform="translate(-293.52 -6.5)"/>
    <path class="cls-2" d="M665.56,353.66v22h20.07v3.55H665.56v25.28h-3.9V350.07h25.56v3.59Z" transform="translate(-293.52 -6.5)"/>
    <path class="cls-2" d="M698.89,355.84a2.91,2.91,0,0,1-2.06-.84,2.86,2.86,0,0,1-.9-2.18,2.67,2.67,0,0,1,.88-2,2.93,2.93,0,0,1,2.07-.83,3.11,3.11,0,0,1,2.09.77,2.6,2.6,0,0,1,.9,2.07A2.92,2.92,0,0,1,701,355,2.88,2.88,0,0,1,698.89,355.84Zm-1.79,48.69V365.64h3.66v38.88Z" transform="translate(-293.52 -6.5)"/>
    <path class="cls-2" d="M713.2,404.53V347h3.66v57.55Z" transform="translate(-293.52 -6.5)"/>
    <path class="cls-2" d="M730.29,385.33q0,7.91,3.66,12.38a12.37,12.37,0,0,0,10.13,4.46,20.66,20.66,0,0,0,12.76-4.78v3.83a22.92,22.92,0,0,1-13.5,4.25q-7.8,0-12.32-5.57t-4.52-15a23.47,23.47,0,0,1,2.23-10.21,17.76,17.76,0,0,1,6.22-7.35,15.91,15.91,0,0,1,9-2.65q7.1,0,11.07,5t4,14v1.65Zm25-3.3q-.21-6.64-3.22-10.34a10,10,0,0,0-8.21-3.69,11.94,11.94,0,0,0-9,3.69q-3.53,3.69-4.34,10.34Z" transform="translate(-293.52 -6.5)"/>
    <path class="cls-2" d="M825.66,404.53V378.48h-31v26.05h-3.9V350.07h3.9V375h31V350.07h3.83v54.46Z" transform="translate(-293.52 -6.5)"/>
    <path class="cls-2" d="M843.7,385.33q0,7.91,3.66,12.38a12.37,12.37,0,0,0,10.13,4.46,20.66,20.66,0,0,0,12.76-4.78v3.83a22.92,22.92,0,0,1-13.5,4.25q-7.8,0-12.32-5.57t-4.52-15a23.47,23.47,0,0,1,2.23-10.21,17.76,17.76,0,0,1,6.22-7.35,15.91,15.91,0,0,1,9-2.65q7.1,0,11.07,5t4,14v1.65Zm25-3.3q-.21-6.64-3.22-10.34a10,10,0,0,0-8.21-3.69,11.94,11.94,0,0,0-9,3.69q-3.53,3.69-4.34,10.34Z" transform="translate(-293.52 -6.5)"/>
    <path class="cls-2" d="M900.51,369.44a6.91,6.91,0,0,0-4.15-1.27q-4.82,0-7.77,4.92t-3,13.08v18.35h-3.59V365.64h3.59v8.58h.14a14.16,14.16,0,0,1,4.18-6.86,9.9,9.9,0,0,1,6.68-2.5,10.15,10.15,0,0,1,3.87.7Z" transform="translate(-293.52 -6.5)"/>
    <path class="cls-2" d="M907.75,385.33q0,7.91,3.66,12.38a12.37,12.37,0,0,0,10.13,4.46,20.66,20.66,0,0,0,12.76-4.78v3.83a22.92,22.92,0,0,1-13.5,4.25q-7.8,0-12.32-5.57t-4.52-15a23.47,23.47,0,0,1,2.23-10.21,17.76,17.76,0,0,1,6.22-7.35,15.91,15.91,0,0,1,9-2.65q7.1,0,11.07,5t4,14v1.65Zm25-3.3q-.21-6.64-3.22-10.34a10,10,0,0,0-8.21-3.69,11.94,11.94,0,0,0-9,3.69q-3.53,3.69-4.34,10.34Z" transform="translate(-293.52 -6.5)"/>
    <path class="cls-2" d="M944.7,414h-3l5.63-18.07h4Z" transform="translate(-293.52 -6.5)"/>
    <path class="cls-2" d="M312,578.28a18.49,18.49,0,0,1-9.7-2.53,16.78,16.78,0,0,1-6.49-7.1,23.35,23.35,0,0,1-2.27-10.51,24.58,24.58,0,0,1,2.3-11,16.46,16.46,0,0,1,6.61-7.19,19.58,19.58,0,0,1,10-2.5q8.33,0,13.15,5.47t4.82,15a24,24,0,0,1-2.27,10.63,16.63,16.63,0,0,1-6.45,7.17A18.48,18.48,0,0,1,312,578.28Zm.28-37.48q-7,0-11,4.73t-4,12.67q0,7.63,4,12.2T312.08,575q7,0,10.76-4.5t3.8-12.59q0-8.3-3.73-12.69T312.26,540.8Z" transform="translate(-293.52 -6.5)"/>
    <path class="cls-2" d="M358.53,542.24a6.91,6.91,0,0,0-4.15-1.27q-4.82,0-7.77,4.92t-3,13.08v18.35h-3.59V538.45h3.59V547h.14a14.15,14.15,0,0,1,4.18-6.86,9.9,9.9,0,0,1,6.68-2.5,10.15,10.15,0,0,1,3.87.7Z" transform="translate(-293.52 -6.5)"/>
    <path class="cls-2" d="M424.13,575.5a34.81,34.81,0,0,1-13.82,2.78,25.4,25.4,0,0,1-13.18-3.41,23.08,23.08,0,0,1-8.93-9.62,30.48,30.48,0,0,1-3.16-14,32.86,32.86,0,0,1,3.41-15.06,25.17,25.17,0,0,1,9.62-10.46,26.74,26.74,0,0,1,14-3.73,35.4,35.4,0,0,1,12,2v4.11a29.24,29.24,0,0,0-12.09-2.6,22.83,22.83,0,0,0-12.09,3.18,21,21,0,0,0-8.07,9A29.57,29.57,0,0,0,389,550.82a28,28,0,0,0,2.69,12.5,19.65,19.65,0,0,0,7.63,8.42,21.53,21.53,0,0,0,11.27,3,30.07,30.07,0,0,0,13.5-3Z" transform="translate(-293.52 -6.5)"/>
    <path class="cls-2" d="M435.45,577.33V519.78h3.66v57.55Z" transform="translate(-293.52 -6.5)"/>
    <path class="cls-2" d="M453.34,528.64a2.91,2.91,0,0,1-2.06-.84,2.86,2.86,0,0,1-.9-2.18,2.67,2.67,0,0,1,.88-2,2.93,2.93,0,0,1,2.07-.83,3.1,3.1,0,0,1,2.09.77,2.6,2.6,0,0,1,.9,2.07,2.92,2.92,0,0,1-.88,2.14A2.88,2.88,0,0,1,453.34,528.64Zm-1.79,48.69V538.45h3.66v38.88Z" transform="translate(-293.52 -6.5)"/>
    <path class="cls-2" d="M492.89,575.61a19.1,19.1,0,0,1-10.3,2.67,17.58,17.58,0,0,1-9.3-2.46,16.27,16.27,0,0,1-6.26-7,23.19,23.19,0,0,1-2.2-10.3,23.46,23.46,0,0,1,2.5-10.9,18.2,18.2,0,0,1,7-7.51,19.36,19.36,0,0,1,10.09-2.65,21.15,21.15,0,0,1,8.68,1.83v4a17.33,17.33,0,0,0-9.18-2.57,14.38,14.38,0,0,0-13.34,8.46,20.88,20.88,0,0,0-1.92,9.09q0,7.52,3.87,12.08A12.8,12.8,0,0,0,482.77,575a16.72,16.72,0,0,0,10.13-3.13Z" transform="translate(-293.52 -6.5)"/>
    <path class="cls-2" d="M524.57,577.33,506,558.17h-.14v19.16h-3.66V519.78h3.66v37.05H506l17.58-18.39h4.71l-18.46,18.84,19.93,20Z" transform="translate(-293.52 -6.5)"/>
    <path class="cls-2" d="M573.86,576.8a11.94,11.94,0,0,1-5.17,1.3q-8.68,0-8.68-10.37v-26h-7v-3.3h7V528.39l3.59-1.23v11.29h10.27v3.3H563.59v25.49q0,4,1.27,5.8t4.36,1.79a9.56,9.56,0,0,0,4.64-1.41Z" transform="translate(-293.52 -6.5)"/>
    <path class="cls-2" d="M596.6,578.28a18.49,18.49,0,0,1-9.7-2.53,16.78,16.78,0,0,1-6.49-7.1,23.35,23.35,0,0,1-2.27-10.51,24.58,24.58,0,0,1,2.3-11,16.46,16.46,0,0,1,6.61-7.19,19.58,19.58,0,0,1,10-2.5q8.33,0,13.15,5.47T615,558a24,24,0,0,1-2.27,10.63,16.63,16.63,0,0,1-6.45,7.17A18.48,18.48,0,0,1,596.6,578.28Zm.28-37.48q-7,0-11,4.73t-4,12.67q0,7.63,4,12.2T596.71,575q7,0,10.76-4.5t3.8-12.59q0-8.3-3.73-12.69T596.88,540.8Z" transform="translate(-293.52 -6.5)"/>
    <path class="cls-2" d="M683,575.5a34.81,34.81,0,0,1-13.82,2.78A25.4,25.4,0,0,1,656,574.87a23.08,23.08,0,0,1-8.93-9.62,30.48,30.48,0,0,1-3.16-14,32.86,32.86,0,0,1,3.41-15.06,25.17,25.17,0,0,1,9.62-10.46A26.74,26.74,0,0,1,671,522a35.4,35.4,0,0,1,12,2v4.11a29.24,29.24,0,0,0-12.09-2.6,22.83,22.83,0,0,0-12.09,3.18,21,21,0,0,0-8.07,9,29.57,29.57,0,0,0-2.83,13.17,28,28,0,0,0,2.69,12.5,19.65,19.65,0,0,0,7.63,8.42,21.53,21.53,0,0,0,11.27,3,30.07,30.07,0,0,0,13.5-3Z" transform="translate(-293.52 -6.5)"/>
    <path class="cls-2" d="M720.78,577.33V554.05q0-6.86-2.5-10.05t-7.8-3.2a11.58,11.58,0,0,0-6.31,1.81,12.45,12.45,0,0,0-4.52,5.15,16.74,16.74,0,0,0-1.65,7.52v22h-3.66V519.78H698v25.63h.14q4.68-7.91,13.32-7.91,6.36,0,9.63,4t3.27,11.67v24.12Z" transform="translate(-293.52 -6.5)"/>
    <path class="cls-2" d="M751.71,578.28a18.49,18.49,0,0,1-9.7-2.53,16.78,16.78,0,0,1-6.49-7.1,23.35,23.35,0,0,1-2.27-10.51,24.58,24.58,0,0,1,2.3-11,16.47,16.47,0,0,1,6.61-7.19,19.59,19.59,0,0,1,10-2.5q8.33,0,13.15,5.47t4.82,15a24,24,0,0,1-2.27,10.63,16.63,16.63,0,0,1-6.45,7.17A18.47,18.47,0,0,1,751.71,578.28ZM752,540.8q-7,0-11,4.73t-4,12.67q0,7.63,4,12.2T751.82,575q7,0,10.76-4.5t3.8-12.59q0-8.3-3.73-12.69T752,540.8Z" transform="translate(-293.52 -6.5)"/>
    <path class="cls-2" d="M795.45,578.28a18.49,18.49,0,0,1-9.7-2.53,16.78,16.78,0,0,1-6.49-7.1A23.35,23.35,0,0,1,777,558.13a24.58,24.58,0,0,1,2.3-11A16.47,16.47,0,0,1,785.9,540a19.59,19.59,0,0,1,10-2.5q8.33,0,13.15,5.47t4.82,15a24,24,0,0,1-2.27,10.63,16.63,16.63,0,0,1-6.45,7.17A18.47,18.47,0,0,1,795.45,578.28Zm.28-37.48q-7,0-11,4.73t-4,12.67q0,7.63,4,12.2T795.55,575q7,0,10.76-4.5t3.8-12.59q0-8.3-3.73-12.69T795.73,540.8Z" transform="translate(-293.52 -6.5)"/>
    <path class="cls-2" d="M821.53,571.28A15.16,15.16,0,0,0,826.3,574a14.9,14.9,0,0,0,4.94,1q9.07,0,9.07-7.35a5.73,5.73,0,0,0-1.81-4.24,23.68,23.68,0,0,0-6.73-3.92q-5.41-2.32-7.77-4.9a9.21,9.21,0,0,1-2.36-6.45,9.41,9.41,0,0,1,3.66-7.65,13.92,13.92,0,0,1,9.07-3,17.33,17.33,0,0,1,8.58,2v4.08a16.39,16.39,0,0,0-9-2.81,9.36,9.36,0,0,0-6.12,2,6.32,6.32,0,0,0-2.39,5.15,7,7,0,0,0,.72,3.45,7.46,7.46,0,0,0,2.39,2.39,33.82,33.82,0,0,0,4.9,2.57,38.48,38.48,0,0,1,6.52,3.46,10,10,0,0,1,3.2,3.38,9.42,9.42,0,0,1,.93,4.41,9.55,9.55,0,0,1-3.6,7.77q-3.6,3-9.54,3a16,16,0,0,1-9.42-2.67Z" transform="translate(-293.52 -6.5)"/>
    <path class="cls-2" d="M854.86,558.13q0,7.91,3.66,12.38A12.37,12.37,0,0,0,868.64,575a20.66,20.66,0,0,0,12.76-4.78V574a22.92,22.92,0,0,1-13.5,4.25q-7.8,0-12.32-5.57t-4.52-15a23.47,23.47,0,0,1,2.23-10.21,17.76,17.76,0,0,1,6.22-7.35,15.91,15.91,0,0,1,9-2.65q7.1,0,11.07,5t4,14v1.65Zm25-3.3q-.21-6.64-3.22-10.34a10,10,0,0,0-8.21-3.69,11.94,11.94,0,0,0-9,3.69q-3.53,3.69-4.34,10.34Z" transform="translate(-293.52 -6.5)"/>
    <path class="cls-2" d="M937.72,577.33v-7.7h-.14A15.52,15.52,0,0,1,932.1,576a13.83,13.83,0,0,1-7.73,2.3,12.33,12.33,0,0,1-8.75-3.08,10.3,10.3,0,0,1-3.3-7.89q0-10.34,13.46-12.34l12-1.79q0-12.37-9.35-12.37-6.43,0-12.52,5.13v-4.32a19.09,19.09,0,0,1,6-3,22.8,22.8,0,0,1,6.91-1.11q6.12,0,9.39,3.71t3.27,10.85v25.28ZM916.14,567.1a7.39,7.39,0,0,0,2.36,5.71,8.94,8.94,0,0,0,6.29,2.16,12.07,12.07,0,0,0,6.59-1.88,12.85,12.85,0,0,0,4.66-5.27,16.7,16.7,0,0,0,1.69-7.54v-3.8L927.11,558q-6,.84-8.49,3A7.63,7.63,0,0,0,916.14,567.1Z" transform="translate(-293.52 -6.5)"/>
    <path class="cls-2" d="M979,526.46v22h20.07v3.55H979v25.28h-3.9V522.87h25.56v3.59Z" transform="translate(-293.52 -6.5)"/>
    <path class="cls-2" d="M1012.36,528.64a2.91,2.91,0,0,1-2.06-.84,2.86,2.86,0,0,1-.9-2.18,2.67,2.67,0,0,1,.88-2,2.93,2.93,0,0,1,2.07-.83,3.1,3.1,0,0,1,2.09.77,2.6,2.6,0,0,1,.9,2.07,2.92,2.92,0,0,1-.88,2.14A2.88,2.88,0,0,1,1012.36,528.64Zm-1.79,48.69V538.45h3.66v38.88Z" transform="translate(-293.52 -6.5)"/>
    <path class="cls-2" d="M1026.67,577.33V519.78h3.66v57.55Z" transform="translate(-293.52 -6.5)"/>
    <path class="cls-2" d="M1043.76,558.13q0,7.91,3.66,12.38a12.37,12.37,0,0,0,10.13,4.46,20.66,20.66,0,0,0,12.76-4.78V574a22.92,22.92,0,0,1-13.5,4.25q-7.8,0-12.32-5.57t-4.52-15a23.47,23.47,0,0,1,2.23-10.21,17.76,17.76,0,0,1,6.22-7.35,15.91,15.91,0,0,1,9-2.65q7.1,0,11.07,5t4,14v1.65Zm25-3.3q-.21-6.64-3.22-10.34a10,10,0,0,0-8.21-3.69,11.94,11.94,0,0,0-9,3.69q-3.53,3.69-4.34,10.34Z" transform="translate(-293.52 -6.5)"/>
  </g>
</svg>
