<svg id="Layer_1" data-name="Layer 1" xmlns="http://www.w3.org/2000/svg" viewBox="0 0 520.59 470.92">
  <defs>
    <style>
      .cls-1, .cls-2 {
        fill: #fff;
      }

      .cls-1 {
        stroke: #fff;
        stroke-miterlimit: 10;
      }
    </style>
  </defs>
  <title>Drop_File</title>
  <g id="_Group_" data-name="&lt;Group&gt;">
    <path id="_Compound_Path_" data-name="&lt;Compound Path&gt;" class="cls-1" d="M682.74,245h-80V225.2h80Zm-80,59.77H742.51V285H602.76Zm0,40H742.51V325H602.76Zm0,40H742.51V365H602.76Zm200-149.64V424.72a19.73,19.73,0,0,1-19.78,19.78H583a19.73,19.73,0,0,1-19.78-19.78V184.78A19.73,19.73,0,0,1,583,165H732.62ZM782.5,245l-59.77-60.2H583V424.29H782.5Z" transform="translate(-424.5 -164.5)"/>
  </g>
  <g>
    <path class="cls-2" d="M424.5,617.53V563.07h13.71q13.57,0,20.65,6.75t7.08,19.72a30.47,30.47,0,0,1-3.46,14.73,23.63,23.63,0,0,1-9.93,9.83,31.91,31.91,0,0,1-15.15,3.43Zm3.9-50.87V614h8.51q12.06,0,18.53-6.31t6.47-18q0-23-24.26-23Z" transform="translate(-424.5 -164.5)"/>
    <path class="cls-2" d="M494.7,582.44a6.91,6.91,0,0,0-4.15-1.27q-4.82,0-7.77,4.92t-3,13.08v18.35h-3.59V578.64h3.59v8.58H480a14.15,14.15,0,0,1,4.18-6.86,9.9,9.9,0,0,1,6.68-2.5,10.15,10.15,0,0,1,3.87.7Z" transform="translate(-424.5 -164.5)"/>
    <path class="cls-2" d="M516.61,618.48a18.49,18.49,0,0,1-9.7-2.53,16.78,16.78,0,0,1-6.49-7.1,23.35,23.35,0,0,1-2.27-10.51,24.58,24.58,0,0,1,2.3-11,16.46,16.46,0,0,1,6.61-7.19,19.58,19.58,0,0,1,10-2.5q8.33,0,13.15,5.47t4.82,15a24,24,0,0,1-2.27,10.63,16.63,16.63,0,0,1-6.45,7.17A18.48,18.48,0,0,1,516.61,618.48Zm.28-37.48q-7,0-11,4.73t-4,12.67q0,7.63,4,12.2t10.79,4.57q7,0,10.76-4.5t3.8-12.59q0-8.3-3.73-12.69T516.89,581Z" transform="translate(-424.5 -164.5)"/>
    <path class="cls-2" d="M548.35,610.71v24.71H544.7V578.64h3.66v7.95h.14a15.57,15.57,0,0,1,5.87-6.56A16.09,16.09,0,0,1,563,577.7q7.35,0,11.55,5.12t4.2,13.87A28.28,28.28,0,0,1,576.55,608a17.49,17.49,0,0,1-6.15,7.73,15.73,15.73,0,0,1-9.07,2.71q-8.68,0-12.83-7.77Zm0-9.63a15.33,15.33,0,0,0,1.69,7.14,12.58,12.58,0,0,0,4.75,5.12,12.94,12.94,0,0,0,6.82,1.85,11.16,11.16,0,0,0,6.93-2.32,14.78,14.78,0,0,0,4.73-6.57,25.89,25.89,0,0,0,1.67-9.53q0-7.21-3.39-11.48a11,11,0,0,0-9.05-4.27,14,14,0,0,0-7.42,2,13.14,13.14,0,0,0-5,5.45,17,17,0,0,0-1.76,7.75Z" transform="translate(-424.5 -164.5)"/>
    <path class="cls-2" d="M632.87,617.53v-7.7h-.14a15.53,15.53,0,0,1-5.48,6.35,13.83,13.83,0,0,1-7.73,2.3,12.33,12.33,0,0,1-8.75-3.08,10.3,10.3,0,0,1-3.3-7.89q0-10.34,13.46-12.34l12-1.79q0-12.37-9.35-12.37-6.43,0-12.52,5.13v-4.32a19.08,19.08,0,0,1,6-3,22.8,22.8,0,0,1,6.91-1.11q6.12,0,9.39,3.71t3.27,10.85v25.28ZM611.28,607.3a7.39,7.39,0,0,0,2.36,5.71,8.94,8.94,0,0,0,6.29,2.16,12.07,12.07,0,0,0,6.59-1.88,12.85,12.85,0,0,0,4.66-5.27,16.7,16.7,0,0,0,1.69-7.54v-3.8l-10.62,1.51q-6,.84-8.49,3A7.63,7.63,0,0,0,611.28,607.3Z" transform="translate(-424.5 -164.5)"/>
    <path class="cls-2" d="M674.18,566.66v22h20.07v3.55H674.18v25.28h-3.9V563.07h25.56v3.59Z" transform="translate(-424.5 -164.5)"/>
    <path class="cls-2" d="M707.5,568.84a2.91,2.91,0,0,1-2.06-.84,2.86,2.86,0,0,1-.9-2.18,2.67,2.67,0,0,1,.88-2,2.93,2.93,0,0,1,2.07-.83,3.1,3.1,0,0,1,2.09.77,2.6,2.6,0,0,1,.9,2.07,2.92,2.92,0,0,1-.88,2.14A2.88,2.88,0,0,1,707.5,568.84Zm-1.79,48.69V578.64h3.66v38.88Z" transform="translate(-424.5 -164.5)"/>
    <path class="cls-2" d="M721.81,617.53V560h3.66v57.55Z" transform="translate(-424.5 -164.5)"/>
    <path class="cls-2" d="M738.9,598.33q0,7.91,3.66,12.38a12.37,12.37,0,0,0,10.13,4.46,20.66,20.66,0,0,0,12.76-4.78v3.83a22.92,22.92,0,0,1-13.5,4.25q-7.8,0-12.32-5.57t-4.52-15a23.47,23.47,0,0,1,2.23-10.21,17.76,17.76,0,0,1,6.22-7.35,15.91,15.91,0,0,1,9-2.65q7.1,0,11.07,5t4,14v1.65Zm25-3.3q-.21-6.64-3.22-10.34a10,10,0,0,0-8.21-3.69,11.94,11.94,0,0,0-9,3.69q-3.53,3.69-4.34,10.34Z" transform="translate(-424.5 -164.5)"/>
    <path class="cls-2" d="M834.28,617.53V591.48h-31v26.05h-3.9V563.07h3.9V588h31V563.07h3.83v54.46Z" transform="translate(-424.5 -164.5)"/>
    <path class="cls-2" d="M852.31,598.33q0,7.91,3.66,12.38a12.37,12.37,0,0,0,10.13,4.46,20.66,20.66,0,0,0,12.76-4.78v3.83a22.92,22.92,0,0,1-13.5,4.25q-7.8,0-12.32-5.57t-4.52-15a23.47,23.47,0,0,1,2.23-10.21,17.76,17.76,0,0,1,6.22-7.35,15.91,15.91,0,0,1,9-2.65q7.1,0,11.07,5t4,14v1.65Zm25-3.3q-.21-6.64-3.22-10.34a10,10,0,0,0-8.21-3.69,11.94,11.94,0,0,0-9,3.69q-3.53,3.69-4.34,10.34Z" transform="translate(-424.5 -164.5)"/>
    <path class="cls-2" d="M909.13,582.44a6.91,6.91,0,0,0-4.15-1.27q-4.82,0-7.77,4.92t-3,13.08v18.35h-3.59V578.64h3.59v8.58h.14a14.15,14.15,0,0,1,4.18-6.86,9.9,9.9,0,0,1,6.68-2.5,10.15,10.15,0,0,1,3.87.7Z" transform="translate(-424.5 -164.5)"/>
    <path class="cls-2" d="M916.37,598.33q0,7.91,3.66,12.38a12.37,12.37,0,0,0,10.13,4.46,20.66,20.66,0,0,0,12.76-4.78v3.83a22.92,22.92,0,0,1-13.5,4.25q-7.8,0-12.32-5.57t-4.52-15a23.47,23.47,0,0,1,2.23-10.21,17.76,17.76,0,0,1,6.22-7.35,15.91,15.91,0,0,1,9-2.65q7.1,0,11.07,5t4,14v1.65Zm25-3.3q-.21-6.64-3.22-10.34A10,10,0,0,0,929.9,581a11.94,11.94,0,0,0-9,3.69q-3.53,3.69-4.34,10.34Z" transform="translate(-424.5 -164.5)"/>
  </g>
</svg>
