<svg id="Layer_1" data-name="Layer 1" xmlns="http://www.w3.org/2000/svg" viewBox="0 0 1366 746">
  <defs>
    <style>
      .cls-1 {
        fill: #4d4d4d;
      }

      .cls-2 {
        fill: none;
        stroke: #4d4d4d;
        stroke-miterlimit: 10;
        stroke-width: 12px;
      }
    </style>
  </defs>
  <title>filetype info</title>
  <g>
    <path class="cls-1" d="M3.574,253.554A18.842,18.842,0,0,0,15.85,257.8q9.023,0,9.023-6.182a5.526,5.526,0,0,0-1-3.223,9.219,9.219,0,0,0-2.681-2.5q-1.685-1.069-6.665-3.442-6.124-2.929-8.555-5.947a10.955,10.955,0,0,1-2.432-7.09,10.8,10.8,0,0,1,4.629-9.229q4.629-3.368,11.836-3.369,6.826,0,10.313,1.67v7.207a17.946,17.946,0,0,0-10.459-2.9,11.65,11.65,0,0,0-6.475,1.611,5.027,5.027,0,0,0-2.461,4.424,5.414,5.414,0,0,0,1.8,4.189q1.8,1.641,7.6,4.395,6.768,3.164,9.346,6.343a11.278,11.278,0,0,1,2.578,7.31q0,6.152-4.453,9.4T15.469,263.72a33.384,33.384,0,0,1-6.445-.7,16.87,16.87,0,0,1-5.449-1.875Z" transform="translate(0 -3)"/>
    <path class="cls-1" d="M67.764,262.958H60.908V257.89h-.146a10.834,10.834,0,0,1-9.961,5.83q-11.455,0-11.455-13.74V230.556H46.2V249.13q0,9.082,6.973,9.082a7.046,7.046,0,0,0,5.566-2.49,9.592,9.592,0,0,0,2.168-6.533V230.556h6.855Z" transform="translate(0 -3)"/>
    <path class="cls-1" d="M84.375,258.593V277.87H77.49V230.556h6.885v5.391h.146a12.9,12.9,0,0,1,20.625-1.831q3.544,4.322,3.545,11.7,0,8.115-4.014,13.008a13.193,13.193,0,0,1-10.752,4.893,10.476,10.476,0,0,1-9.4-5.127Zm-.059-9.287a9.047,9.047,0,0,0,2.344,6.343,7.672,7.672,0,0,0,5.918,2.563,7.753,7.753,0,0,0,6.68-3.3q2.373-3.3,2.373-9.126,0-5.01-2.2-7.749a7.442,7.442,0,0,0-6.152-2.739,8.178,8.178,0,0,0-6.46,2.871,10.652,10.652,0,0,0-2.5,7.266Z" transform="translate(0 -3)"/>
    <path class="cls-1" d="M123.193,258.593V277.87h-6.885V230.556h6.885v5.391h.146a12.9,12.9,0,0,1,20.625-1.831q3.544,4.322,3.545,11.7,0,8.115-4.014,13.008a13.193,13.193,0,0,1-10.752,4.893,10.476,10.476,0,0,1-9.4-5.127Zm-.059-9.287a9.047,9.047,0,0,0,2.344,6.343,7.672,7.672,0,0,0,5.918,2.563,7.753,7.753,0,0,0,6.68-3.3q2.373-3.3,2.373-9.126,0-5.01-2.2-7.749A7.442,7.442,0,0,0,132.1,235.3a8.178,8.178,0,0,0-6.46,2.871,10.652,10.652,0,0,0-2.5,7.266Z" transform="translate(0 -3)"/>
    <path class="cls-1" d="M153.047,247.05q0-8,4.556-12.627t12.407-4.629q7.411,0,11.719,4.482t4.307,12.246q0,7.822-4.541,12.51t-12.129,4.688q-7.442,0-11.88-4.541T153.047,247.05Zm7-.146q0,5.333,2.593,8.32a8.846,8.846,0,0,0,7.046,2.988q9.345,0,9.346-11.514,0-5.566-2.4-8.481a8.482,8.482,0,0,0-6.943-2.915,8.667,8.667,0,0,0-7.09,3.105Q160.049,241.513,160.049,246.9Z" transform="translate(0 -3)"/>
    <path class="cls-1" d="M212.08,237.118a7.293,7.293,0,0,0-4.043-1,6.334,6.334,0,0,0-5.405,2.93,13.212,13.212,0,0,0-2.065,7.764v16.143h-6.885v-32.4h6.885V237h.146q2.4-7,8.5-7a8.134,8.134,0,0,1,2.871.41Z" transform="translate(0 -3)"/>
    <path class="cls-1" d="M235.869,262.606a11.242,11.242,0,0,1-5.479,1.084q-9.229,0-9.229-10.02V236h-5.479v-5.449h5.479v-7.588l6.855-2.08v9.668h7.852V236h-7.852V252.47a7.054,7.054,0,0,0,1.069,4.365,4.132,4.132,0,0,0,3.442,1.348,5.657,5.657,0,0,0,3.34-1.055Z" transform="translate(0 -3)"/>
    <path class="cls-1" d="M268.975,248.6H246.709q.439,9.815,9.99,9.814a16.281,16.281,0,0,0,9.814-3.223v5.684q-4.336,2.842-11.4,2.842-7.207,0-11.279-4.395t-4.072-12.3a17.775,17.775,0,0,1,4.38-12.363,14.148,14.148,0,0,1,10.972-4.863q6.563,0,10.21,4.146t3.647,11.411Zm-6.68-5.01a9.772,9.772,0,0,0-1.9-6.387,6.586,6.586,0,0,0-5.332-2.227,7.389,7.389,0,0,0-5.449,2.358,10.832,10.832,0,0,0-2.871,6.255Z" transform="translate(0 -3)"/>
    <path class="cls-1" d="M305.244,262.958h-6.855v-5.127h-.146q-3.516,5.889-10.723,5.889a12.1,12.1,0,0,1-9.8-4.38q-3.647-4.379-3.647-11.821,0-8.057,4.1-12.891a13.357,13.357,0,0,1,10.693-4.834q6.592,0,9.375,4.98h.146V215h6.855Zm-6.8-18.984a8.584,8.584,0,0,0-2.388-6.182,8.359,8.359,0,0,0-12.524.7q-2.461,3.193-2.461,8.73,0,5.1,2.314,8.042a7.582,7.582,0,0,0,6.3,2.944A7.861,7.861,0,0,0,296,255.3a11.072,11.072,0,0,0,2.446-7.368Z" transform="translate(0 -3)"/>
    <path class="cls-1" d="M354.932,223.612H337.822V237.7h15.791v6.006H337.822v19.248h-7.031V217.577h24.141Z" transform="translate(0 -3)"/>
    <path class="cls-1" d="M361.611,219.423a3.772,3.772,0,0,1,1.187-2.856,4.185,4.185,0,0,1,3-1.128,4.3,4.3,0,0,1,3.018,1.128,3.931,3.931,0,0,1,0,5.713,4.3,4.3,0,0,1-3.018,1.128,4.167,4.167,0,0,1-2.988-1.143A3.761,3.761,0,0,1,361.611,219.423Zm.674,43.535v-32.4h6.885v32.4Z" transform="translate(0 -3)"/>
    <path class="cls-1" d="M378.809,262.958V215h6.885v47.959Z" transform="translate(0 -3)"/>
    <path class="cls-1" d="M422.52,248.6H400.254q.439,9.815,9.99,9.814a16.281,16.281,0,0,0,9.814-3.223v5.684q-4.336,2.842-11.4,2.842-7.207,0-11.279-4.395t-4.072-12.3a17.775,17.775,0,0,1,4.38-12.363,14.148,14.148,0,0,1,10.972-4.863q6.563,0,10.21,4.146t3.647,11.411Zm-6.68-5.01a9.772,9.772,0,0,0-1.9-6.387,6.586,6.586,0,0,0-5.332-2.227,7.389,7.389,0,0,0-5.449,2.358,10.832,10.832,0,0,0-2.871,6.255Z" transform="translate(0 -3)"/>
    <path class="cls-1" d="M446.338,262.606a11.242,11.242,0,0,1-5.479,1.084q-9.229,0-9.229-10.02V236h-5.479v-5.449h5.479v-7.588l6.855-2.08v9.668h7.852V236h-7.852V252.47a7.054,7.054,0,0,0,1.069,4.365A4.132,4.132,0,0,0,443,258.183a5.657,5.657,0,0,0,3.34-1.055Z" transform="translate(0 -3)"/>
    <path class="cls-1" d="M480.381,230.556l-14.268,36.68q-4.248,10.957-12.3,10.957a13.617,13.617,0,0,1-4.277-.557v-5.8a8.5,8.5,0,0,0,3.516.762q3.867,0,5.713-4.307l2.256-5.391-12.832-32.344h7.646l7.793,23.115a29.391,29.391,0,0,1,.762,3.105h.146a25.38,25.38,0,0,1,.791-3.047l8.115-23.174Z" transform="translate(0 -3)"/>
    <path class="cls-1" d="M492.275,258.593V277.87h-6.885V230.556h6.885v5.391h.146a12.9,12.9,0,0,1,20.625-1.831q3.544,4.322,3.545,11.7,0,8.115-4.014,13.008a13.193,13.193,0,0,1-10.752,4.893,10.476,10.476,0,0,1-9.4-5.127Zm-.059-9.287a9.047,9.047,0,0,0,2.344,6.343,7.672,7.672,0,0,0,5.918,2.563,7.753,7.753,0,0,0,6.68-3.3q2.373-3.3,2.373-9.126,0-5.01-2.2-7.749a7.442,7.442,0,0,0-6.152-2.739,8.178,8.178,0,0,0-6.46,2.871,10.652,10.652,0,0,0-2.5,7.266Z" transform="translate(0 -3)"/>
    <path class="cls-1" d="M551.338,248.6H529.072q.439,9.815,9.99,9.814a16.281,16.281,0,0,0,9.814-3.223v5.684q-4.336,2.842-11.4,2.842-7.207,0-11.279-4.395t-4.072-12.3a17.775,17.775,0,0,1,4.38-12.363,14.148,14.148,0,0,1,10.972-4.863q6.563,0,10.21,4.146t3.647,11.411Zm-6.68-5.01a9.772,9.772,0,0,0-1.9-6.387,6.586,6.586,0,0,0-5.332-2.227,7.389,7.389,0,0,0-5.449,2.358,10.832,10.832,0,0,0-2.871,6.255Z" transform="translate(0 -3)"/>
    <path class="cls-1" d="M556.992,255.429a16.59,16.59,0,0,0,9.434,3.076q6.445,0,6.445-3.984a3.347,3.347,0,0,0-1.348-2.739,26.362,26.362,0,0,0-6.064-2.827q-4.951-1.9-6.68-4.058a8.357,8.357,0,0,1-1.729-5.405,8.2,8.2,0,0,1,3.75-7.09,15.875,15.875,0,0,1,9.287-2.607,22.117,22.117,0,0,1,7.939,1.406v6.094a15.379,15.379,0,0,0-8.262-2.285,7.429,7.429,0,0,0-4.219,1.084,3.291,3.291,0,0,0-1.611,2.842,3.367,3.367,0,0,0,1.187,2.725,22.685,22.685,0,0,0,5.464,2.637q5.273,1.934,7.192,4.116a7.935,7.935,0,0,1,1.919,5.435,8.376,8.376,0,0,1-3.75,7.236q-3.751,2.637-9.844,2.637a21.366,21.366,0,0,1-9.111-1.816Z" transform="translate(0 -3)"/>
  </g>
  <g>
    <path class="cls-1" d="M43.271,361.939H40.488l-10.02-34.072a20.7,20.7,0,0,1-.85-4.307H29.5a21.665,21.665,0,0,1-1,4.248L17.813,361.939H15.029L1.582,316.559h3.6l10.313,36.3q.674,2.4,1,4.014h.117q.059-.381.19-.923t12.056-39.39h1.758l10.254,36.3q.732,2.813.967,4.014h.117a19.726,19.726,0,0,1,.527-2.168l10.576-38.145h3.486Z" transform="translate(0 -3)"/>
    <path class="cls-1" d="M62.578,345.943q0,6.592,3.047,10.313a10.307,10.307,0,0,0,8.438,3.721A17.221,17.221,0,0,0,84.7,355.992v3.193a19.1,19.1,0,0,1-11.25,3.545,12.51,12.51,0,0,1-10.269-4.644q-3.765-4.644-3.765-12.5a19.551,19.551,0,0,1,1.86-8.511,14.8,14.8,0,0,1,5.186-6.123,13.259,13.259,0,0,1,7.515-2.212,11.132,11.132,0,0,1,9.229,4.16q3.311,4.16,3.311,11.66v1.377Zm20.8-2.754q-.176-5.537-2.681-8.613a8.349,8.349,0,0,0-6.841-3.076,9.949,9.949,0,0,0-7.515,3.076,14.631,14.631,0,0,0-3.618,8.613Z" transform="translate(0 -3)"/>
    <path class="cls-1" d="M110.654,356.9a12.624,12.624,0,0,0,3.97,2.227,12.415,12.415,0,0,0,4.116.85q7.559,0,7.559-6.123a4.773,4.773,0,0,0-1.509-3.53,19.743,19.743,0,0,0-5.61-3.267,18.815,18.815,0,0,1-6.475-4.087,7.679,7.679,0,0,1-1.963-5.376,7.839,7.839,0,0,1,3.047-6.372,11.6,11.6,0,0,1,7.559-2.476,14.442,14.442,0,0,1,7.148,1.7v3.4A13.659,13.659,0,0,0,121,331.5a7.8,7.8,0,0,0-5.1,1.626,5.266,5.266,0,0,0-1.992,4.292,5.813,5.813,0,0,0,.6,2.871,6.212,6.212,0,0,0,1.992,1.992,28.132,28.132,0,0,0,4.087,2.139,32.083,32.083,0,0,1,5.435,2.886,8.318,8.318,0,0,1,2.666,2.813,7.857,7.857,0,0,1,.776,3.677,7.962,7.962,0,0,1-3,6.475,12.159,12.159,0,0,1-7.954,2.461,13.306,13.306,0,0,1-7.852-2.227Z" transform="translate(0 -3)"/>
    <path class="cls-1" d="M158.965,361.939V356.08h-.117q-3.34,6.65-10.43,6.65-11.485,0-11.484-14.414V329.537h3.076v18.047q0,6.475,2.153,9.434t6.782,2.959a9.025,9.025,0,0,0,7.236-3.3,12.965,12.965,0,0,0,2.783-8.657V329.537h3.047v32.4Z" transform="translate(0 -3)"/>
    <path class="cls-1" d="M175.43,356.256v20.6h-3.047V329.537h3.047v6.621h.117a12.978,12.978,0,0,1,4.893-5.464,13.409,13.409,0,0,1,7.178-1.948,11.78,11.78,0,0,1,9.624,4.263q3.5,4.263,3.5,11.558a23.566,23.566,0,0,1-1.816,9.463,14.574,14.574,0,0,1-5.127,6.445,13.107,13.107,0,0,1-7.559,2.256,11.36,11.36,0,0,1-10.693-6.475Zm0-8.027a12.774,12.774,0,0,0,1.406,5.947,10.485,10.485,0,0,0,3.955,4.263,10.786,10.786,0,0,0,5.684,1.538,9.3,9.3,0,0,0,5.771-1.934,12.319,12.319,0,0,0,3.94-5.479,21.58,21.58,0,0,0,1.392-7.939q0-6.006-2.827-9.565a9.145,9.145,0,0,0-7.544-3.56,11.632,11.632,0,0,0-6.182,1.626,10.949,10.949,0,0,0-4.131,4.541,14.176,14.176,0,0,0-1.465,6.46Z" transform="translate(0 -3)"/>
    <path class="cls-1" d="M211.816,356.256v20.6H208.77V329.537h3.047v6.621h.117a12.978,12.978,0,0,1,4.893-5.464A13.409,13.409,0,0,1,224,328.746a11.78,11.78,0,0,1,9.624,4.263q3.5,4.263,3.5,11.558a23.566,23.566,0,0,1-1.816,9.463,14.574,14.574,0,0,1-5.127,6.445,13.107,13.107,0,0,1-7.559,2.256,11.36,11.36,0,0,1-10.693-6.475Zm0-8.027a12.774,12.774,0,0,0,1.406,5.947,10.485,10.485,0,0,0,3.955,4.263,10.786,10.786,0,0,0,5.684,1.538,9.3,9.3,0,0,0,5.771-1.934,12.319,12.319,0,0,0,3.94-5.479,21.58,21.58,0,0,0,1.392-7.939q0-6.006-2.827-9.565a9.145,9.145,0,0,0-7.544-3.56,11.632,11.632,0,0,0-6.182,1.626,10.949,10.949,0,0,0-4.131,4.541,14.176,14.176,0,0,0-1.465,6.46Z" transform="translate(0 -3)"/>
    <path class="cls-1" d="M258.193,362.73a15.409,15.409,0,0,1-8.086-2.109A13.98,13.98,0,0,1,244.7,354.7a19.46,19.46,0,0,1-1.89-8.76,20.485,20.485,0,0,1,1.919-9.126,13.718,13.718,0,0,1,5.508-5.991,16.32,16.32,0,0,1,8.335-2.08q6.943,0,10.957,4.556t4.014,12.5a20,20,0,0,1-1.89,8.862,13.857,13.857,0,0,1-5.376,5.977A15.4,15.4,0,0,1,258.193,362.73Zm.234-31.23a11.3,11.3,0,0,0-9.126,3.94q-3.325,3.94-3.325,10.562,0,6.357,3.311,10.166a11.3,11.3,0,0,0,8.994,3.809q5.8,0,8.965-3.75t3.164-10.488q0-6.914-3.105-10.576T258.428,331.5Z" transform="translate(0 -3)"/>
    <path class="cls-1" d="M296.982,332.7a5.76,5.76,0,0,0-3.457-1.055q-4.014,0-6.475,4.1t-2.461,10.9v15.293H281.6v-32.4h2.988v7.148h.117a11.792,11.792,0,0,1,3.486-5.713,8.247,8.247,0,0,1,5.566-2.08,8.461,8.461,0,0,1,3.223.586Z" transform="translate(0 -3)"/>
    <path class="cls-1" d="M317.871,361.5a9.952,9.952,0,0,1-4.307,1.084q-7.236,0-7.236-8.643v-21.65H300.5v-2.754h5.83v-8.379l2.988-1.025v9.4h8.555v2.754h-8.555v21.24a8.564,8.564,0,0,0,1.055,4.834A4.139,4.139,0,0,0,314,359.859a7.964,7.964,0,0,0,3.867-1.172Z" transform="translate(0 -3)"/>
    <path class="cls-1" d="M343.564,321.363a2.429,2.429,0,0,1-1.714-.7,2.381,2.381,0,0,1-.747-1.816,2.224,2.224,0,0,1,.732-1.685,2.441,2.441,0,0,1,1.729-.688,2.589,2.589,0,0,1,1.743.645,2.168,2.168,0,0,1,.747,1.729,2.433,2.433,0,0,1-.732,1.787A2.4,2.4,0,0,1,343.564,321.363Zm-1.494,40.576v-32.4h3.047v32.4Z" transform="translate(0 -3)"/>
    <path class="cls-1" d="M377.52,361.939V343.1q0-11.6-8.379-11.6a9.761,9.761,0,0,0-7.6,3.354,12.237,12.237,0,0,0-3,8.481v18.6h-3.047v-32.4h3.047V335.4h.117a11.747,11.747,0,0,1,11.045-6.65q5.244,0,8.027,3.5t2.783,9.976v19.717Z" transform="translate(0 -3)"/>
    <path class="cls-1" d="M393.311,356.256v20.6h-3.047V329.537h3.047v6.621h.117a12.978,12.978,0,0,1,4.893-5.464,13.409,13.409,0,0,1,7.178-1.948,11.78,11.78,0,0,1,9.624,4.263q3.5,4.263,3.5,11.558a23.566,23.566,0,0,1-1.816,9.463,14.574,14.574,0,0,1-5.127,6.445,13.107,13.107,0,0,1-7.559,2.256,11.36,11.36,0,0,1-10.693-6.475Zm0-8.027a12.774,12.774,0,0,0,1.406,5.947,10.485,10.485,0,0,0,3.955,4.263,10.786,10.786,0,0,0,5.684,1.538,9.3,9.3,0,0,0,5.771-1.934,12.319,12.319,0,0,0,3.94-5.479,21.58,21.58,0,0,0,1.392-7.939q0-6.006-2.827-9.565a9.145,9.145,0,0,0-7.544-3.56,11.632,11.632,0,0,0-6.182,1.626,10.949,10.949,0,0,0-4.131,4.541,14.176,14.176,0,0,0-1.465,6.46Z" transform="translate(0 -3)"/>
    <path class="cls-1" d="M448.008,361.939V356.08h-.117q-3.34,6.65-10.43,6.65-11.485,0-11.484-14.414V329.537h3.076v18.047q0,6.475,2.153,9.434t6.782,2.959a9.025,9.025,0,0,0,7.236-3.3,12.965,12.965,0,0,0,2.783-8.657V329.537h3.047v32.4Z" transform="translate(0 -3)"/>
    <path class="cls-1" d="M474.375,361.5a9.952,9.952,0,0,1-4.307,1.084q-7.236,0-7.236-8.643v-21.65H457v-2.754h5.83v-8.379l2.988-1.025v9.4h8.555v2.754H465.82v21.24a8.564,8.564,0,0,0,1.055,4.834,4.139,4.139,0,0,0,3.633,1.494,7.964,7.964,0,0,0,3.867-1.172Z" transform="translate(0 -3)"/>
    <path class="cls-1" d="M512.842,317.115a5.746,5.746,0,0,0-3.545-.908q-5.948,0-5.947,8v5.332h8.525v2.754H503.35v29.648h-3.018V332.291h-5.8v-2.754h5.8v-5.713a11.2,11.2,0,0,1,2.417-7.559,8.289,8.289,0,0,1,6.636-2.812,8.493,8.493,0,0,1,3.457.615Z" transform="translate(0 -3)"/>
    <path class="cls-1" d="M518.086,321.363a2.429,2.429,0,0,1-1.714-.7,2.381,2.381,0,0,1-.747-1.816,2.224,2.224,0,0,1,.732-1.685,2.441,2.441,0,0,1,1.729-.688,2.589,2.589,0,0,1,1.743.645,2.168,2.168,0,0,1,.747,1.729,2.433,2.433,0,0,1-.732,1.787A2.4,2.4,0,0,1,518.086,321.363Zm-1.494,40.576v-32.4h3.047v32.4Z" transform="translate(0 -3)"/>
    <path class="cls-1" d="M530.01,361.939V313.98h3.047v47.959Z" transform="translate(0 -3)"/>
    <path class="cls-1" d="M544.248,345.943q0,6.592,3.047,10.313a10.307,10.307,0,0,0,8.438,3.721,17.221,17.221,0,0,0,10.635-3.984v3.193a19.1,19.1,0,0,1-11.25,3.545,12.51,12.51,0,0,1-10.269-4.644q-3.765-4.644-3.765-12.5a19.551,19.551,0,0,1,1.86-8.511,14.8,14.8,0,0,1,5.186-6.123,13.259,13.259,0,0,1,7.515-2.212,11.132,11.132,0,0,1,9.229,4.16q3.311,4.16,3.311,11.66v1.377Zm20.8-2.754q-.176-5.537-2.681-8.613a8.349,8.349,0,0,0-6.841-3.076,9.949,9.949,0,0,0-7.515,3.076,14.631,14.631,0,0,0-3.618,8.613Z" transform="translate(0 -3)"/>
    <path class="cls-1" d="M589.16,361.5a9.952,9.952,0,0,1-4.307,1.084q-7.236,0-7.236-8.643v-21.65h-5.83v-2.754h5.83v-8.379l2.988-1.025v9.4h8.555v2.754h-8.555v21.24a8.564,8.564,0,0,0,1.055,4.834,4.139,4.139,0,0,0,3.633,1.494,7.964,7.964,0,0,0,3.867-1.172Z" transform="translate(0 -3)"/>
    <path class="cls-1" d="M594.082,377.145a6.756,6.756,0,0,1-2.549-.439v-2.988a8.034,8.034,0,0,0,2.666.439q3.867,0,6.123-5.332l2.988-7.148-12.275-32.139H594.4l9.727,26.338.732,2.373h.117l.762-2.227,10.371-26.484h3.252l-15.7,38.965a17.79,17.79,0,0,1-4.072,6.636A7.925,7.925,0,0,1,594.082,377.145Z" transform="translate(0 -3)"/>
    <path class="cls-1" d="M628.066,356.256v20.6H625.02V329.537h3.047v6.621h.117a12.978,12.978,0,0,1,4.893-5.464,13.409,13.409,0,0,1,7.178-1.948,11.78,11.78,0,0,1,9.624,4.263q3.5,4.263,3.5,11.558a23.566,23.566,0,0,1-1.816,9.463,14.571,14.571,0,0,1-5.127,6.445,13.107,13.107,0,0,1-7.559,2.256,11.36,11.36,0,0,1-10.693-6.475Zm0-8.027a12.774,12.774,0,0,0,1.406,5.947,10.485,10.485,0,0,0,3.955,4.263,10.786,10.786,0,0,0,5.684,1.538,9.3,9.3,0,0,0,5.771-1.934,12.319,12.319,0,0,0,3.94-5.479,21.57,21.57,0,0,0,1.392-7.939q0-6.006-2.827-9.565a9.145,9.145,0,0,0-7.544-3.56,11.632,11.632,0,0,0-6.182,1.626,10.949,10.949,0,0,0-4.131,4.541,14.176,14.176,0,0,0-1.465,6.46Z" transform="translate(0 -3)"/>
    <path class="cls-1" d="M662.227,345.943q0,6.592,3.047,10.313a10.307,10.307,0,0,0,8.438,3.721,17.219,17.219,0,0,0,10.635-3.984v3.193a19.1,19.1,0,0,1-11.25,3.545,12.511,12.511,0,0,1-10.269-4.644q-3.765-4.644-3.765-12.5a19.558,19.558,0,0,1,1.86-8.511,14.8,14.8,0,0,1,5.186-6.123,13.262,13.262,0,0,1,7.515-2.212,11.131,11.131,0,0,1,9.229,4.16q3.311,4.16,3.311,11.66v1.377Zm20.8-2.754q-.176-5.537-2.681-8.613a8.349,8.349,0,0,0-6.841-3.076,9.949,9.949,0,0,0-7.515,3.076,14.631,14.631,0,0,0-3.618,8.613Z" transform="translate(0 -3)"/>
    <path class="cls-1" d="M692.52,356.9a12.629,12.629,0,0,0,3.97,2.227,12.417,12.417,0,0,0,4.116.85q7.559,0,7.559-6.123a4.773,4.773,0,0,0-1.509-3.53,19.735,19.735,0,0,0-5.61-3.267,18.82,18.82,0,0,1-6.475-4.087,7.679,7.679,0,0,1-1.963-5.376,7.84,7.84,0,0,1,3.047-6.372,11.6,11.6,0,0,1,7.559-2.476,14.441,14.441,0,0,1,7.148,1.7v3.4a13.659,13.659,0,0,0-7.5-2.344,7.8,7.8,0,0,0-5.1,1.626,5.267,5.267,0,0,0-1.992,4.292,5.813,5.813,0,0,0,.6,2.871,6.217,6.217,0,0,0,1.992,1.992,28.185,28.185,0,0,0,4.087,2.139,32.064,32.064,0,0,1,5.435,2.886,8.318,8.318,0,0,1,2.666,2.813,7.851,7.851,0,0,1,.776,3.677,7.962,7.962,0,0,1-3,6.475,12.157,12.157,0,0,1-7.954,2.461,13.306,13.306,0,0,1-7.852-2.227Z" transform="translate(0 -3)"/>
    <path class="cls-1" d="M750.293,362.73a15.409,15.409,0,0,1-8.086-2.109A13.98,13.98,0,0,1,736.8,354.7a19.46,19.46,0,0,1-1.89-8.76,20.485,20.485,0,0,1,1.919-9.126,13.721,13.721,0,0,1,5.508-5.991,16.322,16.322,0,0,1,8.335-2.08q6.943,0,10.957,4.556t4.014,12.5a20,20,0,0,1-1.89,8.862,13.857,13.857,0,0,1-5.376,5.977A15.394,15.394,0,0,1,750.293,362.73Zm.234-31.23a11.305,11.305,0,0,0-9.126,3.94q-3.325,3.94-3.325,10.562,0,6.357,3.311,10.166a11.3,11.3,0,0,0,8.994,3.809q5.8,0,8.965-3.75t3.164-10.488q0-6.914-3.105-10.576T750.527,331.5Z" transform="translate(0 -3)"/>
    <path class="cls-1" d="M786.8,317.115a5.746,5.746,0,0,0-3.545-.908q-5.947,0-5.947,8v5.332h8.525v2.754H777.3v29.648h-3.018V332.291h-5.8v-2.754h5.8v-5.713a11.2,11.2,0,0,1,2.417-7.559,8.289,8.289,0,0,1,6.636-2.812,8.491,8.491,0,0,1,3.457.615Z" transform="translate(0 -3)"/>
    <path class="cls-1" d="M812.227,343.8v18.135h-3.252V316.559H820.02q7.031,0,10.723,3.237t3.691,9.536a14.832,14.832,0,0,1-1.919,7.6,12.809,12.809,0,0,1-5.508,5.083A18.4,18.4,0,0,1,818.7,343.8Zm0-24.258v21.3h6.387q6.094,0,9.287-2.915t3.193-8.247q0-10.136-11.689-10.137Z" transform="translate(0 -3)"/>
    <path class="cls-1" d="M844.277,361.939V316.559H855.7q11.309,0,17.212,5.625t5.9,16.436a25.384,25.384,0,0,1-2.886,12.275,19.686,19.686,0,0,1-8.276,8.188,26.59,26.59,0,0,1-12.627,2.856Zm3.252-42.393V359.01h7.09q10.049,0,15.439-5.259t5.391-15.015q0-19.189-20.215-19.189Z" transform="translate(0 -3)"/>
    <path class="cls-1" d="M891.3,319.547v18.369h16.729v2.959H891.3v21.064h-3.252V316.559h21.3v2.988Z" transform="translate(0 -3)"/>
    <path class="cls-1" d="M911.543,369.82h-2.52l4.688-15.059h3.311Z" transform="translate(0 -3)"/>
    <path class="cls-1" d="M948.75,343.8v18.135H945.5V316.559h11.045q7.031,0,10.723,3.237t3.691,9.536a14.832,14.832,0,0,1-1.919,7.6,12.809,12.809,0,0,1-5.508,5.083,18.4,18.4,0,0,1-8.306,1.787Zm0-24.258v21.3h6.387q6.094,0,9.287-2.915t3.193-8.247q0-10.136-11.689-10.137Z" transform="translate(0 -3)"/>
    <path class="cls-1" d="M990.791,362.73a15.409,15.409,0,0,1-8.086-2.109A13.98,13.98,0,0,1,977.3,354.7a19.46,19.46,0,0,1-1.89-8.76,20.485,20.485,0,0,1,1.919-9.126,13.721,13.721,0,0,1,5.508-5.991,16.322,16.322,0,0,1,8.335-2.08q6.943,0,10.957,4.556t4.014,12.5a20,20,0,0,1-1.89,8.862,13.857,13.857,0,0,1-5.376,5.977A15.394,15.394,0,0,1,990.791,362.73Zm.234-31.23a11.305,11.305,0,0,0-9.126,3.94q-3.325,3.94-3.325,10.562,0,6.357,3.311,10.166a11.3,11.3,0,0,0,8.994,3.809q5.8,0,8.965-3.75t3.164-10.488q0-6.914-3.105-10.576T991.025,331.5Z" transform="translate(0 -3)"/>
    <path class="cls-1" d="M1041.855,361.939h-2.842l-7.061-24.375a25.422,25.422,0,0,1-.5-2.7h-.176a10.9,10.9,0,0,1-.615,2.637l-7.881,24.434h-2.842l-9.785-32.4h3.34l7.5,25.781a14.946,14.946,0,0,1,.439,2.725h.264a14.449,14.449,0,0,1,.615-2.725l8.145-25.781h2.168l7.295,25.781a16.8,16.8,0,0,1,.439,2.725h.264a10.846,10.846,0,0,1,.527-2.725l7.646-25.781h3.076Z" transform="translate(0 -3)"/>
    <path class="cls-1" d="M1058.7,345.943q0,6.592,3.047,10.313a10.307,10.307,0,0,0,8.438,3.721,17.219,17.219,0,0,0,10.635-3.984v3.193a19.1,19.1,0,0,1-11.25,3.545,12.511,12.511,0,0,1-10.269-4.644q-3.765-4.644-3.765-12.5a19.558,19.558,0,0,1,1.86-8.511,14.8,14.8,0,0,1,5.186-6.123,13.262,13.262,0,0,1,7.515-2.212,11.131,11.131,0,0,1,9.229,4.16q3.311,4.16,3.311,11.66v1.377Zm20.8-2.754q-.176-5.537-2.681-8.613a8.349,8.349,0,0,0-6.841-3.076,9.949,9.949,0,0,0-7.515,3.076,14.631,14.631,0,0,0-3.618,8.613Z" transform="translate(0 -3)"/>
    <path class="cls-1" d="M1106.045,332.7a5.759,5.759,0,0,0-3.457-1.055q-4.014,0-6.475,4.1t-2.461,10.9v15.293h-2.988v-32.4h2.988v7.148h.117a11.8,11.8,0,0,1,3.486-5.713,8.247,8.247,0,0,1,5.566-2.08,8.459,8.459,0,0,1,3.223.586Z" transform="translate(0 -3)"/>
    <path class="cls-1" d="M1107.451,344.479v-2.93h17.285v2.93Z" transform="translate(0 -3)"/>
    <path class="cls-1" d="M1155.5,343.8v18.135h-3.252V316.559h11.045q7.031,0,10.723,3.237t3.691,9.536a14.832,14.832,0,0,1-1.919,7.6,12.809,12.809,0,0,1-5.508,5.083,18.4,18.4,0,0,1-8.306,1.787Zm0-24.258v21.3h6.387q6.094,0,9.287-2.915t3.193-8.247q0-10.136-11.689-10.137Z" transform="translate(0 -3)"/>
    <path class="cls-1" d="M1197.539,362.73a15.409,15.409,0,0,1-8.086-2.109,13.98,13.98,0,0,1-5.405-5.918,19.46,19.46,0,0,1-1.89-8.76,20.485,20.485,0,0,1,1.919-9.126,13.721,13.721,0,0,1,5.508-5.991,16.322,16.322,0,0,1,8.335-2.08q6.943,0,10.957,4.556t4.014,12.5a20,20,0,0,1-1.89,8.862,13.857,13.857,0,0,1-5.376,5.977A15.394,15.394,0,0,1,1197.539,362.73Zm.234-31.23a11.305,11.305,0,0,0-9.126,3.94q-3.325,3.94-3.325,10.562,0,6.357,3.311,10.166a11.3,11.3,0,0,0,8.994,3.809q5.8,0,8.965-3.75t3.164-10.488q0-6.914-3.105-10.576T1197.773,331.5Z" transform="translate(0 -3)"/>
    <path class="cls-1" d="M1222.441,321.363a2.429,2.429,0,0,1-1.714-.7,2.381,2.381,0,0,1-.747-1.816,2.224,2.224,0,0,1,.732-1.685,2.442,2.442,0,0,1,1.729-.688,2.588,2.588,0,0,1,1.743.645,2.168,2.168,0,0,1,.747,1.729,2.431,2.431,0,0,1-.732,1.787A2.4,2.4,0,0,1,1222.441,321.363Zm-1.494,40.576v-32.4h3.047v32.4Z" transform="translate(0 -3)"/>
    <path class="cls-1" d="M1256.4,361.939V343.1q0-11.6-8.379-11.6a9.761,9.761,0,0,0-7.6,3.354,12.24,12.24,0,0,0-3,8.481v18.6h-3.047v-32.4h3.047V335.4h.117a11.747,11.747,0,0,1,11.045-6.65q5.244,0,8.027,3.5t2.783,9.976v19.717Z" transform="translate(0 -3)"/>
    <path class="cls-1" d="M1282.09,361.5a9.949,9.949,0,0,1-4.307,1.084q-7.236,0-7.236-8.643v-21.65h-5.83v-2.754h5.83v-8.379l2.988-1.025v9.4h8.555v2.754h-8.555v21.24a8.564,8.564,0,0,0,1.055,4.834,4.139,4.139,0,0,0,3.633,1.494,7.961,7.961,0,0,0,3.867-1.172Z" transform="translate(0 -3)"/>
    <path class="cls-1" d="M8.232,428.256v20.6H5.186V401.537H8.232v6.621H8.35a12.978,12.978,0,0,1,4.893-5.464,13.409,13.409,0,0,1,7.178-1.948,11.78,11.78,0,0,1,9.624,4.263q3.5,4.263,3.5,11.558a23.566,23.566,0,0,1-1.816,9.463,14.574,14.574,0,0,1-5.127,6.445,13.107,13.107,0,0,1-7.559,2.256A11.36,11.36,0,0,1,8.35,428.256Zm0-8.027a12.774,12.774,0,0,0,1.406,5.947,10.485,10.485,0,0,0,3.955,4.263,10.786,10.786,0,0,0,5.684,1.538,9.3,9.3,0,0,0,5.771-1.934,12.319,12.319,0,0,0,3.94-5.479,21.58,21.58,0,0,0,1.392-7.939q0-6.006-2.827-9.565a9.145,9.145,0,0,0-7.544-3.56,11.632,11.632,0,0,0-6.182,1.626A10.949,10.949,0,0,0,9.7,409.667a14.176,14.176,0,0,0-1.465,6.46Z" transform="translate(0 -3)"/>
    <path class="cls-1" d="M56.953,404.7a5.76,5.76,0,0,0-3.457-1.055q-4.014,0-6.475,4.1t-2.461,10.9v15.293H41.572v-32.4h2.988v7.148h.117a11.792,11.792,0,0,1,3.486-5.713,8.247,8.247,0,0,1,5.566-2.08,8.461,8.461,0,0,1,3.223.586Z" transform="translate(0 -3)"/>
    <path class="cls-1" d="M62.988,417.943q0,6.592,3.047,10.313a10.307,10.307,0,0,0,8.438,3.721,17.221,17.221,0,0,0,10.635-3.984v3.193a19.1,19.1,0,0,1-11.25,3.545,12.51,12.51,0,0,1-10.269-4.644q-3.765-4.644-3.765-12.5a19.551,19.551,0,0,1,1.86-8.511,14.8,14.8,0,0,1,5.186-6.123,13.259,13.259,0,0,1,7.515-2.212,11.132,11.132,0,0,1,9.229,4.16q3.311,4.16,3.311,11.66v1.377Zm20.8-2.754q-.176-5.537-2.681-8.613a8.349,8.349,0,0,0-6.841-3.076,9.949,9.949,0,0,0-7.515,3.076,14.631,14.631,0,0,0-3.618,8.613Z" transform="translate(0 -3)"/>
    <path class="cls-1" d="M93.281,428.9a12.624,12.624,0,0,0,3.97,2.227,12.415,12.415,0,0,0,4.116.85q7.559,0,7.559-6.123a4.773,4.773,0,0,0-1.509-3.53,19.743,19.743,0,0,0-5.61-3.267,18.815,18.815,0,0,1-6.475-4.087,7.679,7.679,0,0,1-1.963-5.376,7.839,7.839,0,0,1,3.047-6.372,11.6,11.6,0,0,1,7.559-2.476,14.442,14.442,0,0,1,7.148,1.7v3.4a13.659,13.659,0,0,0-7.5-2.344,7.8,7.8,0,0,0-5.1,1.626,5.266,5.266,0,0,0-1.992,4.292,5.813,5.813,0,0,0,.6,2.871,6.212,6.212,0,0,0,1.992,1.992,28.132,28.132,0,0,0,4.087,2.139,32.083,32.083,0,0,1,5.435,2.886,8.318,8.318,0,0,1,2.666,2.813,7.857,7.857,0,0,1,.776,3.677,7.962,7.962,0,0,1-3,6.475,12.159,12.159,0,0,1-7.954,2.461,13.306,13.306,0,0,1-7.852-2.227Z" transform="translate(0 -3)"/>
    <path class="cls-1" d="M121.055,417.943q0,6.592,3.047,10.313a10.307,10.307,0,0,0,8.438,3.721,17.221,17.221,0,0,0,10.635-3.984v3.193a19.1,19.1,0,0,1-11.25,3.545,12.51,12.51,0,0,1-10.269-4.644q-3.765-4.644-3.765-12.5a19.551,19.551,0,0,1,1.86-8.511,14.8,14.8,0,0,1,5.186-6.123,13.259,13.259,0,0,1,7.515-2.212,11.132,11.132,0,0,1,9.229,4.16q3.311,4.16,3.311,11.66v1.377Zm20.8-2.754q-.176-5.537-2.681-8.613a8.349,8.349,0,0,0-6.841-3.076,9.949,9.949,0,0,0-7.515,3.076,14.631,14.631,0,0,0-3.618,8.613Z" transform="translate(0 -3)"/>
    <path class="cls-1" d="M175.049,433.939V415.1q0-11.6-8.379-11.6a9.761,9.761,0,0,0-7.6,3.354,12.237,12.237,0,0,0-3,8.481v18.6h-3.047v-32.4h3.047V407.4h.117a11.747,11.747,0,0,1,11.045-6.65q5.244,0,8.027,3.5t2.783,9.976v19.717Z" transform="translate(0 -3)"/>
    <path class="cls-1" d="M200.742,433.5a9.952,9.952,0,0,1-4.307,1.084q-7.236,0-7.236-8.643v-21.65h-5.83v-2.754h5.83v-8.379l2.988-1.025v9.4h8.555v2.754h-8.555v21.24a8.564,8.564,0,0,0,1.055,4.834,4.139,4.139,0,0,0,3.633,1.494,7.964,7.964,0,0,0,3.867-1.172Z" transform="translate(0 -3)"/>
    <path class="cls-1" d="M226.465,433.939v-6.416h-.117a12.942,12.942,0,0,1-4.57,5.288,11.521,11.521,0,0,1-6.445,1.919,10.276,10.276,0,0,1-7.295-2.563,8.584,8.584,0,0,1-2.754-6.577q0-8.613,11.221-10.283l9.961-1.494q0-10.312-7.793-10.312-5.361,0-10.43,4.277v-3.6a15.9,15.9,0,0,1,4.966-2.5,19,19,0,0,1,5.757-.923q5.1,0,7.822,3.091t2.725,9.038v21.064Zm-17.988-8.525a6.154,6.154,0,0,0,1.963,4.761,7.452,7.452,0,0,0,5.244,1.8,10.062,10.062,0,0,0,5.493-1.567,10.711,10.711,0,0,0,3.882-4.395,13.914,13.914,0,0,0,1.406-6.284v-3.164l-8.848,1.26q-5.01.7-7.075,2.461A6.358,6.358,0,0,0,208.477,425.414Z" transform="translate(0 -3)"/>
    <path class="cls-1" d="M252.158,433.5a9.952,9.952,0,0,1-4.307,1.084q-7.236,0-7.236-8.643v-21.65h-5.83v-2.754h5.83v-8.379l2.988-1.025v9.4h8.555v2.754H243.6v21.24a8.564,8.564,0,0,0,1.055,4.834,4.139,4.139,0,0,0,3.633,1.494,7.964,7.964,0,0,0,3.867-1.172Z" transform="translate(0 -3)"/>
    <path class="cls-1" d="M260.068,393.363a2.429,2.429,0,0,1-1.714-.7,2.382,2.382,0,0,1-.747-1.816,2.223,2.223,0,0,1,.732-1.685,2.439,2.439,0,0,1,1.729-.688,2.587,2.587,0,0,1,1.743.645,2.167,2.167,0,0,1,.747,1.729,2.433,2.433,0,0,1-.732,1.787A2.4,2.4,0,0,1,260.068,393.363Zm-1.494,40.576v-32.4h3.047v32.4Z" transform="translate(0 -3)"/>
    <path class="cls-1" d="M285.029,434.73a15.409,15.409,0,0,1-8.086-2.109,13.98,13.98,0,0,1-5.405-5.918,19.46,19.46,0,0,1-1.89-8.76,20.485,20.485,0,0,1,1.919-9.126,13.718,13.718,0,0,1,5.508-5.991,16.32,16.32,0,0,1,8.335-2.08q6.943,0,10.957,4.556t4.014,12.5a20,20,0,0,1-1.89,8.862,13.857,13.857,0,0,1-5.376,5.977A15.4,15.4,0,0,1,285.029,434.73Zm.234-31.23a11.3,11.3,0,0,0-9.126,3.94q-3.325,3.94-3.325,10.562,0,6.357,3.311,10.166a11.3,11.3,0,0,0,8.994,3.809q5.8,0,8.965-3.75t3.164-10.488q0-6.914-3.105-10.576T285.264,403.5Z" transform="translate(0 -3)"/>
    <path class="cls-1" d="M330.469,433.939V415.1q0-11.6-8.379-11.6a9.761,9.761,0,0,0-7.6,3.354,12.237,12.237,0,0,0-3,8.481v18.6h-3.047v-32.4h3.047V407.4h.117a11.747,11.747,0,0,1,11.045-6.65q5.244,0,8.027,3.5t2.783,9.976v19.717Z" transform="translate(0 -3)"/>
    <path class="cls-1" d="M341.543,428.9a12.624,12.624,0,0,0,3.97,2.227,12.415,12.415,0,0,0,4.116.85q7.559,0,7.559-6.123a4.773,4.773,0,0,0-1.509-3.53,19.743,19.743,0,0,0-5.61-3.267,18.815,18.815,0,0,1-6.475-4.087,7.679,7.679,0,0,1-1.963-5.376,7.839,7.839,0,0,1,3.047-6.372,11.6,11.6,0,0,1,7.559-2.476,14.442,14.442,0,0,1,7.148,1.7v3.4a13.659,13.659,0,0,0-7.5-2.344,7.8,7.8,0,0,0-5.1,1.626,5.266,5.266,0,0,0-1.992,4.292,5.813,5.813,0,0,0,.6,2.871,6.212,6.212,0,0,0,1.992,1.992,28.132,28.132,0,0,0,4.087,2.139,32.083,32.083,0,0,1,5.435,2.886,8.318,8.318,0,0,1,2.666,2.813,7.857,7.857,0,0,1,.776,3.677,7.962,7.962,0,0,1-3,6.475,12.159,12.159,0,0,1-7.954,2.461,13.306,13.306,0,0,1-7.852-2.227Z" transform="translate(0 -3)"/>
    <path class="cls-1" d="M367.324,441.82H364.8l4.688-15.059H372.8Z" transform="translate(0 -3)"/>
    <path class="cls-1" d="M419.941,433.939v-6.416h-.117a12.942,12.942,0,0,1-4.57,5.288,11.521,11.521,0,0,1-6.445,1.919,10.276,10.276,0,0,1-7.295-2.563,8.584,8.584,0,0,1-2.754-6.577q0-8.613,11.221-10.283l9.961-1.494q0-10.312-7.793-10.312-5.361,0-10.43,4.277v-3.6a15.9,15.9,0,0,1,4.966-2.5,19,19,0,0,1,5.757-.923q5.1,0,7.822,3.091t2.725,9.038v21.064Zm-17.988-8.525a6.154,6.154,0,0,0,1.963,4.761,7.452,7.452,0,0,0,5.244,1.8,10.062,10.062,0,0,0,5.493-1.567,10.711,10.711,0,0,0,3.882-4.395,13.914,13.914,0,0,0,1.406-6.284v-3.164l-8.848,1.26q-5.01.7-7.075,2.461A6.358,6.358,0,0,0,401.953,425.414Z" transform="translate(0 -3)"/>
    <path class="cls-1" d="M454.717,433.939V415.1q0-11.6-8.379-11.6a9.761,9.761,0,0,0-7.6,3.354,12.237,12.237,0,0,0-3,8.481v18.6h-3.047v-32.4h3.047V407.4h.117a11.747,11.747,0,0,1,11.045-6.65q5.244,0,8.027,3.5t2.783,9.976v19.717Z" transform="translate(0 -3)"/>
    <path class="cls-1" d="M490.43,433.939V428.08h-.117a11.46,11.46,0,0,1-4.8,4.922,14.072,14.072,0,0,1-6.855,1.729,12.159,12.159,0,0,1-9.814-4.453q-3.721-4.453-3.721-11.982a21.381,21.381,0,0,1,1.875-9.126,14.433,14.433,0,0,1,5.288-6.226,13.9,13.9,0,0,1,7.69-2.2q7.266,0,10.342,5.947h.117V385.98h3.047v47.959Zm0-19.687a10.644,10.644,0,0,0-2.93-7.734,10.071,10.071,0,0,0-7.559-3.018,10.342,10.342,0,0,0-8.423,3.984q-3.237,3.984-3.237,10.576,0,6.416,2.871,10.166a9.264,9.264,0,0,0,7.764,3.75,11.026,11.026,0,0,0,8.408-3.281,11.858,11.858,0,0,0,3.105-8.5Z" transform="translate(0 -3)"/>
    <path class="cls-1" d="M559.717,433.939h-2.783l-10.02-34.072a20.7,20.7,0,0,1-.85-4.307h-.117a21.665,21.665,0,0,1-1,4.248l-10.693,34.131h-2.783l-13.447-45.381h3.6l10.313,36.3q.674,2.4,1,4.014h.117q.059-.381.19-.923t12.056-39.39h1.758l10.254,36.3q.732,2.813.967,4.014h.117a19.726,19.726,0,0,1,.527-2.168L569.5,388.559h3.486Z" transform="translate(0 -3)"/>
    <path class="cls-1" d="M591.24,434.73a15.409,15.409,0,0,1-8.086-2.109,13.98,13.98,0,0,1-5.405-5.918,19.46,19.46,0,0,1-1.89-8.76,20.485,20.485,0,0,1,1.919-9.126,13.718,13.718,0,0,1,5.508-5.991,16.32,16.32,0,0,1,8.335-2.08q6.943,0,10.957,4.556t4.014,12.5a20,20,0,0,1-1.89,8.862,13.857,13.857,0,0,1-5.376,5.977A15.4,15.4,0,0,1,591.24,434.73Zm.234-31.23a11.3,11.3,0,0,0-9.126,3.94q-3.325,3.94-3.325,10.562,0,6.357,3.311,10.166a11.3,11.3,0,0,0,8.994,3.809q5.8,0,8.965-3.75t3.164-10.488q0-6.914-3.105-10.576T591.475,403.5Z" transform="translate(0 -3)"/>
    <path class="cls-1" d="M630.029,404.7a5.76,5.76,0,0,0-3.457-1.055q-4.014,0-6.475,4.1t-2.461,10.9v15.293h-2.988v-32.4h2.988v7.148h.117a11.792,11.792,0,0,1,3.486-5.713,8.247,8.247,0,0,1,5.566-2.08,8.461,8.461,0,0,1,3.223.586Z" transform="translate(0 -3)"/>
    <path class="cls-1" d="M658.213,433.939V428.08H658.1a11.457,11.457,0,0,1-4.8,4.922,14.072,14.072,0,0,1-6.855,1.729,12.159,12.159,0,0,1-9.814-4.453q-3.721-4.453-3.721-11.982a21.381,21.381,0,0,1,1.875-9.126,14.433,14.433,0,0,1,5.288-6.226,13.9,13.9,0,0,1,7.69-2.2q7.266,0,10.342,5.947h.117V385.98h3.047v47.959Zm0-19.687a10.642,10.642,0,0,0-2.93-7.734,10.071,10.071,0,0,0-7.559-3.018,10.342,10.342,0,0,0-8.423,3.984q-3.237,3.984-3.237,10.576,0,6.416,2.871,10.166a9.264,9.264,0,0,0,7.764,3.75,11.025,11.025,0,0,0,8.408-3.281,11.856,11.856,0,0,0,3.105-8.5Z" transform="translate(0 -3)"/>
    <path class="cls-1" d="M690.059,433.939V388.559h11.426q11.309,0,17.212,5.625t5.9,16.436a25.384,25.384,0,0,1-2.886,12.275,19.686,19.686,0,0,1-8.276,8.188,26.59,26.59,0,0,1-12.627,2.856Zm3.252-42.393V431.01h7.09q10.049,0,15.439-5.259t5.391-15.015q0-19.189-20.215-19.189Z" transform="translate(0 -3)"/>
    <path class="cls-1" d="M746.221,434.73a15.409,15.409,0,0,1-8.086-2.109,13.98,13.98,0,0,1-5.405-5.918,19.46,19.46,0,0,1-1.89-8.76,20.485,20.485,0,0,1,1.919-9.126,13.721,13.721,0,0,1,5.508-5.991,16.322,16.322,0,0,1,8.335-2.08q6.943,0,10.957,4.556t4.014,12.5a20,20,0,0,1-1.89,8.862,13.857,13.857,0,0,1-5.376,5.977A15.394,15.394,0,0,1,746.221,434.73Zm.234-31.23a11.305,11.305,0,0,0-9.126,3.94Q734,411.381,734,418q0,6.357,3.311,10.166a11.3,11.3,0,0,0,8.994,3.809q5.8,0,8.965-3.75t3.164-10.488q0-6.914-3.105-10.576T746.455,403.5Z" transform="translate(0 -3)"/>
    <path class="cls-1" d="M790.664,432.5a15.912,15.912,0,0,1-8.584,2.227,14.653,14.653,0,0,1-7.749-2.051,13.564,13.564,0,0,1-5.215-5.8,19.322,19.322,0,0,1-1.831-8.584,19.559,19.559,0,0,1,2.08-9.082,15.167,15.167,0,0,1,5.8-6.255,16.138,16.138,0,0,1,8.408-2.212,17.62,17.62,0,0,1,7.236,1.523v3.369a14.443,14.443,0,0,0-7.646-2.139,11.981,11.981,0,0,0-11.118,7.046,17.406,17.406,0,0,0-1.6,7.573q0,6.27,3.223,10.063a10.665,10.665,0,0,0,8.555,3.794,13.929,13.929,0,0,0,8.438-2.607Z" transform="translate(0 -3)"/>
    <path class="cls-1" d="M819.814,433.939V428.08H819.7q-3.34,6.65-10.43,6.65-11.484,0-11.484-14.414V401.537h3.076v18.047q0,6.475,2.153,9.434t6.782,2.959a9.024,9.024,0,0,0,7.236-3.3,12.965,12.965,0,0,0,2.783-8.657V401.537h3.047v32.4Z" transform="translate(0 -3)"/>
    <path class="cls-1" d="M873.867,433.939V414.486q0-5.889-1.846-8.437t-6.064-2.549a8,8,0,0,0-4.658,1.509,10.388,10.388,0,0,0-3.428,4.131,12.985,12.985,0,0,0-1.26,5.7v19.1h-3.018V414.252q0-10.752-8.174-10.752a8,8,0,0,0-6.533,3.311,13.27,13.27,0,0,0-2.607,8.467v18.662h-3.047v-32.4h3.047v5.391h.117q3.369-6.182,9.9-6.182a9.421,9.421,0,0,1,6.006,2.007,9.911,9.911,0,0,1,3.457,5.376,12.665,12.665,0,0,1,4.277-5.405,10.519,10.519,0,0,1,6.24-1.978q10.635,0,10.635,13.154v20.039Z" transform="translate(0 -3)"/>
    <path class="cls-1" d="M887.432,417.943q0,6.592,3.047,10.313a10.307,10.307,0,0,0,8.438,3.721,17.219,17.219,0,0,0,10.635-3.984v3.193a19.1,19.1,0,0,1-11.25,3.545,12.511,12.511,0,0,1-10.269-4.644q-3.765-4.644-3.765-12.5a19.558,19.558,0,0,1,1.86-8.511,14.8,14.8,0,0,1,5.186-6.123,13.262,13.262,0,0,1,7.515-2.212,11.131,11.131,0,0,1,9.229,4.16q3.311,4.16,3.311,11.66v1.377Zm20.8-2.754q-.176-5.537-2.681-8.613a8.349,8.349,0,0,0-6.841-3.076,9.949,9.949,0,0,0-7.515,3.076,14.631,14.631,0,0,0-3.618,8.613Z" transform="translate(0 -3)"/>
    <path class="cls-1" d="M941.426,433.939V415.1q0-11.6-8.379-11.6a9.761,9.761,0,0,0-7.6,3.354,12.24,12.24,0,0,0-3,8.481v18.6h-3.047v-32.4h3.047V407.4h.117a11.747,11.747,0,0,1,11.045-6.65q5.244,0,8.027,3.5t2.783,9.976v19.717Z" transform="translate(0 -3)"/>
    <path class="cls-1" d="M967.119,433.5a9.949,9.949,0,0,1-4.307,1.084q-7.236,0-7.236-8.643v-21.65h-5.83v-2.754h5.83v-8.379l2.988-1.025v9.4h8.555v2.754h-8.555v21.24a8.564,8.564,0,0,0,1.055,4.834,4.139,4.139,0,0,0,3.633,1.494,7.961,7.961,0,0,0,3.867-1.172Z" transform="translate(0 -3)"/>
    <path class="cls-1" d="M971.865,428.9a12.629,12.629,0,0,0,3.97,2.227,12.417,12.417,0,0,0,4.116.85q7.559,0,7.559-6.123a4.773,4.773,0,0,0-1.509-3.53,19.735,19.735,0,0,0-5.61-3.267,18.82,18.82,0,0,1-6.475-4.087,7.679,7.679,0,0,1-1.963-5.376A7.84,7.84,0,0,1,975,403.222a11.6,11.6,0,0,1,7.559-2.476,14.441,14.441,0,0,1,7.148,1.7v3.4a13.659,13.659,0,0,0-7.5-2.344,7.8,7.8,0,0,0-5.1,1.626,5.267,5.267,0,0,0-1.992,4.292,5.813,5.813,0,0,0,.6,2.871,6.217,6.217,0,0,0,1.992,1.992,28.185,28.185,0,0,0,4.087,2.139,32.064,32.064,0,0,1,5.435,2.886,8.318,8.318,0,0,1,2.666,2.813,7.851,7.851,0,0,1,.776,3.677,7.962,7.962,0,0,1-3,6.475,12.157,12.157,0,0,1-7.954,2.461,13.306,13.306,0,0,1-7.852-2.227Z" transform="translate(0 -3)"/>
    <path class="cls-1" d="M997.646,441.82h-2.52l4.688-15.059h3.311Z" transform="translate(0 -3)"/>
    <path class="cls-1" d="M1050.264,433.939v-6.416h-.117a12.935,12.935,0,0,1-4.57,5.288,11.521,11.521,0,0,1-6.445,1.919,10.278,10.278,0,0,1-7.295-2.563,8.584,8.584,0,0,1-2.754-6.577q0-8.613,11.221-10.283l9.961-1.494q0-10.312-7.793-10.312-5.361,0-10.43,4.277v-3.6a15.912,15.912,0,0,1,4.966-2.5,19,19,0,0,1,5.757-.923q5.1,0,7.822,3.091t2.725,9.038v21.064Zm-17.988-8.525a6.154,6.154,0,0,0,1.963,4.761,7.452,7.452,0,0,0,5.244,1.8,10.059,10.059,0,0,0,5.493-1.567,10.711,10.711,0,0,0,3.882-4.395,13.914,13.914,0,0,0,1.406-6.284v-3.164l-8.848,1.26q-5.01.7-7.075,2.461A6.358,6.358,0,0,0,1032.275,425.414Z" transform="translate(0 -3)"/>
    <path class="cls-1" d="M1085.039,433.939V415.1q0-11.6-8.379-11.6a9.761,9.761,0,0,0-7.6,3.354,12.24,12.24,0,0,0-3,8.481v18.6h-3.047v-32.4h3.047V407.4h.117a11.747,11.747,0,0,1,11.045-6.65q5.244,0,8.027,3.5t2.783,9.976v19.717Z" transform="translate(0 -3)"/>
    <path class="cls-1" d="M1120.752,433.939V428.08h-.117a11.457,11.457,0,0,1-4.8,4.922,14.072,14.072,0,0,1-6.855,1.729,12.16,12.16,0,0,1-9.814-4.453q-3.721-4.453-3.721-11.982a21.381,21.381,0,0,1,1.875-9.126,14.437,14.437,0,0,1,5.288-6.226,13.9,13.9,0,0,1,7.69-2.2q7.266,0,10.342,5.947h.117V385.98h3.047v47.959Zm0-19.687a10.642,10.642,0,0,0-2.93-7.734,10.071,10.071,0,0,0-7.559-3.018,10.343,10.343,0,0,0-8.423,3.984q-3.237,3.984-3.237,10.576,0,6.416,2.871,10.166a9.264,9.264,0,0,0,7.764,3.75,11.025,11.025,0,0,0,8.408-3.281,11.856,11.856,0,0,0,3.105-8.5Z" transform="translate(0 -3)"/>
    <path class="cls-1" d="M1179.609,433.939h-2.842l-7.061-24.375a25.422,25.422,0,0,1-.5-2.7h-.176a10.9,10.9,0,0,1-.615,2.637l-7.881,24.434H1157.7l-9.785-32.4h3.34l7.5,25.781a14.946,14.946,0,0,1,.439,2.725h.264a14.449,14.449,0,0,1,.615-2.725l8.145-25.781h2.168l7.295,25.781a16.8,16.8,0,0,1,.439,2.725h.264a10.846,10.846,0,0,1,.527-2.725l7.646-25.781h3.076Z" transform="translate(0 -3)"/>
    <path class="cls-1" d="M1196.455,417.943q0,6.592,3.047,10.313a10.307,10.307,0,0,0,8.438,3.721,17.219,17.219,0,0,0,10.635-3.984v3.193a19.1,19.1,0,0,1-11.25,3.545,12.511,12.511,0,0,1-10.269-4.644q-3.765-4.644-3.765-12.5a19.558,19.558,0,0,1,1.86-8.511,14.8,14.8,0,0,1,5.186-6.123,13.262,13.262,0,0,1,7.515-2.212,11.131,11.131,0,0,1,9.229,4.16q3.311,4.16,3.311,11.66v1.377Zm20.8-2.754q-.176-5.537-2.681-8.613a8.349,8.349,0,0,0-6.841-3.076,9.949,9.949,0,0,0-7.515,3.076,14.631,14.631,0,0,0-3.618,8.613Z" transform="translate(0 -3)"/>
    <path class="cls-1" d="M6.006,489.943q0,6.592,3.047,10.313a10.307,10.307,0,0,0,8.438,3.721,17.221,17.221,0,0,0,10.635-3.984v3.193a19.1,19.1,0,0,1-11.25,3.545,12.51,12.51,0,0,1-10.269-4.644q-3.765-4.644-3.765-12.5a19.551,19.551,0,0,1,1.86-8.511,14.8,14.8,0,0,1,5.186-6.123,13.259,13.259,0,0,1,7.515-2.212,11.132,11.132,0,0,1,9.229,4.16q3.311,4.16,3.311,11.66v1.377Zm20.8-2.754q-.176-5.537-2.681-8.613a8.349,8.349,0,0,0-6.841-3.076,9.949,9.949,0,0,0-7.515,3.076,14.631,14.631,0,0,0-3.618,8.613Z" transform="translate(0 -3)"/>
    <path class="cls-1" d="M48.164,490.061,58.74,505.939H54.9l-8.5-13.623H46.26L37.5,505.939H33.838l10.811-15.82L34.014,473.537h3.545l7.178,11.572,1.641,2.783h.176l.762-1.289,8.32-13.066H59.15Z" transform="translate(0 -3)"/>
    <path class="cls-1" d="M68.408,500.256v20.6H65.361V473.537h3.047v6.621h.117a12.978,12.978,0,0,1,4.893-5.464,13.409,13.409,0,0,1,7.178-1.948,11.78,11.78,0,0,1,9.624,4.263q3.5,4.263,3.5,11.558a23.566,23.566,0,0,1-1.816,9.463,14.574,14.574,0,0,1-5.127,6.445,13.107,13.107,0,0,1-7.559,2.256,11.36,11.36,0,0,1-10.693-6.475Zm0-8.027a12.774,12.774,0,0,0,1.406,5.947,10.485,10.485,0,0,0,3.955,4.263,10.786,10.786,0,0,0,5.684,1.538,9.3,9.3,0,0,0,5.771-1.934,12.319,12.319,0,0,0,3.94-5.479,21.58,21.58,0,0,0,1.392-7.939q0-6.006-2.827-9.565a9.145,9.145,0,0,0-7.544-3.56A11.632,11.632,0,0,0,74,477.126a10.949,10.949,0,0,0-4.131,4.541,14.176,14.176,0,0,0-1.465,6.46Z" transform="translate(0 -3)"/>
    <path class="cls-1" d="M114.785,506.73a15.409,15.409,0,0,1-8.086-2.109,13.98,13.98,0,0,1-5.405-5.918,19.46,19.46,0,0,1-1.89-8.76,20.485,20.485,0,0,1,1.919-9.126,13.718,13.718,0,0,1,5.508-5.991,16.32,16.32,0,0,1,8.335-2.08q6.943,0,10.957,4.556t4.014,12.5a20,20,0,0,1-1.89,8.862,13.857,13.857,0,0,1-5.376,5.977A15.4,15.4,0,0,1,114.785,506.73Zm.234-31.23a11.3,11.3,0,0,0-9.126,3.94q-3.325,3.94-3.325,10.562,0,6.357,3.311,10.166a11.3,11.3,0,0,0,8.994,3.809q5.8,0,8.965-3.75T127,489.738q0-6.914-3.105-10.576T115.02,475.5Z" transform="translate(0 -3)"/>
    <path class="cls-1" d="M153.574,476.7a5.76,5.76,0,0,0-3.457-1.055q-4.014,0-6.475,4.1t-2.461,10.9v15.293h-2.988v-32.4h2.988v7.148h.117a11.792,11.792,0,0,1,3.486-5.713,8.247,8.247,0,0,1,5.566-2.08,8.461,8.461,0,0,1,3.223.586Z" transform="translate(0 -3)"/>
    <path class="cls-1" d="M174.463,505.5a9.952,9.952,0,0,1-4.307,1.084q-7.236,0-7.236-8.643v-21.65h-5.83v-2.754h5.83v-8.379l2.988-1.025v9.4h8.555v2.754h-8.555v21.24a8.564,8.564,0,0,0,1.055,4.834,4.139,4.139,0,0,0,3.633,1.494,7.964,7.964,0,0,0,3.867-1.172Z" transform="translate(0 -3)"/>
    <path class="cls-1" d="M200.156,465.363a2.429,2.429,0,0,1-1.714-.7,2.382,2.382,0,0,1-.747-1.816,2.223,2.223,0,0,1,.732-1.685,2.439,2.439,0,0,1,1.729-.688,2.587,2.587,0,0,1,1.743.645,2.167,2.167,0,0,1,.747,1.729,2.433,2.433,0,0,1-.732,1.787A2.4,2.4,0,0,1,200.156,465.363Zm-1.494,40.576v-32.4h3.047v32.4Z" transform="translate(0 -3)"/>
    <path class="cls-1" d="M234.111,505.939V487.1q0-11.6-8.379-11.6a9.761,9.761,0,0,0-7.6,3.354,12.237,12.237,0,0,0-3,8.481v18.6H212.08v-32.4h3.047V479.4h.117a11.747,11.747,0,0,1,11.045-6.65q5.244,0,8.027,3.5t2.783,9.976v19.717Z" transform="translate(0 -3)"/>
    <path class="cls-1" d="M263.145,521.145a6.756,6.756,0,0,1-2.549-.439v-2.988a8.034,8.034,0,0,0,2.666.439q3.867,0,6.123-5.332l2.988-7.148L260.1,473.537h3.369l9.727,26.338.732,2.373h.117l.762-2.227,10.371-26.484h3.252l-15.7,38.965a17.79,17.79,0,0,1-4.072,6.636A7.925,7.925,0,0,1,263.145,521.145Z" transform="translate(0 -3)"/>
    <path class="cls-1" d="M306.8,506.73a15.409,15.409,0,0,1-8.086-2.109,13.98,13.98,0,0,1-5.405-5.918,19.46,19.46,0,0,1-1.89-8.76,20.485,20.485,0,0,1,1.919-9.126,13.718,13.718,0,0,1,5.508-5.991,16.32,16.32,0,0,1,8.335-2.08q6.943,0,10.957,4.556t4.014,12.5a20,20,0,0,1-1.89,8.862,13.857,13.857,0,0,1-5.376,5.977A15.4,15.4,0,0,1,306.8,506.73Zm.234-31.23a11.3,11.3,0,0,0-9.126,3.94q-3.325,3.94-3.325,10.562,0,6.357,3.311,10.166a11.3,11.3,0,0,0,8.994,3.809q5.8,0,8.965-3.75t3.164-10.488q0-6.914-3.105-10.576T307.031,475.5Z" transform="translate(0 -3)"/>
    <path class="cls-1" d="M351.563,505.939V500.08h-.117q-3.34,6.65-10.43,6.65-11.485,0-11.484-14.414V473.537h3.076v18.047q0,6.475,2.153,9.434t6.782,2.959a9.025,9.025,0,0,0,7.236-3.3,12.965,12.965,0,0,0,2.783-8.657V473.537h3.047v32.4Z" transform="translate(0 -3)"/>
    <path class="cls-1" d="M380.361,476.7a5.76,5.76,0,0,0-3.457-1.055q-4.014,0-6.475,4.1t-2.461,10.9v15.293H364.98v-32.4h2.988v7.148h.117a11.792,11.792,0,0,1,3.486-5.713,8.247,8.247,0,0,1,5.566-2.08,8.461,8.461,0,0,1,3.223.586Z" transform="translate(0 -3)"/>
    <path class="cls-1" d="M425.244,504.5a15.913,15.913,0,0,1-8.584,2.227,14.651,14.651,0,0,1-7.749-2.051,13.561,13.561,0,0,1-5.215-5.8,19.322,19.322,0,0,1-1.831-8.584,19.553,19.553,0,0,1,2.08-9.082,15.167,15.167,0,0,1,5.8-6.255,16.136,16.136,0,0,1,8.408-2.212,17.622,17.622,0,0,1,7.236,1.523v3.369a14.443,14.443,0,0,0-7.646-2.139,11.981,11.981,0,0,0-11.118,7.046,17.4,17.4,0,0,0-1.6,7.573q0,6.27,3.223,10.063a10.664,10.664,0,0,0,8.555,3.794,13.931,13.931,0,0,0,8.438-2.607Z" transform="translate(0 -3)"/>
    <path class="cls-1" d="M455.068,505.939V486.545q0-5.713-2.08-8.379t-6.5-2.666a9.647,9.647,0,0,0-5.259,1.509,10.374,10.374,0,0,0-3.765,4.292,13.942,13.942,0,0,0-1.377,6.27v18.369h-3.047V457.98h3.047v21.357h.117q3.9-6.592,11.1-6.592,5.3,0,8.027,3.369t2.725,9.727v20.1Z" transform="translate(0 -3)"/>
    <path class="cls-1" d="M480.85,506.73a15.409,15.409,0,0,1-8.086-2.109,13.98,13.98,0,0,1-5.405-5.918,19.46,19.46,0,0,1-1.89-8.76,20.485,20.485,0,0,1,1.919-9.126,13.718,13.718,0,0,1,5.508-5.991,16.32,16.32,0,0,1,8.335-2.08q6.943,0,10.957,4.556t4.014,12.5a20,20,0,0,1-1.89,8.862,13.857,13.857,0,0,1-5.376,5.977A15.4,15.4,0,0,1,480.85,506.73Zm.234-31.23a11.3,11.3,0,0,0-9.126,3.94q-3.325,3.94-3.325,10.562,0,6.357,3.311,10.166a11.3,11.3,0,0,0,8.994,3.809q5.8,0,8.965-3.75t3.164-10.488q0-6.914-3.105-10.576T481.084,475.5Z" transform="translate(0 -3)"/>
    <path class="cls-1" d="M505.752,465.363a2.429,2.429,0,0,1-1.714-.7,2.382,2.382,0,0,1-.747-1.816,2.223,2.223,0,0,1,.732-1.685,2.439,2.439,0,0,1,1.729-.688,2.587,2.587,0,0,1,1.743.645,2.167,2.167,0,0,1,.747,1.729,2.433,2.433,0,0,1-.732,1.787A2.4,2.4,0,0,1,505.752,465.363Zm-1.494,40.576v-32.4H507.3v32.4Z" transform="translate(0 -3)"/>
    <path class="cls-1" d="M538.711,504.5a15.913,15.913,0,0,1-8.584,2.227,14.651,14.651,0,0,1-7.749-2.051,13.561,13.561,0,0,1-5.215-5.8,19.322,19.322,0,0,1-1.831-8.584,19.553,19.553,0,0,1,2.08-9.082,15.167,15.167,0,0,1,5.8-6.255,16.136,16.136,0,0,1,8.408-2.212,17.622,17.622,0,0,1,7.236,1.523v3.369a14.443,14.443,0,0,0-7.646-2.139,11.981,11.981,0,0,0-11.118,7.046,17.4,17.4,0,0,0-1.6,7.573q0,6.27,3.223,10.063a10.664,10.664,0,0,0,8.555,3.794,13.931,13.931,0,0,0,8.438-2.607Z" transform="translate(0 -3)"/>
    <path class="cls-1" d="M547.324,489.943q0,6.592,3.047,10.313a10.307,10.307,0,0,0,8.438,3.721,17.221,17.221,0,0,0,10.635-3.984v3.193a19.1,19.1,0,0,1-11.25,3.545,12.51,12.51,0,0,1-10.269-4.644q-3.765-4.644-3.765-12.5a19.551,19.551,0,0,1,1.86-8.511,14.8,14.8,0,0,1,5.186-6.123,13.259,13.259,0,0,1,7.515-2.212,11.132,11.132,0,0,1,9.229,4.16q3.311,4.16,3.311,11.66v1.377Zm20.8-2.754q-.176-5.537-2.681-8.613A8.349,8.349,0,0,0,558.6,475.5a9.949,9.949,0,0,0-7.515,3.076,14.631,14.631,0,0,0-3.618,8.613Z" transform="translate(0 -3)"/>
    <path class="cls-1" d="M610.107,506.73a15.409,15.409,0,0,1-8.086-2.109,13.98,13.98,0,0,1-5.405-5.918,19.46,19.46,0,0,1-1.89-8.76,20.485,20.485,0,0,1,1.919-9.126,13.718,13.718,0,0,1,5.508-5.991,16.32,16.32,0,0,1,8.335-2.08q6.943,0,10.957,4.556t4.014,12.5a20,20,0,0,1-1.89,8.862,13.857,13.857,0,0,1-5.376,5.977A15.4,15.4,0,0,1,610.107,506.73Zm.234-31.23a11.3,11.3,0,0,0-9.126,3.94q-3.325,3.94-3.325,10.562,0,6.357,3.311,10.166a11.3,11.3,0,0,0,8.994,3.809q5.8,0,8.965-3.75t3.164-10.488q0-6.914-3.105-10.576T610.342,475.5Z" transform="translate(0 -3)"/>
    <path class="cls-1" d="M646.611,461.115a5.743,5.743,0,0,0-3.545-.908q-5.948,0-5.947,8v5.332h8.525v2.754h-8.525v29.648H634.1V476.291h-5.8v-2.754h5.8v-5.713a11.2,11.2,0,0,1,2.417-7.559,8.289,8.289,0,0,1,6.636-2.812,8.493,8.493,0,0,1,3.457.615Z" transform="translate(0 -3)"/>
    <path class="cls-1" d="M706.23,505.939h-2.783l-10.02-34.072a20.73,20.73,0,0,1-.85-4.307h-.117a21.665,21.665,0,0,1-1,4.248l-10.693,34.131h-2.783l-13.447-45.381h3.6l10.313,36.3q.674,2.4,1,4.014h.117q.059-.381.19-.923t12.056-39.39h1.758l10.254,36.3q.732,2.813.967,4.014h.117a19.726,19.726,0,0,1,.527-2.168l10.576-38.145H719.5Z" transform="translate(0 -3)"/>
    <path class="cls-1" d="M737.754,506.73a15.409,15.409,0,0,1-8.086-2.109,13.98,13.98,0,0,1-5.405-5.918,19.46,19.46,0,0,1-1.89-8.76,20.485,20.485,0,0,1,1.919-9.126,13.721,13.721,0,0,1,5.508-5.991,16.322,16.322,0,0,1,8.335-2.08q6.943,0,10.957,4.556t4.014,12.5a20,20,0,0,1-1.89,8.862,13.857,13.857,0,0,1-5.376,5.977A15.394,15.394,0,0,1,737.754,506.73Zm.234-31.23a11.305,11.305,0,0,0-9.126,3.94q-3.325,3.94-3.325,10.562,0,6.357,3.311,10.166a11.3,11.3,0,0,0,8.994,3.809q5.8,0,8.965-3.75t3.164-10.488q0-6.914-3.105-10.576T737.988,475.5Z" transform="translate(0 -3)"/>
    <path class="cls-1" d="M776.543,476.7a5.759,5.759,0,0,0-3.457-1.055q-4.014,0-6.475,4.1t-2.461,10.9v15.293h-2.988v-32.4h2.988v7.148h.117a11.8,11.8,0,0,1,3.486-5.713,8.247,8.247,0,0,1,5.566-2.08,8.459,8.459,0,0,1,3.223.586Z" transform="translate(0 -3)"/>
    <path class="cls-1" d="M804.727,505.939V500.08h-.117A11.457,11.457,0,0,1,799.8,505a14.072,14.072,0,0,1-6.855,1.729,12.16,12.16,0,0,1-9.814-4.453q-3.721-4.453-3.721-11.982a21.381,21.381,0,0,1,1.875-9.126,14.437,14.437,0,0,1,5.288-6.226,13.9,13.9,0,0,1,7.69-2.2q7.266,0,10.342,5.947h.117V457.98h3.047v47.959Zm0-19.687a10.642,10.642,0,0,0-2.93-7.734,10.071,10.071,0,0,0-7.559-3.018,10.343,10.343,0,0,0-8.423,3.984q-3.237,3.984-3.237,10.576,0,6.416,2.871,10.166a9.264,9.264,0,0,0,7.764,3.75,11.025,11.025,0,0,0,8.408-3.281,11.856,11.856,0,0,0,3.105-8.5Z" transform="translate(0 -3)"/>
    <path class="cls-1" d="M848.965,506.73a15.409,15.409,0,0,1-8.086-2.109,13.98,13.98,0,0,1-5.405-5.918,19.46,19.46,0,0,1-1.89-8.76,20.485,20.485,0,0,1,1.919-9.126,13.721,13.721,0,0,1,5.508-5.991,16.322,16.322,0,0,1,8.335-2.08q6.943,0,10.957,4.556t4.014,12.5a20,20,0,0,1-1.89,8.862,13.857,13.857,0,0,1-5.376,5.977A15.394,15.394,0,0,1,848.965,506.73Zm.234-31.23a11.305,11.305,0,0,0-9.126,3.94q-3.325,3.94-3.325,10.562,0,6.357,3.311,10.166a11.3,11.3,0,0,0,8.994,3.809q5.8,0,8.965-3.75t3.164-10.488q0-6.914-3.105-10.576T849.2,475.5Z" transform="translate(0 -3)"/>
    <path class="cls-1" d="M887.754,476.7a5.759,5.759,0,0,0-3.457-1.055q-4.014,0-6.475,4.1t-2.461,10.9v15.293h-2.988v-32.4h2.988v7.148h.117a11.8,11.8,0,0,1,3.486-5.713,8.247,8.247,0,0,1,5.566-2.08,8.459,8.459,0,0,1,3.223.586Z" transform="translate(0 -3)"/>
    <path class="cls-1" d="M915.5,487.8v18.135h-3.252V460.559h11.045q7.031,0,10.723,3.237t3.691,9.536a14.832,14.832,0,0,1-1.919,7.6,12.809,12.809,0,0,1-5.508,5.083,18.4,18.4,0,0,1-8.306,1.787Zm0-24.258v21.3h6.387q6.094,0,9.287-2.915t3.193-8.247q0-10.137-11.689-10.137Z" transform="translate(0 -3)"/>
    <path class="cls-1" d="M947.549,505.939V460.559h11.426q11.309,0,17.212,5.625t5.9,16.436a25.384,25.384,0,0,1-2.886,12.275,19.686,19.686,0,0,1-8.276,8.188,26.59,26.59,0,0,1-12.627,2.856Zm3.252-42.393V503.01h7.09q10.049,0,15.439-5.259t5.391-15.015q0-19.189-20.215-19.189Z" transform="translate(0 -3)"/>
    <path class="cls-1" d="M994.57,463.547v18.369H1011.3v2.959H994.57v21.064h-3.252V460.559h21.3v2.988Z" transform="translate(0 -3)"/>
    <path class="cls-1" d="M1052.9,461.115a5.743,5.743,0,0,0-3.545-.908q-5.947,0-5.947,8v5.332h8.525v2.754h-8.525v29.648h-3.018V476.291h-5.8v-2.754h5.8v-5.713a11.2,11.2,0,0,1,2.417-7.559,8.289,8.289,0,0,1,6.636-2.812,8.491,8.491,0,0,1,3.457.615Z" transform="translate(0 -3)"/>
    <path class="cls-1" d="M1069.688,506.73a15.409,15.409,0,0,1-8.086-2.109,13.98,13.98,0,0,1-5.405-5.918,19.46,19.46,0,0,1-1.89-8.76,20.485,20.485,0,0,1,1.919-9.126,13.721,13.721,0,0,1,5.508-5.991,16.322,16.322,0,0,1,8.335-2.08q6.943,0,10.957,4.556t4.014,12.5a20,20,0,0,1-1.89,8.862,13.857,13.857,0,0,1-5.376,5.977A15.394,15.394,0,0,1,1069.688,506.73Zm.234-31.23a11.305,11.305,0,0,0-9.126,3.94q-3.325,3.94-3.325,10.562,0,6.357,3.311,10.166a11.3,11.3,0,0,0,8.994,3.809q5.8,0,8.965-3.75t3.164-10.488q0-6.914-3.105-10.576T1069.922,475.5Z" transform="translate(0 -3)"/>
    <path class="cls-1" d="M1108.477,476.7a5.759,5.759,0,0,0-3.457-1.055q-4.014,0-6.475,4.1t-2.461,10.9v15.293H1093.1v-32.4h2.988v7.148h.117a11.8,11.8,0,0,1,3.486-5.713,8.247,8.247,0,0,1,5.566-2.08,8.459,8.459,0,0,1,3.223.586Z" transform="translate(0 -3)"/>
    <path class="cls-1" d="M1155.059,505.939V486.486q0-5.889-1.846-8.437t-6.064-2.549a8,8,0,0,0-4.658,1.509,10.388,10.388,0,0,0-3.428,4.131,12.985,12.985,0,0,0-1.26,5.7v19.1h-3.018V486.252q0-10.752-8.174-10.752a8,8,0,0,0-6.533,3.311,13.27,13.27,0,0,0-2.607,8.467v18.662h-3.047v-32.4h3.047v5.391h.117q3.369-6.182,9.9-6.182a9.421,9.421,0,0,1,6.006,2.007,9.911,9.911,0,0,1,3.457,5.376,12.665,12.665,0,0,1,4.277-5.405,10.519,10.519,0,0,1,6.24-1.978q10.635,0,10.635,13.154v20.039Z" transform="translate(0 -3)"/>
    <path class="cls-1" d="M1187.109,505.939v-6.416h-.117a12.935,12.935,0,0,1-4.57,5.288,11.521,11.521,0,0,1-6.445,1.919,10.278,10.278,0,0,1-7.295-2.563,8.584,8.584,0,0,1-2.754-6.577q0-8.613,11.221-10.283l9.961-1.494q0-10.312-7.793-10.312-5.361,0-10.43,4.277v-3.6a15.912,15.912,0,0,1,4.966-2.5,19,19,0,0,1,5.757-.923q5.1,0,7.822,3.091t2.725,9.038v21.064Zm-17.988-8.525a6.154,6.154,0,0,0,1.963,4.761,7.452,7.452,0,0,0,5.244,1.8,10.059,10.059,0,0,0,5.493-1.567,10.711,10.711,0,0,0,3.882-4.395,13.914,13.914,0,0,0,1.406-6.284v-3.164l-8.848,1.26q-5.01.7-7.075,2.461A6.358,6.358,0,0,0,1169.121,497.414Z" transform="translate(0 -3)"/>
    <path class="cls-1" d="M1212.8,505.5a9.949,9.949,0,0,1-4.307,1.084q-7.236,0-7.236-8.643v-21.65h-5.83v-2.754h5.83v-8.379l2.988-1.025v9.4h8.555v2.754h-8.555v21.24a8.564,8.564,0,0,0,1.055,4.834,4.139,4.139,0,0,0,3.633,1.494,7.961,7.961,0,0,0,3.867-1.172Z" transform="translate(0 -3)"/>
    <path class="cls-1" d="M1221.211,506.5a2.453,2.453,0,0,1-1.846-.762,2.691,2.691,0,0,1,0-3.691,2.5,2.5,0,0,1,1.846-.732,2.616,2.616,0,0,1,1.86.732,2.464,2.464,0,0,1,.776,1.875,2.4,2.4,0,0,1-.806,1.831A2.62,2.62,0,0,1,1221.211,506.5Z" transform="translate(0 -3)"/>
    <path class="cls-1" d="M1250.537,500.578a18.1,18.1,0,0,0,9.99,3.164q5.332,0,8.057-2.153a8.757,8.757,0,0,0,1.978-9.888,9.528,9.528,0,0,0-2.3-2.856,55.8,55.8,0,0,0-6.885-4.526,45.48,45.48,0,0,1-6.8-4.614,12.141,12.141,0,0,1-2.812-3.691,11.274,11.274,0,0,1,.776-10.591,11.537,11.537,0,0,1,4.907-4.146,16.68,16.68,0,0,1,7.148-1.479,24.35,24.35,0,0,1,8.174,1.377v3.457a19.906,19.906,0,0,0-8.584-1.875,11.057,11.057,0,0,0-7.295,2.285,7.363,7.363,0,0,0-2.754,5.947,8.574,8.574,0,0,0,.762,3.911,9.647,9.647,0,0,0,2.593,2.959,56.5,56.5,0,0,0,6.489,4.175,42.657,42.657,0,0,1,6.475,4.336,12.757,12.757,0,0,1,3.223,3.882,10.343,10.343,0,0,1,.967,4.644,10.7,10.7,0,0,1-3.794,8.657q-3.794,3.179-10.181,3.179a23.807,23.807,0,0,1-5.493-.762,17.971,17.971,0,0,1-4.644-1.641Z" transform="translate(0 -3)"/>
    <path class="cls-1" d="M1296.738,506.73a15.409,15.409,0,0,1-8.086-2.109,13.98,13.98,0,0,1-5.405-5.918,19.46,19.46,0,0,1-1.89-8.76,20.485,20.485,0,0,1,1.919-9.126,13.721,13.721,0,0,1,5.508-5.991,16.322,16.322,0,0,1,8.335-2.08q6.943,0,10.957,4.556t4.014,12.5a20,20,0,0,1-1.89,8.862,13.857,13.857,0,0,1-5.376,5.977A15.394,15.394,0,0,1,1296.738,506.73Zm.234-31.23a11.305,11.305,0,0,0-9.126,3.94q-3.325,3.94-3.325,10.562,0,6.357,3.311,10.166a11.3,11.3,0,0,0,8.994,3.809q5.8,0,8.965-3.75t3.164-10.488q0-6.914-3.105-10.576T1296.973,475.5Z" transform="translate(0 -3)"/>
    <path class="cls-1" d="M27.217,577.939V559.1q0-11.6-8.379-11.6a9.761,9.761,0,0,0-7.6,3.354,12.237,12.237,0,0,0-3,8.481v18.6H5.186v-32.4H8.232V551.4H8.35a11.747,11.747,0,0,1,11.045-6.65q5.244,0,8.027,3.5t2.783,9.976v19.717Z" transform="translate(0 -3)"/>
    <path class="cls-1" d="M53,578.73a15.409,15.409,0,0,1-8.086-2.109,13.98,13.98,0,0,1-5.405-5.918,19.46,19.46,0,0,1-1.89-8.76,20.485,20.485,0,0,1,1.919-9.126,13.718,13.718,0,0,1,5.508-5.991,16.32,16.32,0,0,1,8.335-2.08q6.943,0,10.957,4.556t4.014,12.5a20,20,0,0,1-1.89,8.862,13.857,13.857,0,0,1-5.376,5.977A15.4,15.4,0,0,1,53,578.73Zm.234-31.23a11.3,11.3,0,0,0-9.126,3.94q-3.325,3.94-3.325,10.562,0,6.357,3.311,10.166a11.3,11.3,0,0,0,8.994,3.809q5.8,0,8.965-3.75t3.164-10.488q0-6.914-3.105-10.576T53.232,547.5Z" transform="translate(0 -3)"/>
    <path class="cls-1" d="M134.824,577.939V558.486q0-5.889-1.846-8.437t-6.064-2.549a8,8,0,0,0-4.658,1.509,10.38,10.38,0,0,0-3.428,4.131,12.985,12.985,0,0,0-1.26,5.7v19.1h-3.018V558.252q0-10.752-8.174-10.752a8,8,0,0,0-6.533,3.311,13.267,13.267,0,0,0-2.607,8.467v18.662H94.189v-32.4h3.047v5.391h.117q3.368-6.182,9.9-6.182a9.422,9.422,0,0,1,6.006,2.007,9.911,9.911,0,0,1,3.457,5.376A12.661,12.661,0,0,1,121,546.724a10.519,10.519,0,0,1,6.24-1.978q10.635,0,10.635,13.154v20.039Z" transform="translate(0 -3)"/>
    <path class="cls-1" d="M166.875,577.939v-6.416h-.117a12.942,12.942,0,0,1-4.57,5.288,11.521,11.521,0,0,1-6.445,1.919,10.276,10.276,0,0,1-7.295-2.563,8.584,8.584,0,0,1-2.754-6.577q0-8.613,11.221-10.283l9.961-1.494q0-10.312-7.793-10.312-5.361,0-10.43,4.277v-3.6a15.9,15.9,0,0,1,4.966-2.5,19,19,0,0,1,5.757-.923q5.1,0,7.822,3.091t2.725,9.038v21.064Zm-17.988-8.525a6.154,6.154,0,0,0,1.963,4.761,7.452,7.452,0,0,0,5.244,1.8,10.062,10.062,0,0,0,5.493-1.567,10.711,10.711,0,0,0,3.882-4.395,13.914,13.914,0,0,0,1.406-6.284v-3.164l-8.848,1.26q-5.01.7-7.075,2.461A6.358,6.358,0,0,0,148.887,569.414Z" transform="translate(0 -3)"/>
    <path class="cls-1" d="M192.568,577.5a9.952,9.952,0,0,1-4.307,1.084q-7.236,0-7.236-8.643v-21.65H175.2v-2.754h5.83v-8.379l2.988-1.025v9.4h8.555v2.754h-8.555v21.24a8.564,8.564,0,0,0,1.055,4.834,4.139,4.139,0,0,0,3.633,1.494,7.964,7.964,0,0,0,3.867-1.172Z" transform="translate(0 -3)"/>
    <path class="cls-1" d="M211.934,577.5a9.952,9.952,0,0,1-4.307,1.084q-7.236,0-7.236-8.643v-21.65h-5.83v-2.754h5.83v-8.379l2.988-1.025v9.4h8.555v2.754h-8.555v21.24a8.564,8.564,0,0,0,1.055,4.834,4.139,4.139,0,0,0,3.633,1.494,7.964,7.964,0,0,0,3.867-1.172Z" transform="translate(0 -3)"/>
    <path class="cls-1" d="M218.672,561.943q0,6.592,3.047,10.313a10.307,10.307,0,0,0,8.438,3.721,17.221,17.221,0,0,0,10.635-3.984v3.193a19.1,19.1,0,0,1-11.25,3.545,12.51,12.51,0,0,1-10.269-4.644q-3.765-4.644-3.765-12.5a19.551,19.551,0,0,1,1.86-8.511,14.8,14.8,0,0,1,5.186-6.123,13.259,13.259,0,0,1,7.515-2.212,11.132,11.132,0,0,1,9.229,4.16q3.311,4.16,3.311,11.66v1.377Zm20.8-2.754q-.176-5.537-2.681-8.613a8.349,8.349,0,0,0-6.841-3.076,9.949,9.949,0,0,0-7.515,3.076,14.631,14.631,0,0,0-3.618,8.613Z" transform="translate(0 -3)"/>
    <path class="cls-1" d="M266.016,548.7a5.76,5.76,0,0,0-3.457-1.055q-4.014,0-6.475,4.1t-2.461,10.9v15.293h-2.988v-32.4h2.988v7.148h.117a11.792,11.792,0,0,1,3.486-5.713,8.247,8.247,0,0,1,5.566-2.08,8.461,8.461,0,0,1,3.223.586Z" transform="translate(0 -3)"/>
    <path class="cls-1" d="M288.369,593.145a6.756,6.756,0,0,1-2.549-.439v-2.988a8.034,8.034,0,0,0,2.666.439q3.867,0,6.123-5.332l2.988-7.148-12.275-32.139h3.369l9.727,26.338.732,2.373h.117l.762-2.227L310.4,545.537h3.252l-15.7,38.965a17.79,17.79,0,0,1-4.072,6.636A7.925,7.925,0,0,1,288.369,593.145Z" transform="translate(0 -3)"/>
    <path class="cls-1" d="M332.021,578.73a15.409,15.409,0,0,1-8.086-2.109,13.98,13.98,0,0,1-5.405-5.918,19.46,19.46,0,0,1-1.89-8.76,20.485,20.485,0,0,1,1.919-9.126,13.718,13.718,0,0,1,5.508-5.991,16.32,16.32,0,0,1,8.335-2.08q6.943,0,10.957,4.556t4.014,12.5a20,20,0,0,1-1.89,8.862,13.857,13.857,0,0,1-5.376,5.977A15.4,15.4,0,0,1,332.021,578.73Zm.234-31.23a11.3,11.3,0,0,0-9.126,3.94Q319.8,555.381,319.8,562q0,6.357,3.311,10.166a11.3,11.3,0,0,0,8.994,3.809q5.8,0,8.965-3.75t3.164-10.488q0-6.914-3.105-10.576T332.256,547.5Z" transform="translate(0 -3)"/>
    <path class="cls-1" d="M376.787,577.939V572.08h-.117q-3.34,6.65-10.43,6.65-11.485,0-11.484-14.414V545.537h3.076v18.047q0,6.475,2.153,9.434t6.782,2.959a9.025,9.025,0,0,0,7.236-3.3,12.965,12.965,0,0,0,2.783-8.657V545.537h3.047v32.4Z" transform="translate(0 -3)"/>
    <path class="cls-1" d="M405.586,548.7a5.76,5.76,0,0,0-3.457-1.055q-4.014,0-6.475,4.1t-2.461,10.9v15.293h-2.988v-32.4h2.988v7.148h.117a11.792,11.792,0,0,1,3.486-5.713,8.247,8.247,0,0,1,5.566-2.08,8.461,8.461,0,0,1,3.223.586Z" transform="translate(0 -3)"/>
    <path class="cls-1" d="M443.7,533.115a5.743,5.743,0,0,0-3.545-.908q-5.948,0-5.947,8v5.332h8.525v2.754h-8.525v29.648h-3.018V548.291h-5.8v-2.754h5.8v-5.713a11.2,11.2,0,0,1,2.417-7.559,8.289,8.289,0,0,1,6.636-2.812,8.493,8.493,0,0,1,3.457.615Z" transform="translate(0 -3)"/>
    <path class="cls-1" d="M448.945,537.363a2.429,2.429,0,0,1-1.714-.7,2.382,2.382,0,0,1-.747-1.816,2.223,2.223,0,0,1,.732-1.685,2.439,2.439,0,0,1,1.729-.688,2.587,2.587,0,0,1,1.743.645,2.167,2.167,0,0,1,.747,1.729,2.433,2.433,0,0,1-.732,1.787A2.4,2.4,0,0,1,448.945,537.363Zm-1.494,40.576v-32.4H450.5v32.4Z" transform="translate(0 -3)"/>
    <path class="cls-1" d="M460.869,577.939V529.98h3.047v47.959Z" transform="translate(0 -3)"/>
    <path class="cls-1" d="M475.107,561.943q0,6.592,3.047,10.313a10.307,10.307,0,0,0,8.438,3.721,17.221,17.221,0,0,0,10.635-3.984v3.193a19.1,19.1,0,0,1-11.25,3.545,12.51,12.51,0,0,1-10.269-4.644q-3.765-4.644-3.765-12.5a19.551,19.551,0,0,1,1.86-8.511,14.8,14.8,0,0,1,5.186-6.123,13.259,13.259,0,0,1,7.515-2.212,11.132,11.132,0,0,1,9.229,4.16q3.311,4.16,3.311,11.66v1.377Zm20.8-2.754q-.176-5.537-2.681-8.613a8.349,8.349,0,0,0-6.841-3.076,9.949,9.949,0,0,0-7.515,3.076,14.631,14.631,0,0,0-3.618,8.613Z" transform="translate(0 -3)"/>
    <path class="cls-1" d="M537.8,577.5a9.952,9.952,0,0,1-4.307,1.084q-7.236,0-7.236-8.643v-21.65h-5.83v-2.754h5.83v-8.379l2.988-1.025v9.4H537.8v2.754h-8.555v21.24a8.564,8.564,0,0,0,1.055,4.834,4.139,4.139,0,0,0,3.633,1.494,7.964,7.964,0,0,0,3.867-1.172Z" transform="translate(0 -3)"/>
    <path class="cls-1" d="M542.725,593.145a6.756,6.756,0,0,1-2.549-.439v-2.988a8.034,8.034,0,0,0,2.666.439q3.867,0,6.123-5.332l2.988-7.148-12.275-32.139h3.369l9.727,26.338.732,2.373h.117l.762-2.227,10.371-26.484h3.252L552.3,584.5a17.79,17.79,0,0,1-4.072,6.636A7.925,7.925,0,0,1,542.725,593.145Z" transform="translate(0 -3)"/>
    <path class="cls-1" d="M576.709,572.256v20.6h-3.047V545.537h3.047v6.621h.117a12.978,12.978,0,0,1,4.893-5.464,13.409,13.409,0,0,1,7.178-1.948,11.78,11.78,0,0,1,9.624,4.263q3.5,4.263,3.5,11.558a23.566,23.566,0,0,1-1.816,9.463,14.574,14.574,0,0,1-5.127,6.445,13.107,13.107,0,0,1-7.559,2.256,11.36,11.36,0,0,1-10.693-6.475Zm0-8.027a12.774,12.774,0,0,0,1.406,5.947,10.485,10.485,0,0,0,3.955,4.263,10.786,10.786,0,0,0,5.684,1.538,9.3,9.3,0,0,0,5.771-1.934,12.319,12.319,0,0,0,3.94-5.479,21.58,21.58,0,0,0,1.392-7.939q0-6.006-2.827-9.565a9.145,9.145,0,0,0-7.544-3.56,11.632,11.632,0,0,0-6.182,1.626,10.949,10.949,0,0,0-4.131,4.541,14.176,14.176,0,0,0-1.465,6.46Z" transform="translate(0 -3)"/>
    <path class="cls-1" d="M610.869,561.943q0,6.592,3.047,10.313a10.307,10.307,0,0,0,8.438,3.721,17.221,17.221,0,0,0,10.635-3.984v3.193a19.1,19.1,0,0,1-11.25,3.545,12.51,12.51,0,0,1-10.269-4.644q-3.765-4.644-3.765-12.5a19.551,19.551,0,0,1,1.86-8.511,14.8,14.8,0,0,1,5.186-6.123,13.259,13.259,0,0,1,7.515-2.212,11.132,11.132,0,0,1,9.229,4.16q3.311,4.16,3.311,11.66v1.377Zm20.8-2.754q-.176-5.537-2.681-8.613a8.349,8.349,0,0,0-6.841-3.076,9.949,9.949,0,0,0-7.515,3.076,14.631,14.631,0,0,0-3.618,8.613Z" transform="translate(0 -3)"/>
    <path class="cls-1" d="M663.662,572.256v20.6h-3.047V545.537h3.047v6.621h.117a12.978,12.978,0,0,1,4.893-5.464,13.41,13.41,0,0,1,7.178-1.948,11.78,11.78,0,0,1,9.624,4.263q3.5,4.263,3.5,11.558a23.566,23.566,0,0,1-1.816,9.463,14.571,14.571,0,0,1-5.127,6.445,13.1,13.1,0,0,1-7.559,2.256,11.36,11.36,0,0,1-10.693-6.475Zm0-8.027a12.774,12.774,0,0,0,1.406,5.947,10.485,10.485,0,0,0,3.955,4.263,10.787,10.787,0,0,0,5.684,1.538,9.3,9.3,0,0,0,5.771-1.934,12.319,12.319,0,0,0,3.94-5.479,21.57,21.57,0,0,0,1.392-7.939q0-6.006-2.827-9.565a9.145,9.145,0,0,0-7.544-3.56,11.634,11.634,0,0,0-6.182,1.626,10.949,10.949,0,0,0-4.131,4.541,14.182,14.182,0,0,0-1.465,6.46Z" transform="translate(0 -3)"/>
    <path class="cls-1" d="M712.383,548.7a5.759,5.759,0,0,0-3.457-1.055q-4.014,0-6.475,4.1t-2.461,10.9v15.293H697v-32.4h2.988v7.148h.117a11.8,11.8,0,0,1,3.486-5.713,8.247,8.247,0,0,1,5.566-2.08,8.459,8.459,0,0,1,3.223.586Z" transform="translate(0 -3)"/>
    <path class="cls-1" d="M718.418,561.943q0,6.592,3.047,10.313a10.307,10.307,0,0,0,8.438,3.721,17.219,17.219,0,0,0,10.635-3.984v3.193a19.1,19.1,0,0,1-11.25,3.545,12.511,12.511,0,0,1-10.269-4.644q-3.765-4.644-3.765-12.5a19.558,19.558,0,0,1,1.86-8.511,14.8,14.8,0,0,1,5.186-6.123,13.262,13.262,0,0,1,7.515-2.212,11.131,11.131,0,0,1,9.229,4.16q3.311,4.16,3.311,11.66v1.377Zm20.8-2.754q-.176-5.537-2.681-8.613A8.349,8.349,0,0,0,729.7,547.5a9.949,9.949,0,0,0-7.515,3.076,14.631,14.631,0,0,0-3.618,8.613Z" transform="translate(0 -3)"/>
    <path class="cls-1" d="M764.648,533.115a5.743,5.743,0,0,0-3.545-.908q-5.947,0-5.947,8v5.332h8.525v2.754h-8.525v29.648h-3.018V548.291h-5.8v-2.754h5.8v-5.713a11.2,11.2,0,0,1,2.417-7.559,8.289,8.289,0,0,1,6.636-2.812,8.491,8.491,0,0,1,3.457.615Z" transform="translate(0 -3)"/>
    <path class="cls-1" d="M769.219,561.943q0,6.592,3.047,10.313a10.307,10.307,0,0,0,8.438,3.721,17.219,17.219,0,0,0,10.635-3.984v3.193a19.1,19.1,0,0,1-11.25,3.545,12.511,12.511,0,0,1-10.269-4.644q-3.765-4.644-3.765-12.5a19.558,19.558,0,0,1,1.86-8.511,14.8,14.8,0,0,1,5.186-6.123,13.262,13.262,0,0,1,7.515-2.212,11.131,11.131,0,0,1,9.229,4.16q3.311,4.16,3.311,11.66v1.377Zm20.8-2.754q-.176-5.537-2.681-8.613A8.349,8.349,0,0,0,780.5,547.5a9.949,9.949,0,0,0-7.515,3.076,14.631,14.631,0,0,0-3.618,8.613Z" transform="translate(0 -3)"/>
    <path class="cls-1" d="M816.563,548.7a5.759,5.759,0,0,0-3.457-1.055q-4.014,0-6.475,4.1t-2.461,10.9v15.293h-2.988v-32.4h2.988v7.148h.117a11.8,11.8,0,0,1,3.486-5.713,8.247,8.247,0,0,1,5.566-2.08,8.459,8.459,0,0,1,3.223.586Z" transform="translate(0 -3)"/>
    <path class="cls-1" d="M822.6,561.943q0,6.592,3.047,10.313a10.307,10.307,0,0,0,8.438,3.721,17.219,17.219,0,0,0,10.635-3.984v3.193a19.1,19.1,0,0,1-11.25,3.545,12.511,12.511,0,0,1-10.269-4.644q-3.765-4.644-3.765-12.5a19.558,19.558,0,0,1,1.86-8.511,14.8,14.8,0,0,1,5.186-6.123,13.262,13.262,0,0,1,7.515-2.212,11.131,11.131,0,0,1,9.229,4.16q3.311,4.16,3.311,11.66v1.377Zm20.8-2.754q-.176-5.537-2.681-8.613a8.349,8.349,0,0,0-6.841-3.076,9.949,9.949,0,0,0-7.515,3.076,14.631,14.631,0,0,0-3.618,8.613Z" transform="translate(0 -3)"/>
    <path class="cls-1" d="M876.592,577.939V559.1q0-11.6-8.379-11.6a9.761,9.761,0,0,0-7.6,3.354,12.24,12.24,0,0,0-3,8.481v18.6h-3.047v-32.4h3.047V551.4h.117a11.747,11.747,0,0,1,11.045-6.65q5.244,0,8.027,3.5t2.783,9.976v19.717Z" transform="translate(0 -3)"/>
    <path class="cls-1" d="M910.371,576.5a15.912,15.912,0,0,1-8.584,2.227,14.653,14.653,0,0,1-7.749-2.051,13.564,13.564,0,0,1-5.215-5.8,19.322,19.322,0,0,1-1.831-8.584,19.559,19.559,0,0,1,2.08-9.082,15.167,15.167,0,0,1,5.8-6.255,16.138,16.138,0,0,1,8.408-2.212,17.62,17.62,0,0,1,7.236,1.523v3.369a14.443,14.443,0,0,0-7.646-2.139,11.981,11.981,0,0,0-11.118,7.046,17.406,17.406,0,0,0-1.6,7.573q0,6.27,3.223,10.063a10.665,10.665,0,0,0,8.555,3.794,13.929,13.929,0,0,0,8.438-2.607Z" transform="translate(0 -3)"/>
    <path class="cls-1" d="M918.984,561.943q0,6.592,3.047,10.313a10.307,10.307,0,0,0,8.438,3.721,17.219,17.219,0,0,0,10.635-3.984v3.193a19.1,19.1,0,0,1-11.25,3.545,12.511,12.511,0,0,1-10.269-4.644q-3.765-4.644-3.765-12.5a19.558,19.558,0,0,1,1.86-8.511,14.8,14.8,0,0,1,5.186-6.123,13.262,13.262,0,0,1,7.515-2.212,11.131,11.131,0,0,1,9.229,4.16q3.311,4.16,3.311,11.66v1.377Zm20.8-2.754q-.176-5.537-2.681-8.613a8.349,8.349,0,0,0-6.841-3.076,9.949,9.949,0,0,0-7.515,3.076,14.631,14.631,0,0,0-3.618,8.613Z" transform="translate(0 -3)"/>
    <path class="cls-1" d="M949.277,572.9a12.629,12.629,0,0,0,3.97,2.227,12.417,12.417,0,0,0,4.116.85q7.559,0,7.559-6.123a4.773,4.773,0,0,0-1.509-3.53,19.735,19.735,0,0,0-5.61-3.267,18.82,18.82,0,0,1-6.475-4.087,7.679,7.679,0,0,1-1.963-5.376,7.84,7.84,0,0,1,3.047-6.372,11.6,11.6,0,0,1,7.559-2.476,14.441,14.441,0,0,1,7.148,1.7v3.4a13.659,13.659,0,0,0-7.5-2.344,7.8,7.8,0,0,0-5.1,1.626,5.267,5.267,0,0,0-1.992,4.292,5.813,5.813,0,0,0,.6,2.871,6.217,6.217,0,0,0,1.992,1.992,28.185,28.185,0,0,0,4.087,2.139,32.064,32.064,0,0,1,5.435,2.886,8.318,8.318,0,0,1,2.666,2.813,7.851,7.851,0,0,1,.776,3.677,7.962,7.962,0,0,1-3,6.475,12.157,12.157,0,0,1-7.954,2.461,13.306,13.306,0,0,1-7.852-2.227Z" transform="translate(0 -3)"/>
    <path class="cls-1" d="M975.059,585.82h-2.52l4.688-15.059h3.311Z" transform="translate(0 -3)"/>
    <path class="cls-1" d="M1036.025,577.939h-2.842l-7.061-24.375a25.422,25.422,0,0,1-.5-2.7h-.176a10.9,10.9,0,0,1-.615,2.637l-7.881,24.434h-2.842l-9.785-32.4h3.34l7.5,25.781a14.946,14.946,0,0,1,.439,2.725h.264a14.449,14.449,0,0,1,.615-2.725l8.145-25.781h2.168l7.295,25.781a16.8,16.8,0,0,1,.439,2.725h.264a10.846,10.846,0,0,1,.527-2.725l7.646-25.781h3.076Z" transform="translate(0 -3)"/>
    <path class="cls-1" d="M1052.871,561.943q0,6.592,3.047,10.313a10.307,10.307,0,0,0,8.438,3.721,17.219,17.219,0,0,0,10.635-3.984v3.193a19.1,19.1,0,0,1-11.25,3.545,12.511,12.511,0,0,1-10.269-4.644q-3.765-4.644-3.765-12.5a19.558,19.558,0,0,1,1.86-8.511,14.8,14.8,0,0,1,5.186-6.123,13.262,13.262,0,0,1,7.515-2.212,11.131,11.131,0,0,1,9.229,4.16q3.311,4.16,3.311,11.66v1.377Zm20.8-2.754q-.176-5.537-2.681-8.613a8.349,8.349,0,0,0-6.841-3.076,9.949,9.949,0,0,0-7.515,3.076,14.631,14.631,0,0,0-3.618,8.613Z" transform="translate(0 -3)"/>
    <path class="cls-1" d="M1124.648,577.939V558.545q0-5.713-2.08-8.379t-6.5-2.666a9.648,9.648,0,0,0-5.259,1.509,10.378,10.378,0,0,0-3.765,4.292,13.948,13.948,0,0,0-1.377,6.27v18.369h-3.047V529.98h3.047v21.357h.117q3.9-6.592,11.1-6.592,5.3,0,8.027,3.369t2.725,9.727v20.1Z" transform="translate(0 -3)"/>
    <path class="cls-1" d="M1156.7,577.939v-6.416h-.117a12.935,12.935,0,0,1-4.57,5.288,11.521,11.521,0,0,1-6.445,1.919,10.278,10.278,0,0,1-7.295-2.563,8.584,8.584,0,0,1-2.754-6.577q0-8.613,11.221-10.283l9.961-1.494q0-10.312-7.793-10.312-5.361,0-10.43,4.277v-3.6a15.912,15.912,0,0,1,4.966-2.5,19,19,0,0,1,5.757-.923q5.1,0,7.822,3.091t2.725,9.038v21.064Zm-17.988-8.525a6.154,6.154,0,0,0,1.963,4.761,7.452,7.452,0,0,0,5.244,1.8,10.059,10.059,0,0,0,5.493-1.567,10.711,10.711,0,0,0,3.882-4.395,13.914,13.914,0,0,0,1.406-6.284v-3.164l-8.848,1.26q-5.01.7-7.075,2.461A6.358,6.358,0,0,0,1138.711,569.414Z" transform="translate(0 -3)"/>
    <path class="cls-1" d="M1180.166,577.939h-2.783l-12.48-32.4h3.34l9.58,25.664a22.987,22.987,0,0,1,1,3.457h.117a24.322,24.322,0,0,1,.967-3.34l9.844-25.781h3.311Z" transform="translate(0 -3)"/>
    <path class="cls-1" d="M1199.326,561.943q0,6.592,3.047,10.313a10.307,10.307,0,0,0,8.438,3.721,17.219,17.219,0,0,0,10.635-3.984v3.193a19.1,19.1,0,0,1-11.25,3.545,12.511,12.511,0,0,1-10.269-4.644q-3.765-4.644-3.765-12.5a19.558,19.558,0,0,1,1.86-8.511,14.8,14.8,0,0,1,5.186-6.123,13.262,13.262,0,0,1,7.515-2.212,11.131,11.131,0,0,1,9.229,4.16q3.311,4.16,3.311,11.66v1.377Zm20.8-2.754q-.176-5.537-2.681-8.613a8.349,8.349,0,0,0-6.841-3.076,9.949,9.949,0,0,0-7.515,3.076,14.631,14.631,0,0,0-3.618,8.613Z" transform="translate(0 -3)"/>
    <path class="cls-1" d="M1247.578,593.145a6.759,6.759,0,0,1-2.549-.439v-2.988a8.036,8.036,0,0,0,2.666.439q3.867,0,6.123-5.332l2.988-7.148-12.275-32.139h3.369l9.727,26.338.732,2.373h.117l.762-2.227,10.371-26.484h3.252l-15.7,38.965a17.784,17.784,0,0,1-4.072,6.636A7.924,7.924,0,0,1,1247.578,593.145Z" transform="translate(0 -3)"/>
    <path class="cls-1" d="M1291.23,578.73a15.409,15.409,0,0,1-8.086-2.109,13.98,13.98,0,0,1-5.405-5.918,19.46,19.46,0,0,1-1.89-8.76,20.485,20.485,0,0,1,1.919-9.126,13.721,13.721,0,0,1,5.508-5.991,16.322,16.322,0,0,1,8.335-2.08q6.943,0,10.957,4.556t4.014,12.5a20,20,0,0,1-1.89,8.862,13.857,13.857,0,0,1-5.376,5.977A15.394,15.394,0,0,1,1291.23,578.73Zm.234-31.23a11.305,11.305,0,0,0-9.126,3.94q-3.325,3.94-3.325,10.562,0,6.357,3.311,10.166a11.3,11.3,0,0,0,8.994,3.809q5.8,0,8.965-3.75t3.164-10.488q0-6.914-3.105-10.576T1291.465,547.5Z" transform="translate(0 -3)"/>
    <path class="cls-1" d="M1336,577.939V572.08h-.117q-3.34,6.65-10.43,6.65-11.484,0-11.484-14.414V545.537h3.076v18.047q0,6.475,2.153,9.434t6.782,2.959a9.024,9.024,0,0,0,7.236-3.3,12.965,12.965,0,0,0,2.783-8.657V545.537h3.047v32.4Z" transform="translate(0 -3)"/>
    <path class="cls-1" d="M26.221,648.5a15.913,15.913,0,0,1-8.584,2.227,14.651,14.651,0,0,1-7.749-2.051,13.561,13.561,0,0,1-5.215-5.8,19.322,19.322,0,0,1-1.831-8.584,19.553,19.553,0,0,1,2.08-9.082,15.167,15.167,0,0,1,5.8-6.255,16.136,16.136,0,0,1,8.408-2.212,17.622,17.622,0,0,1,7.236,1.523v3.369a14.443,14.443,0,0,0-7.646-2.139A11.981,11.981,0,0,0,7.6,626.546a17.4,17.4,0,0,0-1.6,7.573q0,6.27,3.223,10.063a10.664,10.664,0,0,0,8.555,3.794,13.931,13.931,0,0,0,8.438-2.607Z" transform="translate(0 -3)"/>
    <path class="cls-1" d="M47.051,650.73a15.409,15.409,0,0,1-8.086-2.109A13.98,13.98,0,0,1,33.56,642.7a19.46,19.46,0,0,1-1.89-8.76,20.485,20.485,0,0,1,1.919-9.126,13.718,13.718,0,0,1,5.508-5.991,16.32,16.32,0,0,1,8.335-2.08q6.943,0,10.957,4.556T62.4,633.8a20,20,0,0,1-1.89,8.862,13.857,13.857,0,0,1-5.376,5.977A15.4,15.4,0,0,1,47.051,650.73Zm.234-31.23a11.3,11.3,0,0,0-9.126,3.94q-3.325,3.94-3.325,10.562,0,6.357,3.311,10.166a11.3,11.3,0,0,0,8.994,3.809q5.8,0,8.965-3.75t3.164-10.488q0-6.914-3.105-10.576T47.285,619.5Z" transform="translate(0 -3)"/>
    <path class="cls-1" d="M81.182,649.939H78.4l-12.48-32.4h3.34l9.58,25.664a22.987,22.987,0,0,1,1,3.457h.117a24.322,24.322,0,0,1,.967-3.34l9.844-25.781h3.311Z" transform="translate(0 -3)"/>
    <path class="cls-1" d="M100.342,633.943q0,6.592,3.047,10.313a10.307,10.307,0,0,0,8.438,3.721,17.221,17.221,0,0,0,10.635-3.984v3.193a19.1,19.1,0,0,1-11.25,3.545,12.51,12.51,0,0,1-10.269-4.644q-3.765-4.644-3.765-12.5a19.551,19.551,0,0,1,1.86-8.511,14.8,14.8,0,0,1,5.186-6.123,13.259,13.259,0,0,1,7.515-2.212,11.132,11.132,0,0,1,9.229,4.16q3.311,4.16,3.311,11.66v1.377Zm20.8-2.754q-.176-5.537-2.681-8.613a8.349,8.349,0,0,0-6.841-3.076,9.949,9.949,0,0,0-7.515,3.076,14.631,14.631,0,0,0-3.618,8.613Z" transform="translate(0 -3)"/>
    <path class="cls-1" d="M147.686,620.7a5.76,5.76,0,0,0-3.457-1.055q-4.014,0-6.475,4.1t-2.461,10.9v15.293H132.3v-32.4h2.988v7.148h.117a11.792,11.792,0,0,1,3.486-5.713,8.247,8.247,0,0,1,5.566-2.08,8.461,8.461,0,0,1,3.223.586Z" transform="translate(0 -3)"/>
    <path class="cls-1" d="M153.721,633.943q0,6.592,3.047,10.313a10.307,10.307,0,0,0,8.438,3.721,17.221,17.221,0,0,0,10.635-3.984v3.193a19.1,19.1,0,0,1-11.25,3.545,12.51,12.51,0,0,1-10.269-4.644q-3.765-4.644-3.765-12.5a19.551,19.551,0,0,1,1.86-8.511,14.8,14.8,0,0,1,5.186-6.123,13.259,13.259,0,0,1,7.515-2.212,11.132,11.132,0,0,1,9.229,4.16q3.311,4.16,3.311,11.66v1.377Zm20.8-2.754q-.176-5.537-2.681-8.613A8.349,8.349,0,0,0,165,619.5a9.949,9.949,0,0,0-7.515,3.076,14.631,14.631,0,0,0-3.618,8.613Z" transform="translate(0 -3)"/>
    <path class="cls-1" d="M208.652,649.939V644.08h-.117a11.46,11.46,0,0,1-4.8,4.922,14.072,14.072,0,0,1-6.855,1.729,12.159,12.159,0,0,1-9.814-4.453q-3.721-4.453-3.721-11.982a21.381,21.381,0,0,1,1.875-9.126,14.433,14.433,0,0,1,5.288-6.226,13.9,13.9,0,0,1,7.69-2.2q7.266,0,10.342,5.947h.117V601.98H211.7v47.959Zm0-19.687a10.644,10.644,0,0,0-2.93-7.734,10.071,10.071,0,0,0-7.559-3.018,10.342,10.342,0,0,0-8.423,3.984q-3.237,3.984-3.237,10.576,0,6.416,2.871,10.166a9.264,9.264,0,0,0,7.764,3.75,11.026,11.026,0,0,0,8.408-3.281,11.858,11.858,0,0,0,3.105-8.5Z" transform="translate(0 -3)"/>
    <path class="cls-1" d="M224.063,650.5a2.451,2.451,0,0,1-1.846-.762,2.691,2.691,0,0,1,0-3.691,2.5,2.5,0,0,1,1.846-.732,2.617,2.617,0,0,1,1.86.732,2.466,2.466,0,0,1,.776,1.875,2.4,2.4,0,0,1-.806,1.831A2.621,2.621,0,0,1,224.063,650.5Z" transform="translate(0 -3)"/>
  </g>
  <path class="cls-2" d="M169.1,40.106q-3.3-2.156-6.471-4.488C149.883,26.927,136.787,18.683,124.78,9H20.1A5.116,5.116,0,0,0,15,14.1V193.9a5.116,5.116,0,0,0,5.1,5.1H165.47a5.116,5.116,0,0,0,5.1-5.1V41.155Q169.836,40.629,169.1,40.106Z" transform="translate(0 -3)"/>
  <path class="cls-1" d="M53.839,104.136H63.6L44.075,74.845,24.548,104.136h9.764a58.421,58.421,0,0,0,78.11,55.165V137.779a38.6,38.6,0,0,1-19.527,5.412A39.062,39.062,0,0,1,53.839,104.136Zm97.637,0a58.455,58.455,0,0,0-78.11-55.179V70.493a38.611,38.611,0,0,1,19.527-5.426,39.062,39.062,0,0,1,39.055,39.055h-9.764l19.527,29.291,19.527-29.291h-9.764Z" transform="translate(0 -3)"/>
</svg>
