<svg id="Layer_1" data-name="Layer 1" xmlns="http://www.w3.org/2000/svg" viewBox="0 0 1366 749.197">
  <defs>
    <style>
      .cls-1 {
        fill: #4d4d4d;
      }
    </style>
  </defs>
  <title>textbox info</title>
  <path class="cls-1" d="M69.326,137H42.991q-.276-.917-2.551-6.683a28.12,28.12,0,0,1-2.275-10.09,52.08,52.08,0,0,1,2.413-15.856,51.342,51.342,0,0,1,7.1-14.218q4.688-6.617,18.545-21.163t13.857-23.98q0-18.345-25.233-18.345-12.272,0-25.646,11.662L15,13.038Q32.787-.2,61.743-.2,84.079-.2,99.04,11.6T114,42.914q0,13.366-5.446,22.6T89.388,87.205q-13.719,12.449-17.856,20.7A39.793,39.793,0,0,0,67.4,125.993q0,2.1,1.93,11.007Zm-11.72,17.821a22.141,22.141,0,0,1,15.925,6.29,20.914,20.914,0,0,1,0,30.4,22.14,22.14,0,0,1-15.925,6.29,22.377,22.377,0,0,1-15.994-6.29,20.765,20.765,0,0,1,0-30.4A22.377,22.377,0,0,1,57.606,154.821Z" transform="translate(0 0.197)"/>
  <g>
    <path class="cls-1" d="M41.572,262.958H34.541V243.036H12.715v19.922H5.684V217.577h7.031v19.277H34.541V217.577h7.031Z" transform="translate(0 0.197)"/>
    <path class="cls-1" d="M50.068,247.05q0-8,4.556-12.627t12.407-4.629q7.411,0,11.719,4.482t4.307,12.246q0,7.822-4.541,12.51T66.387,263.72q-7.442,0-11.88-4.541T50.068,247.05Zm7-.146q0,5.333,2.593,8.32a8.846,8.846,0,0,0,7.046,2.988q9.345,0,9.346-11.514,0-5.566-2.4-8.481a8.482,8.482,0,0,0-6.943-2.915,8.667,8.667,0,0,0-7.09,3.105Q57.07,241.513,57.07,246.9Z" transform="translate(0 0.197)"/>
    <path class="cls-1" d="M133.652,230.556l-9.551,32.4h-7.178l-6.035-21.709a14.868,14.868,0,0,1-.5-3.4h-.146a17.584,17.584,0,0,1-.645,3.311l-6.5,21.8H96.064l-9.58-32.4H93.6l5.918,23.232a18.622,18.622,0,0,1,.469,3.164h.205a15.557,15.557,0,0,1,.586-3.252l6.826-23.145h6.416l6.094,23.291a27.779,27.779,0,0,1,.469,3.164h.234a16.7,16.7,0,0,1,.527-3.164l5.771-23.291Z" transform="translate(0 0.197)"/>
    <path class="cls-1" d="M170.859,262.606a11.242,11.242,0,0,1-5.479,1.084q-9.229,0-9.229-10.02V236h-5.479v-5.449h5.479v-7.588l6.855-2.08v9.668h7.852V236h-7.852V252.47a7.054,7.054,0,0,0,1.069,4.365,4.132,4.132,0,0,0,3.442,1.348,5.657,5.657,0,0,0,3.34-1.055Z" transform="translate(0 0.197)"/>
    <path class="cls-1" d="M174.756,247.05q0-8,4.556-12.627t12.407-4.629q7.411,0,11.719,4.482t4.307,12.246q0,7.822-4.541,12.51t-12.129,4.688q-7.442,0-11.88-4.541T174.756,247.05Zm7-.146q0,5.333,2.593,8.32a8.846,8.846,0,0,0,7.046,2.988q9.345,0,9.346-11.514,0-5.566-2.4-8.481A8.482,8.482,0,0,0,191.4,235.3a8.667,8.667,0,0,0-7.09,3.105Q181.758,241.513,181.758,246.9Z" transform="translate(0 0.197)"/>
    <path class="cls-1" d="M228.867,255.429A16.59,16.59,0,0,0,238.3,258.5q6.445,0,6.445-3.984a3.347,3.347,0,0,0-1.348-2.739,26.362,26.362,0,0,0-6.064-2.827q-4.951-1.9-6.68-4.058a8.357,8.357,0,0,1-1.729-5.405,8.2,8.2,0,0,1,3.75-7.09,15.875,15.875,0,0,1,9.287-2.607A22.117,22.117,0,0,1,249.9,231.2v6.094a15.379,15.379,0,0,0-8.262-2.285,7.429,7.429,0,0,0-4.219,1.084,3.291,3.291,0,0,0-1.611,2.842A3.367,3.367,0,0,0,237,241.659a22.685,22.685,0,0,0,5.464,2.637q5.273,1.934,7.192,4.116a7.935,7.935,0,0,1,1.919,5.435,8.376,8.376,0,0,1-3.75,7.236q-3.751,2.637-9.844,2.637a21.366,21.366,0,0,1-9.111-1.816Z" transform="translate(0 0.197)"/>
    <path class="cls-1" d="M286.553,262.958H279.7V257.89h-.146a10.834,10.834,0,0,1-9.961,5.83q-11.455,0-11.455-13.74V230.556h6.855V249.13q0,9.082,6.973,9.082a7.046,7.046,0,0,0,5.566-2.49,9.592,9.592,0,0,0,2.168-6.533V230.556h6.855Z" transform="translate(0 0.197)"/>
    <path class="cls-1" d="M344.209,262.958h-6.885V244.384q0-4.8-1.553-6.943a5.706,5.706,0,0,0-4.951-2.139,6.242,6.242,0,0,0-5.039,2.7,10.37,10.37,0,0,0-2.109,6.592v18.369h-6.855V243.915q0-8.613-6.592-8.613a6.132,6.132,0,0,0-5.054,2.607,10.737,10.737,0,0,0-2.007,6.738v18.311h-6.885v-32.4h6.885v5.1h.146a11.176,11.176,0,0,1,10.2-5.859q6.826,0,9.229,6.475a11.707,11.707,0,0,1,10.84-6.475q10.635,0,10.635,13.154Z" transform="translate(0 0.197)"/>
    <path class="cls-1" d="M401.25,262.958h-6.885V244.384q0-4.8-1.553-6.943a5.706,5.706,0,0,0-4.951-2.139,6.242,6.242,0,0,0-5.039,2.7,10.37,10.37,0,0,0-2.109,6.592v18.369h-6.855V243.915q0-8.613-6.592-8.613a6.132,6.132,0,0,0-5.054,2.607,10.737,10.737,0,0,0-2.007,6.738v18.311H353.32v-32.4h6.885v5.1h.146a11.176,11.176,0,0,1,10.2-5.859q6.826,0,9.229,6.475a11.707,11.707,0,0,1,10.84-6.475q10.635,0,10.635,13.154Z" transform="translate(0 0.197)"/>
    <path class="cls-1" d="M411.152,232.724a22.071,22.071,0,0,1,11.455-2.93q12.275,0,12.275,12.686v20.479H428.2v-4.922h-.146a10.7,10.7,0,0,1-9.844,5.684,10.525,10.525,0,0,1-7.515-2.578,9.076,9.076,0,0,1-2.739-6.943q0-9.141,10.869-10.664l9.4-1.289q0-7.236-6.357-7.236a17.154,17.154,0,0,0-10.723,3.779Zm9.932,15.176a9.26,9.26,0,0,0-4.966,1.787,4.963,4.963,0,0,0-1.45,3.867,4.444,4.444,0,0,0,1.553,3.5,5.819,5.819,0,0,0,3.984,1.362,7.527,7.527,0,0,0,5.742-2.446,8.68,8.68,0,0,0,2.285-6.167v-2.871Z" transform="translate(0 0.197)"/>
    <path class="cls-1" d="M462.393,237.118a7.293,7.293,0,0,0-4.043-1,6.334,6.334,0,0,0-5.405,2.93,13.212,13.212,0,0,0-2.065,7.764v16.143h-6.885v-32.4h6.885V237h.146q2.4-7,8.5-7a8.134,8.134,0,0,1,2.871.41Z" transform="translate(0 0.197)"/>
    <path class="cls-1" d="M466.934,219.423a3.772,3.772,0,0,1,1.187-2.856,4.185,4.185,0,0,1,3-1.128,4.3,4.3,0,0,1,3.018,1.128,3.931,3.931,0,0,1,0,5.713,4.3,4.3,0,0,1-3.018,1.128,4.167,4.167,0,0,1-2.988-1.143A3.761,3.761,0,0,1,466.934,219.423Zm.674,43.535v-32.4h6.885v32.4Z" transform="translate(0 0.197)"/>
    <path class="cls-1" d="M482.666,255.429A16.59,16.59,0,0,0,492.1,258.5q6.445,0,6.445-3.984a3.347,3.347,0,0,0-1.348-2.739,26.362,26.362,0,0,0-6.064-2.827q-4.951-1.9-6.68-4.058a8.357,8.357,0,0,1-1.729-5.405,8.2,8.2,0,0,1,3.75-7.09,15.875,15.875,0,0,1,9.287-2.607A22.117,22.117,0,0,1,503.7,231.2v6.094a15.379,15.379,0,0,0-8.262-2.285,7.429,7.429,0,0,0-4.219,1.084,3.291,3.291,0,0,0-1.611,2.842,3.367,3.367,0,0,0,1.187,2.725,22.685,22.685,0,0,0,5.464,2.637q5.273,1.934,7.192,4.116a7.935,7.935,0,0,1,1.919,5.435,8.376,8.376,0,0,1-3.75,7.236q-3.751,2.637-9.844,2.637a21.366,21.366,0,0,1-9.111-1.816Z" transform="translate(0 0.197)"/>
    <path class="cls-1" d="M539.648,248.6H517.383q.439,9.815,9.99,9.814a16.281,16.281,0,0,0,9.814-3.223v5.684q-4.336,2.842-11.4,2.842-7.207,0-11.279-4.395t-4.072-12.3a17.775,17.775,0,0,1,4.38-12.363,14.148,14.148,0,0,1,10.972-4.863q6.563,0,10.21,4.146t3.647,11.411Zm-6.68-5.01a9.772,9.772,0,0,0-1.9-6.387,6.586,6.586,0,0,0-5.332-2.227,7.389,7.389,0,0,0-5.449,2.358,10.832,10.832,0,0,0-2.871,6.255Z" transform="translate(0 0.197)"/>
    <path class="cls-1" d="M589.395,230.556l-14.268,36.68q-4.248,10.957-12.3,10.957a13.617,13.617,0,0,1-4.277-.557v-5.8a8.5,8.5,0,0,0,3.516.762q3.867,0,5.713-4.307l2.256-5.391L557.2,230.556h7.646l7.793,23.115a29.391,29.391,0,0,1,.762,3.105h.146a25.38,25.38,0,0,1,.791-3.047l8.115-23.174Z" transform="translate(0 0.197)"/>
    <path class="cls-1" d="M592,247.05q0-8,4.556-12.627t12.407-4.629q7.411,0,11.719,4.482t4.307,12.246q0,7.822-4.541,12.51T608.32,263.72q-7.442,0-11.88-4.541T592,247.05Zm7-.146q0,5.333,2.593,8.32a8.846,8.846,0,0,0,7.046,2.988q9.345,0,9.346-11.514,0-5.566-2.4-8.481a8.482,8.482,0,0,0-6.943-2.915,8.667,8.667,0,0,0-7.09,3.105Q599,241.513,599,246.9Z" transform="translate(0 0.197)"/>
    <path class="cls-1" d="M660.469,262.958h-6.855V257.89h-.146a10.834,10.834,0,0,1-9.961,5.83q-11.455,0-11.455-13.74V230.556h6.855V249.13q0,9.082,6.973,9.082a7.046,7.046,0,0,0,5.566-2.49,9.592,9.592,0,0,0,2.168-6.533V230.556h6.855Z" transform="translate(0 0.197)"/>
    <path class="cls-1" d="M688.594,237.118a7.293,7.293,0,0,0-4.043-1,6.334,6.334,0,0,0-5.405,2.93,13.212,13.212,0,0,0-2.065,7.764v16.143H670.2v-32.4h6.885V237h.146q2.4-7,8.5-7a8.134,8.134,0,0,1,2.871.41Z" transform="translate(0 0.197)"/>
    <path class="cls-1" d="M731.836,261.581a17.658,17.658,0,0,1-9.17,2.139,15.367,15.367,0,0,1-11.484-4.482q-4.395-4.482-4.395-11.719,0-8.115,4.717-12.92t12.568-4.8a16.982,16.982,0,0,1,7.822,1.553v6.445a12.532,12.532,0,0,0-7.471-2.49,10,10,0,0,0-7.69,3.179,12.071,12.071,0,0,0-2.944,8.54q0,5.245,2.8,8.218a9.826,9.826,0,0,0,7.515,2.974,12.937,12.937,0,0,0,7.734-2.637Z" transform="translate(0 0.197)"/>
    <path class="cls-1" d="M737.139,247.05q0-8,4.556-12.627t12.407-4.629q7.412,0,11.719,4.482t4.307,12.246q0,7.822-4.541,12.51t-12.129,4.688q-7.441,0-11.88-4.541T737.139,247.05Zm7-.146q0,5.333,2.593,8.32a8.847,8.847,0,0,0,7.046,2.988q9.346,0,9.346-11.514,0-5.566-2.4-8.481a8.482,8.482,0,0,0-6.943-2.915,8.667,8.667,0,0,0-7.09,3.105Q744.141,241.513,744.141,246.9Z" transform="translate(0 0.197)"/>
    <path class="cls-1" d="M806.221,262.958h-6.855V244.647q0-9.345-6.8-9.346a7.171,7.171,0,0,0-5.669,2.593,9.7,9.7,0,0,0-2.241,6.577v18.486h-6.885v-32.4h6.885v5.3h.146a11.556,11.556,0,0,1,10.547-6.064q10.869,0,10.869,13.359Z" transform="translate(0 0.197)"/>
    <path class="cls-1" d="M831.973,262.606a11.24,11.24,0,0,1-5.479,1.084q-9.229,0-9.229-10.02V236h-5.479v-5.449h5.479v-7.588l6.855-2.08v9.668h7.852V236h-7.852V252.47a7.057,7.057,0,0,0,1.069,4.365,4.132,4.132,0,0,0,3.442,1.348,5.657,5.657,0,0,0,3.34-1.055Z" transform="translate(0 0.197)"/>
    <path class="cls-1" d="M865.078,248.6H842.813q.439,9.815,9.99,9.814a16.28,16.28,0,0,0,9.814-3.223v5.684q-4.336,2.842-11.4,2.842-7.207,0-11.279-4.395t-4.072-12.3a17.775,17.775,0,0,1,4.38-12.363,14.149,14.149,0,0,1,10.972-4.863q6.563,0,10.21,4.146t3.647,11.411Zm-6.68-5.01a9.769,9.769,0,0,0-1.9-6.387,6.585,6.585,0,0,0-5.332-2.227,7.39,7.39,0,0,0-5.449,2.358,10.835,10.835,0,0,0-2.871,6.255Z" transform="translate(0 0.197)"/>
    <path class="cls-1" d="M900.7,262.958h-6.855V244.647q0-9.345-6.8-9.346a7.171,7.171,0,0,0-5.669,2.593,9.7,9.7,0,0,0-2.241,6.577v18.486h-6.885v-32.4h6.885v5.3h.146a11.556,11.556,0,0,1,10.547-6.064q10.869,0,10.869,13.359Z" transform="translate(0 0.197)"/>
    <path class="cls-1" d="M926.455,262.606a11.24,11.24,0,0,1-5.479,1.084q-9.229,0-9.229-10.02V236H906.27v-5.449h5.479v-7.588l6.855-2.08v9.668h7.852V236H918.6V252.47a7.057,7.057,0,0,0,1.069,4.365,4.132,4.132,0,0,0,3.442,1.348,5.657,5.657,0,0,0,3.34-1.055Z" transform="translate(0 0.197)"/>
  </g>
  <g>
    <path class="cls-1" d="M4.365,356.578a18.1,18.1,0,0,0,9.99,3.164q5.332,0,8.057-2.153A8.757,8.757,0,0,0,24.39,347.7a9.529,9.529,0,0,0-2.3-2.856,55.836,55.836,0,0,0-6.885-4.526,45.48,45.48,0,0,1-6.8-4.614A12.141,12.141,0,0,1,5.6,332.013a11.274,11.274,0,0,1,.776-10.591,11.538,11.538,0,0,1,4.907-4.146,16.688,16.688,0,0,1,7.148-1.479,24.35,24.35,0,0,1,8.174,1.377v3.457a19.914,19.914,0,0,0-8.584-1.875,11.055,11.055,0,0,0-7.295,2.285,7.363,7.363,0,0,0-2.754,5.947A8.567,8.567,0,0,0,8.73,330.9a9.647,9.647,0,0,0,2.593,2.959,56.456,56.456,0,0,0,6.489,4.175,42.682,42.682,0,0,1,6.475,4.336,12.757,12.757,0,0,1,3.223,3.882,10.343,10.343,0,0,1,.967,4.644,10.7,10.7,0,0,1-3.794,8.657Q20.888,362.73,14.5,362.73a23.8,23.8,0,0,1-5.493-.762,17.971,17.971,0,0,1-4.644-1.641Z" transform="translate(0 0.197)"/>
    <path class="cls-1" d="M39.023,321.363a2.429,2.429,0,0,1-1.714-.7,2.381,2.381,0,0,1-.747-1.816,2.224,2.224,0,0,1,.732-1.685,2.441,2.441,0,0,1,1.729-.688,2.589,2.589,0,0,1,1.743.645,2.168,2.168,0,0,1,.747,1.729,2.433,2.433,0,0,1-.732,1.787A2.4,2.4,0,0,1,39.023,321.363Zm-1.494,40.576v-32.4h3.047v32.4Z" transform="translate(0 0.197)"/>
    <path class="cls-1" d="M91.582,361.939V342.486q0-5.889-1.846-8.437T83.672,331.5a8,8,0,0,0-4.658,1.509,10.38,10.38,0,0,0-3.428,4.131,12.985,12.985,0,0,0-1.26,5.7v19.1H71.309V342.252q0-10.752-8.174-10.752a8,8,0,0,0-6.533,3.311,13.267,13.267,0,0,0-2.607,8.467v18.662H50.947v-32.4h3.047v5.391h.117q3.368-6.182,9.9-6.182a9.422,9.422,0,0,1,6.006,2.007,9.911,9.911,0,0,1,3.457,5.376,12.661,12.661,0,0,1,4.277-5.405,10.519,10.519,0,0,1,6.24-1.978q10.635,0,10.635,13.154v20.039Z" transform="translate(0 0.197)"/>
    <path class="cls-1" d="M107.373,356.256v20.6h-3.047V329.537h3.047v6.621h.117a12.978,12.978,0,0,1,4.893-5.464,13.409,13.409,0,0,1,7.178-1.948,11.78,11.78,0,0,1,9.624,4.263q3.5,4.263,3.5,11.558a23.566,23.566,0,0,1-1.816,9.463,14.574,14.574,0,0,1-5.127,6.445,13.107,13.107,0,0,1-7.559,2.256,11.36,11.36,0,0,1-10.693-6.475Zm0-8.027a12.774,12.774,0,0,0,1.406,5.947,10.485,10.485,0,0,0,3.955,4.263,10.786,10.786,0,0,0,5.684,1.538,9.3,9.3,0,0,0,5.771-1.934,12.319,12.319,0,0,0,3.94-5.479,21.58,21.58,0,0,0,1.392-7.939q0-6.006-2.827-9.565a9.145,9.145,0,0,0-7.544-3.56,11.632,11.632,0,0,0-6.182,1.626,10.949,10.949,0,0,0-4.131,4.541,14.176,14.176,0,0,0-1.465,6.46Z" transform="translate(0 0.197)"/>
    <path class="cls-1" d="M140.713,361.939V313.98h3.047v47.959Z" transform="translate(0 0.197)"/>
    <path class="cls-1" d="M152.637,377.145a6.756,6.756,0,0,1-2.549-.439v-2.988a8.034,8.034,0,0,0,2.666.439q3.867,0,6.123-5.332l2.988-7.148L149.59,329.537h3.369l9.727,26.338.732,2.373h.117l.762-2.227,10.371-26.484h3.252l-15.7,38.965a17.79,17.79,0,0,1-4.072,6.636A7.925,7.925,0,0,1,152.637,377.145Z" transform="translate(0 0.197)"/>
    <path class="cls-1" d="M224.326,361.939V356.08h-.117A11.46,11.46,0,0,1,219.4,361a14.072,14.072,0,0,1-6.855,1.729,12.159,12.159,0,0,1-9.814-4.453q-3.721-4.453-3.721-11.982a21.381,21.381,0,0,1,1.875-9.126,14.433,14.433,0,0,1,5.288-6.226,13.9,13.9,0,0,1,7.69-2.2q7.266,0,10.342,5.947h.117V313.98h3.047v47.959Zm0-19.687a10.644,10.644,0,0,0-2.93-7.734,10.071,10.071,0,0,0-7.559-3.018,10.342,10.342,0,0,0-8.423,3.984q-3.237,3.984-3.237,10.576,0,6.416,2.871,10.166a9.264,9.264,0,0,0,7.764,3.75,11.026,11.026,0,0,0,8.408-3.281,11.858,11.858,0,0,0,3.105-8.5Z" transform="translate(0 0.197)"/>
    <path class="cls-1" d="M253.125,332.7a5.76,5.76,0,0,0-3.457-1.055q-4.014,0-6.475,4.1t-2.461,10.9v15.293h-2.988v-32.4h2.988v7.148h.117a11.792,11.792,0,0,1,3.486-5.713,8.247,8.247,0,0,1,5.566-2.08,8.461,8.461,0,0,1,3.223.586Z" transform="translate(0 0.197)"/>
    <path class="cls-1" d="M278.5,361.939v-6.416h-.117a12.942,12.942,0,0,1-4.57,5.288,11.521,11.521,0,0,1-6.445,1.919,10.276,10.276,0,0,1-7.295-2.563,8.584,8.584,0,0,1-2.754-6.577q0-8.613,11.221-10.283l9.961-1.494q0-10.312-7.793-10.312-5.361,0-10.43,4.277v-3.6a15.9,15.9,0,0,1,4.966-2.5,19,19,0,0,1,5.757-.923q5.1,0,7.822,3.091t2.725,9.038v21.064Zm-17.988-8.525a6.154,6.154,0,0,0,1.963,4.761,7.452,7.452,0,0,0,5.244,1.8,10.062,10.062,0,0,0,5.493-1.567,10.711,10.711,0,0,0,3.882-4.395,13.914,13.914,0,0,0,1.406-6.284v-3.164l-8.848,1.26q-5.01.7-7.075,2.461A6.358,6.358,0,0,0,260.508,353.414Z" transform="translate(0 0.197)"/>
    <path class="cls-1" d="M317.256,359.537q0,9.053-3.97,13.33t-12.466,4.277a21.691,21.691,0,0,1-9.7-2.461v-3.135a20.429,20.429,0,0,0,9.785,2.871q13.3,0,13.3-14.092v-4.189h-.117a12.7,12.7,0,0,1-11.66,6.592,12.5,12.5,0,0,1-11.865-7.69,20.982,20.982,0,0,1-1.67-8.687,21.591,21.591,0,0,1,1.86-9.155,14.471,14.471,0,0,1,5.259-6.24,13.864,13.864,0,0,1,7.734-2.212q7.09,0,10.342,5.889h.117v-5.1h3.047Zm-3.047-17.52a10.947,10.947,0,0,0-1.318-5.3,9.664,9.664,0,0,0-3.721-3.823A11.044,11.044,0,0,0,295.3,335.5q-3.237,4-3.237,10.591,0,6.387,2.886,10.137a9.48,9.48,0,0,0,7.954,3.75,10.744,10.744,0,0,0,8.174-3.311,11.623,11.623,0,0,0,3.135-8.32Z" transform="translate(0 0.197)"/>
    <path class="cls-1" d="M364.717,361.939v-6.416H364.6a12.942,12.942,0,0,1-4.57,5.288,11.521,11.521,0,0,1-6.445,1.919,10.276,10.276,0,0,1-7.295-2.563,8.584,8.584,0,0,1-2.754-6.577q0-8.613,11.221-10.283l9.961-1.494q0-10.312-7.793-10.312-5.361,0-10.43,4.277v-3.6a15.9,15.9,0,0,1,4.966-2.5,19,19,0,0,1,5.757-.923q5.1,0,7.822,3.091t2.725,9.038v21.064Zm-17.988-8.525a6.154,6.154,0,0,0,1.963,4.761,7.452,7.452,0,0,0,5.244,1.8,10.062,10.062,0,0,0,5.493-1.567,10.711,10.711,0,0,0,3.882-4.395,13.914,13.914,0,0,0,1.406-6.284v-3.164l-8.848,1.26q-5.01.7-7.075,2.461A6.358,6.358,0,0,0,346.729,353.414Z" transform="translate(0 0.197)"/>
    <path class="cls-1" d="M399.492,361.939V343.1q0-11.6-8.379-11.6a9.761,9.761,0,0,0-7.6,3.354,12.237,12.237,0,0,0-3,8.481v18.6h-3.047v-32.4h3.047V335.4h.117a11.747,11.747,0,0,1,11.045-6.65q5.244,0,8.027,3.5t2.783,9.976v19.717Z" transform="translate(0 0.197)"/>
    <path class="cls-1" d="M435.205,361.939V356.08h-.117a11.46,11.46,0,0,1-4.8,4.922,14.072,14.072,0,0,1-6.855,1.729,12.159,12.159,0,0,1-9.814-4.453q-3.721-4.453-3.721-11.982a21.381,21.381,0,0,1,1.875-9.126,14.433,14.433,0,0,1,5.288-6.226,13.9,13.9,0,0,1,7.69-2.2q7.266,0,10.342,5.947h.117V313.98h3.047v47.959Zm0-19.687a10.644,10.644,0,0,0-2.93-7.734,10.071,10.071,0,0,0-7.559-3.018,10.342,10.342,0,0,0-8.423,3.984q-3.237,3.984-3.237,10.576,0,6.416,2.871,10.166a9.264,9.264,0,0,0,7.764,3.75A11.026,11.026,0,0,0,432.1,356.7a11.858,11.858,0,0,0,3.105-8.5Z" transform="translate(0 0.197)"/>
    <path class="cls-1" d="M489.375,361.939V356.08h-.117a11.46,11.46,0,0,1-4.8,4.922,14.072,14.072,0,0,1-6.855,1.729,12.159,12.159,0,0,1-9.814-4.453q-3.721-4.453-3.721-11.982a21.381,21.381,0,0,1,1.875-9.126,14.433,14.433,0,0,1,5.288-6.226,13.9,13.9,0,0,1,7.69-2.2q7.266,0,10.342,5.947h.117V313.98h3.047v47.959Zm0-19.687a10.644,10.644,0,0,0-2.93-7.734,10.071,10.071,0,0,0-7.559-3.018,10.342,10.342,0,0,0-8.423,3.984q-3.237,3.984-3.237,10.576,0,6.416,2.871,10.166a9.264,9.264,0,0,0,7.764,3.75,11.026,11.026,0,0,0,8.408-3.281,11.858,11.858,0,0,0,3.105-8.5Z" transform="translate(0 0.197)"/>
    <path class="cls-1" d="M518.174,332.7a5.76,5.76,0,0,0-3.457-1.055q-4.014,0-6.475,4.1t-2.461,10.9v15.293h-2.988v-32.4h2.988v7.148h.117a11.792,11.792,0,0,1,3.486-5.713,8.247,8.247,0,0,1,5.566-2.08,8.461,8.461,0,0,1,3.223.586Z" transform="translate(0 0.197)"/>
    <path class="cls-1" d="M536.426,362.73a15.409,15.409,0,0,1-8.086-2.109,13.98,13.98,0,0,1-5.405-5.918,19.46,19.46,0,0,1-1.89-8.76,20.485,20.485,0,0,1,1.919-9.126,13.718,13.718,0,0,1,5.508-5.991,16.32,16.32,0,0,1,8.335-2.08q6.943,0,10.957,4.556t4.014,12.5a20,20,0,0,1-1.89,8.862,13.857,13.857,0,0,1-5.376,5.977A15.4,15.4,0,0,1,536.426,362.73Zm.234-31.23a11.3,11.3,0,0,0-9.126,3.94q-3.325,3.94-3.325,10.562,0,6.357,3.311,10.166a11.3,11.3,0,0,0,8.994,3.809q5.8,0,8.965-3.75t3.164-10.488q0-6.914-3.105-10.576T536.66,331.5Z" transform="translate(0 0.197)"/>
    <path class="cls-1" d="M562.881,356.256v20.6h-3.047V329.537h3.047v6.621H563a12.978,12.978,0,0,1,4.893-5.464,13.409,13.409,0,0,1,7.178-1.948,11.78,11.78,0,0,1,9.624,4.263q3.5,4.263,3.5,11.558a23.566,23.566,0,0,1-1.816,9.463,14.574,14.574,0,0,1-5.127,6.445,13.107,13.107,0,0,1-7.559,2.256A11.36,11.36,0,0,1,563,356.256Zm0-8.027a12.774,12.774,0,0,0,1.406,5.947,10.485,10.485,0,0,0,3.955,4.263,10.786,10.786,0,0,0,5.684,1.538,9.3,9.3,0,0,0,5.771-1.934,12.319,12.319,0,0,0,3.94-5.479,21.58,21.58,0,0,0,1.392-7.939q0-6.006-2.827-9.565a9.145,9.145,0,0,0-7.544-3.56,11.632,11.632,0,0,0-6.182,1.626,10.949,10.949,0,0,0-4.131,4.541,14.176,14.176,0,0,0-1.465,6.46Z" transform="translate(0 0.197)"/>
    <path class="cls-1" d="M612.51,377.145a6.756,6.756,0,0,1-2.549-.439v-2.988a8.034,8.034,0,0,0,2.666.439q3.867,0,6.123-5.332l2.988-7.148-12.275-32.139h3.369l9.727,26.338.732,2.373h.117l.762-2.227,10.371-26.484h3.252L622.09,368.5a17.79,17.79,0,0,1-4.072,6.636A7.925,7.925,0,0,1,612.51,377.145Z" transform="translate(0 0.197)"/>
    <path class="cls-1" d="M656.162,362.73a15.409,15.409,0,0,1-8.086-2.109,13.98,13.98,0,0,1-5.405-5.918,19.46,19.46,0,0,1-1.89-8.76,20.485,20.485,0,0,1,1.919-9.126,13.718,13.718,0,0,1,5.508-5.991,16.322,16.322,0,0,1,8.335-2.08q6.943,0,10.957,4.556t4.014,12.5a20,20,0,0,1-1.89,8.862,13.857,13.857,0,0,1-5.376,5.977A15.394,15.394,0,0,1,656.162,362.73Zm.234-31.23a11.305,11.305,0,0,0-9.126,3.94q-3.325,3.94-3.325,10.562,0,6.357,3.311,10.166a11.3,11.3,0,0,0,8.994,3.809q5.8,0,8.965-3.75t3.164-10.488q0-6.914-3.105-10.576T656.4,331.5Z" transform="translate(0 0.197)"/>
    <path class="cls-1" d="M700.928,361.939V356.08h-.117q-3.34,6.65-10.43,6.65-11.484,0-11.484-14.414V329.537h3.076v18.047q0,6.475,2.153,9.434t6.782,2.959a9.024,9.024,0,0,0,7.236-3.3,12.965,12.965,0,0,0,2.783-8.657V329.537h3.047v32.4Z" transform="translate(0 0.197)"/>
    <path class="cls-1" d="M729.727,332.7a5.759,5.759,0,0,0-3.457-1.055q-4.014,0-6.475,4.1t-2.461,10.9v15.293h-2.988v-32.4h2.988v7.148h.117a11.8,11.8,0,0,1,3.486-5.713,8.247,8.247,0,0,1,5.566-2.08,8.459,8.459,0,0,1,3.223.586Z" transform="translate(0 0.197)"/>
    <path class="cls-1" d="M775.605,361.939V343.1q0-11.6-8.379-11.6a9.761,9.761,0,0,0-7.6,3.354,12.24,12.24,0,0,0-3,8.481v18.6h-3.047v-32.4h3.047V335.4h.117a11.747,11.747,0,0,1,11.045-6.65q5.244,0,8.027,3.5t2.783,9.976v19.717Z" transform="translate(0 0.197)"/>
    <path class="cls-1" d="M801.387,362.73a15.409,15.409,0,0,1-8.086-2.109A13.98,13.98,0,0,1,787.9,354.7a19.46,19.46,0,0,1-1.89-8.76,20.485,20.485,0,0,1,1.919-9.126,13.721,13.721,0,0,1,5.508-5.991,16.322,16.322,0,0,1,8.335-2.08q6.943,0,10.957,4.556t4.014,12.5a20,20,0,0,1-1.89,8.862,13.857,13.857,0,0,1-5.376,5.977A15.394,15.394,0,0,1,801.387,362.73Zm.234-31.23a11.305,11.305,0,0,0-9.126,3.94q-3.325,3.94-3.325,10.562,0,6.357,3.311,10.166a11.3,11.3,0,0,0,8.994,3.809q5.8,0,8.965-3.75t3.164-10.488q0-6.914-3.105-10.576T801.621,331.5Z" transform="translate(0 0.197)"/>
    <path class="cls-1" d="M837.744,361.5a9.949,9.949,0,0,1-4.307,1.084q-7.236,0-7.236-8.643v-21.65h-5.83v-2.754h5.83v-8.379l2.988-1.025v9.4h8.555v2.754h-8.555v21.24a8.564,8.564,0,0,0,1.055,4.834,4.139,4.139,0,0,0,3.633,1.494,7.961,7.961,0,0,0,3.867-1.172Z" transform="translate(0 0.197)"/>
    <path class="cls-1" d="M844.482,345.943q0,6.592,3.047,10.313a10.307,10.307,0,0,0,8.438,3.721,17.219,17.219,0,0,0,10.635-3.984v3.193a19.1,19.1,0,0,1-11.25,3.545,12.511,12.511,0,0,1-10.269-4.644q-3.765-4.644-3.765-12.5a19.558,19.558,0,0,1,1.86-8.511,14.8,14.8,0,0,1,5.186-6.123,13.262,13.262,0,0,1,7.515-2.212,11.131,11.131,0,0,1,9.229,4.16q3.311,4.16,3.311,11.66v1.377Zm20.8-2.754q-.176-5.537-2.681-8.613a8.349,8.349,0,0,0-6.841-3.076,9.949,9.949,0,0,0-7.515,3.076,14.631,14.631,0,0,0-3.618,8.613Z" transform="translate(0 0.197)"/>
    <path class="cls-1" d="M874.775,356.9a12.629,12.629,0,0,0,3.97,2.227,12.417,12.417,0,0,0,4.116.85q7.559,0,7.559-6.123a4.773,4.773,0,0,0-1.509-3.53,19.735,19.735,0,0,0-5.61-3.267,18.82,18.82,0,0,1-6.475-4.087,7.679,7.679,0,0,1-1.963-5.376,7.84,7.84,0,0,1,3.047-6.372,11.6,11.6,0,0,1,7.559-2.476,14.441,14.441,0,0,1,7.148,1.7v3.4a13.659,13.659,0,0,0-7.5-2.344,7.8,7.8,0,0,0-5.1,1.626,5.267,5.267,0,0,0-1.992,4.292,5.813,5.813,0,0,0,.6,2.871,6.217,6.217,0,0,0,1.992,1.992,28.185,28.185,0,0,0,4.087,2.139,32.064,32.064,0,0,1,5.435,2.886,8.318,8.318,0,0,1,2.666,2.813,7.851,7.851,0,0,1,.776,3.677,7.962,7.962,0,0,1-3,6.475,12.157,12.157,0,0,1-7.954,2.461,13.306,13.306,0,0,1-7.852-2.227Z" transform="translate(0 0.197)"/>
    <path class="cls-1" d="M921.006,321.363a2.429,2.429,0,0,1-1.714-.7,2.381,2.381,0,0,1-.747-1.816,2.224,2.224,0,0,1,.732-1.685,2.442,2.442,0,0,1,1.729-.688,2.588,2.588,0,0,1,1.743.645,2.168,2.168,0,0,1,.747,1.729,2.431,2.431,0,0,1-.732,1.787A2.4,2.4,0,0,1,921.006,321.363Zm-1.494,40.576v-32.4h3.047v32.4Z" transform="translate(0 0.197)"/>
    <path class="cls-1" d="M954.961,361.939V343.1q0-11.6-8.379-11.6a9.761,9.761,0,0,0-7.6,3.354,12.24,12.24,0,0,0-3,8.481v18.6H932.93v-32.4h3.047V335.4h.117a11.747,11.747,0,0,1,11.045-6.65q5.244,0,8.027,3.5t2.783,9.976v19.717Z" transform="translate(0 0.197)"/>
    <path class="cls-1" d="M980.654,361.5a9.949,9.949,0,0,1-4.307,1.084q-7.236,0-7.236-8.643v-21.65h-5.83v-2.754h5.83v-8.379l2.988-1.025v9.4h8.555v2.754H972.1v21.24a8.564,8.564,0,0,0,1.055,4.834,4.139,4.139,0,0,0,3.633,1.494,7.961,7.961,0,0,0,3.867-1.172Z" transform="translate(0 0.197)"/>
    <path class="cls-1" d="M999.609,362.73a15.409,15.409,0,0,1-8.086-2.109,13.98,13.98,0,0,1-5.405-5.918,19.46,19.46,0,0,1-1.89-8.76,20.485,20.485,0,0,1,1.919-9.126,13.721,13.721,0,0,1,5.508-5.991,16.322,16.322,0,0,1,8.335-2.08q6.943,0,10.957,4.556t4.014,12.5a20,20,0,0,1-1.89,8.862,13.857,13.857,0,0,1-5.376,5.977A15.394,15.394,0,0,1,999.609,362.73Zm.234-31.23a11.305,11.305,0,0,0-9.126,3.94q-3.325,3.94-3.325,10.562,0,6.357,3.311,10.166a11.3,11.3,0,0,0,8.994,3.809q5.8,0,8.965-3.75t3.164-10.488q0-6.914-3.105-10.576T999.844,331.5Z" transform="translate(0 0.197)"/>
    <path class="cls-1" d="M1053.75,361.5a9.949,9.949,0,0,1-4.307,1.084q-7.236,0-7.236-8.643v-21.65h-5.83v-2.754h5.83v-8.379l2.988-1.025v9.4h8.555v2.754H1045.2v21.24a8.564,8.564,0,0,0,1.055,4.834,4.139,4.139,0,0,0,3.633,1.494,7.961,7.961,0,0,0,3.867-1.172Z" transform="translate(0 0.197)"/>
    <path class="cls-1" d="M1082.2,361.939V342.545q0-5.713-2.08-8.379t-6.5-2.666a9.648,9.648,0,0,0-5.259,1.509,10.378,10.378,0,0,0-3.765,4.292,13.948,13.948,0,0,0-1.377,6.27v18.369h-3.047V313.98h3.047v21.357h.117q3.9-6.592,11.1-6.592,5.3,0,8.027,3.369t2.725,9.727v20.1Z" transform="translate(0 0.197)"/>
    <path class="cls-1" d="M1095.762,345.943q0,6.592,3.047,10.313a10.307,10.307,0,0,0,8.438,3.721,17.219,17.219,0,0,0,10.635-3.984v3.193a19.1,19.1,0,0,1-11.25,3.545,12.511,12.511,0,0,1-10.269-4.644q-3.765-4.644-3.765-12.5a19.558,19.558,0,0,1,1.86-8.511,14.8,14.8,0,0,1,5.186-6.123,13.262,13.262,0,0,1,7.515-2.212,11.131,11.131,0,0,1,9.229,4.16q3.311,4.16,3.311,11.66v1.377Zm20.8-2.754q-.176-5.537-2.681-8.613a8.349,8.349,0,0,0-6.841-3.076,9.949,9.949,0,0,0-7.515,3.076,14.631,14.631,0,0,0-3.618,8.613Z" transform="translate(0 0.197)"/>
    <path class="cls-1" d="M1148.555,356.256v5.684h-3.047V313.98h3.047v22.178h.117a12.968,12.968,0,0,1,5.01-5.493,13.547,13.547,0,0,1,7.061-1.919,11.746,11.746,0,0,1,9.624,4.292q3.5,4.292,3.5,11.528a23.6,23.6,0,0,1-1.8,9.463,14.557,14.557,0,0,1-5.127,6.431,13.112,13.112,0,0,1-7.573,2.271,11.36,11.36,0,0,1-10.693-6.475Zm0-8.027a12.667,12.667,0,0,0,1.421,5.947,10.613,10.613,0,0,0,9.624,5.8,9.488,9.488,0,0,0,8.042-4.219q3.062-4.219,3.062-11.133,0-6.006-2.827-9.565a9.145,9.145,0,0,0-7.544-3.56,11.128,11.128,0,0,0-8.481,3.5,12.773,12.773,0,0,0-3.3,9.126Z" transform="translate(0 0.197)"/>
    <path class="cls-1" d="M1194.932,362.73a15.409,15.409,0,0,1-8.086-2.109,13.98,13.98,0,0,1-5.405-5.918,19.46,19.46,0,0,1-1.89-8.76,20.485,20.485,0,0,1,1.919-9.126,13.721,13.721,0,0,1,5.508-5.991,16.322,16.322,0,0,1,8.335-2.08q6.943,0,10.957,4.556t4.014,12.5a20,20,0,0,1-1.89,8.862,13.857,13.857,0,0,1-5.376,5.977A15.394,15.394,0,0,1,1194.932,362.73Zm.234-31.23a11.305,11.305,0,0,0-9.126,3.94q-3.325,3.94-3.325,10.562,0,6.357,3.311,10.166a11.3,11.3,0,0,0,8.994,3.809q5.8,0,8.965-3.75t3.164-10.488q0-6.914-3.105-10.576T1195.166,331.5Z" transform="translate(0 0.197)"/>
    <path class="cls-1" d="M1227.744,346.061l10.576,15.879h-3.838l-8.5-13.623h-.146l-8.76,13.623h-3.662l10.811-15.82-10.635-16.582h3.545l7.178,11.572,1.641,2.783h.176l.762-1.289,8.32-13.066h3.516Z" transform="translate(0 0.197)"/>
    <path class="cls-1" d="M24.492,433.939v-6.416h-.117a12.942,12.942,0,0,1-4.57,5.288,11.521,11.521,0,0,1-6.445,1.919,10.276,10.276,0,0,1-7.295-2.563,8.584,8.584,0,0,1-2.754-6.577q0-8.613,11.221-10.283l9.961-1.494q0-10.312-7.793-10.312-5.361,0-10.43,4.277v-3.6a15.9,15.9,0,0,1,4.966-2.5,19,19,0,0,1,5.757-.923q5.1,0,7.822,3.091t2.725,9.038v21.064ZM6.5,425.414a6.154,6.154,0,0,0,1.963,4.761,7.452,7.452,0,0,0,5.244,1.8,10.062,10.062,0,0,0,5.493-1.567,10.711,10.711,0,0,0,3.882-4.395,13.914,13.914,0,0,0,1.406-6.284v-3.164l-8.848,1.26q-5.01.7-7.075,2.461A6.358,6.358,0,0,0,6.5,425.414Z" transform="translate(0 0.197)"/>
    <path class="cls-1" d="M40.283,428.256v5.684H37.236V385.98h3.047v22.178H40.4a12.962,12.962,0,0,1,5.01-5.493,13.546,13.546,0,0,1,7.061-1.919,11.746,11.746,0,0,1,9.624,4.292q3.5,4.292,3.5,11.528a23.6,23.6,0,0,1-1.8,9.463,14.56,14.56,0,0,1-5.127,6.431,13.113,13.113,0,0,1-7.573,2.271A11.36,11.36,0,0,1,40.4,428.256Zm0-8.027a12.661,12.661,0,0,0,1.421,5.947,10.613,10.613,0,0,0,9.624,5.8,9.488,9.488,0,0,0,8.042-4.219q3.061-4.219,3.062-11.133,0-6.006-2.827-9.565a9.145,9.145,0,0,0-7.544-3.56,11.128,11.128,0,0,0-8.481,3.5,12.773,12.773,0,0,0-3.3,9.126Z" transform="translate(0 0.197)"/>
    <path class="cls-1" d="M86.66,434.73a15.409,15.409,0,0,1-8.086-2.109,13.98,13.98,0,0,1-5.405-5.918,19.46,19.46,0,0,1-1.89-8.76,20.485,20.485,0,0,1,1.919-9.126,13.718,13.718,0,0,1,5.508-5.991,16.32,16.32,0,0,1,8.335-2.08q6.943,0,10.957,4.556t4.014,12.5a20,20,0,0,1-1.89,8.862,13.857,13.857,0,0,1-5.376,5.977A15.4,15.4,0,0,1,86.66,434.73Zm.234-31.23a11.3,11.3,0,0,0-9.126,3.94q-3.325,3.94-3.325,10.562,0,6.357,3.311,10.166a11.3,11.3,0,0,0,8.994,3.809q5.8,0,8.965-3.75t3.164-10.488q0-6.914-3.105-10.576T86.895,403.5Z" transform="translate(0 0.197)"/>
    <path class="cls-1" d="M120.791,433.939h-2.783l-12.48-32.4h3.34l9.58,25.664a22.987,22.987,0,0,1,1,3.457h.117a24.322,24.322,0,0,1,.967-3.34l9.844-25.781h3.311Z" transform="translate(0 0.197)"/>
    <path class="cls-1" d="M139.951,417.943q0,6.592,3.047,10.313a10.307,10.307,0,0,0,8.438,3.721,17.221,17.221,0,0,0,10.635-3.984v3.193a19.1,19.1,0,0,1-11.25,3.545,12.51,12.51,0,0,1-10.269-4.644q-3.765-4.644-3.765-12.5a19.551,19.551,0,0,1,1.86-8.511,14.8,14.8,0,0,1,5.186-6.123,13.259,13.259,0,0,1,7.515-2.212,11.132,11.132,0,0,1,9.229,4.16q3.311,4.16,3.311,11.66v1.377Zm20.8-2.754q-.176-5.537-2.681-8.613a8.349,8.349,0,0,0-6.841-3.076,9.949,9.949,0,0,0-7.515,3.076,14.631,14.631,0,0,0-3.618,8.613Z" transform="translate(0 0.197)"/>
    <path class="cls-1" d="M170.742,441.82h-2.52l4.688-15.059h3.311Z" transform="translate(0 0.197)"/>
    <path class="cls-1" d="M202.383,428.9a12.624,12.624,0,0,0,3.97,2.227,12.415,12.415,0,0,0,4.116.85q7.559,0,7.559-6.123a4.773,4.773,0,0,0-1.509-3.53,19.743,19.743,0,0,0-5.61-3.267,18.815,18.815,0,0,1-6.475-4.087,7.679,7.679,0,0,1-1.963-5.376,7.839,7.839,0,0,1,3.047-6.372,11.6,11.6,0,0,1,7.559-2.476,14.442,14.442,0,0,1,7.148,1.7v3.4a13.659,13.659,0,0,0-7.5-2.344,7.8,7.8,0,0,0-5.1,1.626,5.266,5.266,0,0,0-1.992,4.292,5.813,5.813,0,0,0,.6,2.871,6.212,6.212,0,0,0,1.992,1.992,28.132,28.132,0,0,0,4.087,2.139,32.083,32.083,0,0,1,5.435,2.886,8.318,8.318,0,0,1,2.666,2.813,7.857,7.857,0,0,1,.776,3.677,7.962,7.962,0,0,1-3,6.475,12.159,12.159,0,0,1-7.954,2.461,13.306,13.306,0,0,1-7.852-2.227Z" transform="translate(0 0.197)"/>
    <path class="cls-1" d="M230.156,417.943q0,6.592,3.047,10.313a10.307,10.307,0,0,0,8.438,3.721,17.221,17.221,0,0,0,10.635-3.984v3.193a19.1,19.1,0,0,1-11.25,3.545,12.51,12.51,0,0,1-10.269-4.644q-3.765-4.644-3.765-12.5a19.551,19.551,0,0,1,1.86-8.511,14.8,14.8,0,0,1,5.186-6.123,13.259,13.259,0,0,1,7.515-2.212,11.132,11.132,0,0,1,9.229,4.16q3.311,4.16,3.311,11.66v1.377Zm20.8-2.754q-.176-5.537-2.681-8.613a8.349,8.349,0,0,0-6.841-3.076,9.949,9.949,0,0,0-7.515,3.076,14.631,14.631,0,0,0-3.618,8.613Z" transform="translate(0 0.197)"/>
    <path class="cls-1" d="M262.119,433.939V385.98h3.047v47.959Z" transform="translate(0 0.197)"/>
    <path class="cls-1" d="M276.357,417.943q0,6.592,3.047,10.313a10.307,10.307,0,0,0,8.438,3.721,17.221,17.221,0,0,0,10.635-3.984v3.193a19.1,19.1,0,0,1-11.25,3.545,12.51,12.51,0,0,1-10.269-4.644q-3.765-4.644-3.765-12.5a19.551,19.551,0,0,1,1.86-8.511,14.8,14.8,0,0,1,5.186-6.123,13.259,13.259,0,0,1,7.515-2.212,11.132,11.132,0,0,1,9.229,4.16q3.311,4.16,3.311,11.66v1.377Zm20.8-2.754q-.176-5.537-2.681-8.613a8.349,8.349,0,0,0-6.841-3.076,9.949,9.949,0,0,0-7.515,3.076,14.631,14.631,0,0,0-3.618,8.613Z" transform="translate(0 0.197)"/>
    <path class="cls-1" d="M329.355,432.5a15.913,15.913,0,0,1-8.584,2.227,14.651,14.651,0,0,1-7.749-2.051,13.561,13.561,0,0,1-5.215-5.8,19.322,19.322,0,0,1-1.831-8.584,19.553,19.553,0,0,1,2.08-9.082,15.167,15.167,0,0,1,5.8-6.255,16.136,16.136,0,0,1,8.408-2.212,17.622,17.622,0,0,1,7.236,1.523v3.369a14.443,14.443,0,0,0-7.646-2.139,11.981,11.981,0,0,0-11.118,7.046,17.4,17.4,0,0,0-1.6,7.573q0,6.27,3.223,10.063a10.664,10.664,0,0,0,8.555,3.794,13.931,13.931,0,0,0,8.438-2.607Z" transform="translate(0 0.197)"/>
    <path class="cls-1" d="M350.1,433.5a9.952,9.952,0,0,1-4.307,1.084q-7.236,0-7.236-8.643v-21.65h-5.83v-2.754h5.83v-8.379l2.988-1.025v9.4H350.1v2.754h-8.555v21.24a8.564,8.564,0,0,0,1.055,4.834,4.139,4.139,0,0,0,3.633,1.494,7.964,7.964,0,0,0,3.867-1.172Z" transform="translate(0 0.197)"/>
    <path class="cls-1" d="M387.246,433.5a9.952,9.952,0,0,1-4.307,1.084q-7.236,0-7.236-8.643v-21.65h-5.83v-2.754h5.83v-8.379l2.988-1.025v9.4h8.555v2.754h-8.555v21.24a8.564,8.564,0,0,0,1.055,4.834,4.139,4.139,0,0,0,3.633,1.494,7.964,7.964,0,0,0,3.867-1.172Z" transform="translate(0 0.197)"/>
    <path class="cls-1" d="M415.693,433.939V414.545q0-5.713-2.08-8.379t-6.5-2.666a9.647,9.647,0,0,0-5.259,1.509,10.374,10.374,0,0,0-3.765,4.292,13.942,13.942,0,0,0-1.377,6.27v18.369h-3.047V385.98h3.047v21.357h.117q3.9-6.592,11.1-6.592,5.3,0,8.027,3.369t2.725,9.727v20.1Z" transform="translate(0 0.197)"/>
    <path class="cls-1" d="M429.258,417.943q0,6.592,3.047,10.313a10.307,10.307,0,0,0,8.438,3.721,17.221,17.221,0,0,0,10.635-3.984v3.193a19.1,19.1,0,0,1-11.25,3.545,12.51,12.51,0,0,1-10.269-4.644q-3.765-4.644-3.765-12.5a19.551,19.551,0,0,1,1.86-8.511,14.8,14.8,0,0,1,5.186-6.123,13.259,13.259,0,0,1,7.515-2.212,11.132,11.132,0,0,1,9.229,4.16q3.311,4.16,3.311,11.66v1.377Zm20.8-2.754q-.176-5.537-2.681-8.613a8.349,8.349,0,0,0-6.841-3.076,9.949,9.949,0,0,0-7.515,3.076,14.631,14.631,0,0,0-3.618,8.613Z" transform="translate(0 0.197)"/>
    <path class="cls-1" d="M477.334,428.9a12.624,12.624,0,0,0,3.97,2.227,12.415,12.415,0,0,0,4.116.85q7.559,0,7.559-6.123a4.773,4.773,0,0,0-1.509-3.53,19.743,19.743,0,0,0-5.61-3.267,18.815,18.815,0,0,1-6.475-4.087,7.679,7.679,0,0,1-1.963-5.376,7.839,7.839,0,0,1,3.047-6.372,11.6,11.6,0,0,1,7.559-2.476,14.442,14.442,0,0,1,7.148,1.7v3.4a13.659,13.659,0,0,0-7.5-2.344,7.8,7.8,0,0,0-5.1,1.626,5.266,5.266,0,0,0-1.992,4.292,5.813,5.813,0,0,0,.6,2.871,6.212,6.212,0,0,0,1.992,1.992,28.132,28.132,0,0,0,4.087,2.139,32.083,32.083,0,0,1,5.435,2.886,8.318,8.318,0,0,1,2.666,2.813,7.857,7.857,0,0,1,.776,3.677,7.962,7.962,0,0,1-3,6.475,12.159,12.159,0,0,1-7.954,2.461,13.306,13.306,0,0,1-7.852-2.227Z" transform="translate(0 0.197)"/>
    <path class="cls-1" d="M525.645,433.939V428.08h-.117q-3.34,6.65-10.43,6.65-11.485,0-11.484-14.414V401.537h3.076v18.047q0,6.475,2.153,9.434t6.782,2.959a9.025,9.025,0,0,0,7.236-3.3,12.965,12.965,0,0,0,2.783-8.657V401.537h3.047v32.4Z" transform="translate(0 0.197)"/>
    <path class="cls-1" d="M579.7,433.939V414.486q0-5.889-1.846-8.437t-6.064-2.549a8,8,0,0,0-4.658,1.509,10.38,10.38,0,0,0-3.428,4.131,12.985,12.985,0,0,0-1.26,5.7v19.1h-3.018V414.252q0-10.752-8.174-10.752a8,8,0,0,0-6.533,3.311,13.267,13.267,0,0,0-2.607,8.467v18.662h-3.047v-32.4h3.047v5.391h.117q3.368-6.182,9.9-6.182a9.422,9.422,0,0,1,6.006,2.007,9.911,9.911,0,0,1,3.457,5.376,12.661,12.661,0,0,1,4.277-5.405,10.519,10.519,0,0,1,6.24-1.978q10.635,0,10.635,13.154v20.039Z" transform="translate(0 0.197)"/>
    <path class="cls-1" d="M633.076,433.939V414.486q0-5.889-1.846-8.437t-6.064-2.549a8,8,0,0,0-4.658,1.509,10.38,10.38,0,0,0-3.428,4.131,12.985,12.985,0,0,0-1.26,5.7v19.1H612.8V414.252q0-10.752-8.174-10.752a8,8,0,0,0-6.533,3.311,13.267,13.267,0,0,0-2.607,8.467v18.662h-3.047v-32.4h3.047v5.391h.117q3.368-6.182,9.9-6.182a9.422,9.422,0,0,1,6.006,2.007,9.911,9.911,0,0,1,3.457,5.376,12.661,12.661,0,0,1,4.277-5.405,10.519,10.519,0,0,1,6.24-1.978q10.635,0,10.635,13.154v20.039Z" transform="translate(0 0.197)"/>
    <path class="cls-1" d="M665.127,433.939v-6.416h-.117a12.935,12.935,0,0,1-4.57,5.288,11.521,11.521,0,0,1-6.445,1.919,10.278,10.278,0,0,1-7.295-2.563,8.584,8.584,0,0,1-2.754-6.577q0-8.613,11.221-10.283l9.961-1.494q0-10.312-7.793-10.312-5.361,0-10.43,4.277v-3.6a15.912,15.912,0,0,1,4.966-2.5,19,19,0,0,1,5.757-.923q5.1,0,7.822,3.091t2.725,9.038v21.064Zm-17.988-8.525a6.154,6.154,0,0,0,1.963,4.761,7.452,7.452,0,0,0,5.244,1.8,10.059,10.059,0,0,0,5.493-1.567,10.711,10.711,0,0,0,3.882-4.395,13.914,13.914,0,0,0,1.406-6.284v-3.164l-8.848,1.26q-5.01.7-7.075,2.461A6.358,6.358,0,0,0,647.139,425.414Z" transform="translate(0 0.197)"/>
    <path class="cls-1" d="M693.252,404.7a5.759,5.759,0,0,0-3.457-1.055q-4.014,0-6.475,4.1t-2.461,10.9v15.293h-2.988v-32.4h2.988v7.148h.117a11.8,11.8,0,0,1,3.486-5.713,8.247,8.247,0,0,1,5.566-2.08,8.459,8.459,0,0,1,3.223.586Z" transform="translate(0 0.197)"/>
    <path class="cls-1" d="M700.811,393.363a2.429,2.429,0,0,1-1.714-.7,2.382,2.382,0,0,1-.747-1.816,2.223,2.223,0,0,1,.732-1.685,2.44,2.44,0,0,1,1.729-.688,2.586,2.586,0,0,1,1.743.645,2.167,2.167,0,0,1,.747,1.729,2.432,2.432,0,0,1-.732,1.787A2.4,2.4,0,0,1,700.811,393.363Zm-1.494,40.576v-32.4h3.047v32.4Z" transform="translate(0 0.197)"/>
    <path class="cls-1" d="M711.064,428.9a12.629,12.629,0,0,0,3.97,2.227,12.417,12.417,0,0,0,4.116.85q7.559,0,7.559-6.123a4.773,4.773,0,0,0-1.509-3.53,19.735,19.735,0,0,0-5.61-3.267,18.82,18.82,0,0,1-6.475-4.087,7.679,7.679,0,0,1-1.963-5.376,7.84,7.84,0,0,1,3.047-6.372,11.6,11.6,0,0,1,7.559-2.476,14.441,14.441,0,0,1,7.148,1.7v3.4a13.659,13.659,0,0,0-7.5-2.344,7.8,7.8,0,0,0-5.1,1.626,5.267,5.267,0,0,0-1.992,4.292,5.813,5.813,0,0,0,.6,2.871,6.217,6.217,0,0,0,1.992,1.992A28.185,28.185,0,0,0,721,416.42a32.064,32.064,0,0,1,5.435,2.886,8.318,8.318,0,0,1,2.666,2.813,7.851,7.851,0,0,1,.776,3.677,7.962,7.962,0,0,1-3,6.475,12.157,12.157,0,0,1-7.954,2.461,13.306,13.306,0,0,1-7.852-2.227Z" transform="translate(0 0.197)"/>
    <path class="cls-1" d="M757.324,433.939v-6.416h-.117a12.935,12.935,0,0,1-4.57,5.288,11.521,11.521,0,0,1-6.445,1.919,10.278,10.278,0,0,1-7.295-2.563,8.584,8.584,0,0,1-2.754-6.577q0-8.613,11.221-10.283l9.961-1.494q0-10.312-7.793-10.312-5.361,0-10.43,4.277v-3.6a15.912,15.912,0,0,1,4.966-2.5,19,19,0,0,1,5.757-.923q5.1,0,7.822,3.091t2.725,9.038v21.064Zm-17.988-8.525a6.154,6.154,0,0,0,1.963,4.761,7.452,7.452,0,0,0,5.244,1.8,10.059,10.059,0,0,0,5.493-1.567,10.711,10.711,0,0,0,3.882-4.395,13.914,13.914,0,0,0,1.406-6.284v-3.164l-8.848,1.26q-5.01.7-7.075,2.461A6.358,6.358,0,0,0,739.336,425.414Z" transform="translate(0 0.197)"/>
    <path class="cls-1" d="M783.018,433.5a9.949,9.949,0,0,1-4.307,1.084q-7.236,0-7.236-8.643v-21.65h-5.83v-2.754h5.83v-8.379l2.988-1.025v9.4h8.555v2.754h-8.555v21.24a8.564,8.564,0,0,0,1.055,4.834,4.139,4.139,0,0,0,3.633,1.494,7.961,7.961,0,0,0,3.867-1.172Z" transform="translate(0 0.197)"/>
    <path class="cls-1" d="M790.928,393.363a2.429,2.429,0,0,1-1.714-.7,2.382,2.382,0,0,1-.747-1.816,2.223,2.223,0,0,1,.732-1.685,2.44,2.44,0,0,1,1.729-.688,2.586,2.586,0,0,1,1.743.645,2.167,2.167,0,0,1,.747,1.729,2.432,2.432,0,0,1-.732,1.787A2.4,2.4,0,0,1,790.928,393.363Zm-1.494,40.576v-32.4h3.047v32.4Z" transform="translate(0 0.197)"/>
    <path class="cls-1" d="M815.889,434.73a15.409,15.409,0,0,1-8.086-2.109A13.98,13.98,0,0,1,802.4,426.7a19.46,19.46,0,0,1-1.89-8.76,20.485,20.485,0,0,1,1.919-9.126,13.721,13.721,0,0,1,5.508-5.991,16.322,16.322,0,0,1,8.335-2.08q6.943,0,10.957,4.556t4.014,12.5a20,20,0,0,1-1.89,8.862,13.857,13.857,0,0,1-5.376,5.977A15.394,15.394,0,0,1,815.889,434.73Zm.234-31.23A11.305,11.305,0,0,0,807,407.44q-3.325,3.94-3.325,10.562,0,6.357,3.311,10.166a11.3,11.3,0,0,0,8.994,3.809q5.8,0,8.965-3.75t3.164-10.488q0-6.914-3.105-10.576T816.123,403.5Z" transform="translate(0 0.197)"/>
    <path class="cls-1" d="M861.328,433.939V415.1q0-11.6-8.379-11.6a9.761,9.761,0,0,0-7.6,3.354,12.24,12.24,0,0,0-3,8.481v18.6H839.3v-32.4h3.047V407.4h.117a11.747,11.747,0,0,1,11.045-6.65q5.244,0,8.027,3.5t2.783,9.976v19.717Z" transform="translate(0 0.197)"/>
    <path class="cls-1" d="M911.162,433.939v-6.416h-.117a12.935,12.935,0,0,1-4.57,5.288,11.521,11.521,0,0,1-6.445,1.919,10.278,10.278,0,0,1-7.295-2.563,8.584,8.584,0,0,1-2.754-6.577q0-8.613,11.221-10.283l9.961-1.494q0-10.312-7.793-10.312-5.361,0-10.43,4.277v-3.6a15.912,15.912,0,0,1,4.966-2.5,19,19,0,0,1,5.757-.923q5.1,0,7.822,3.091t2.725,9.038v21.064Zm-17.988-8.525a6.154,6.154,0,0,0,1.963,4.761,7.452,7.452,0,0,0,5.244,1.8,10.059,10.059,0,0,0,5.493-1.567,10.711,10.711,0,0,0,3.882-4.395,13.914,13.914,0,0,0,1.406-6.284v-3.164l-8.848,1.26q-5.01.7-7.075,2.461A6.358,6.358,0,0,0,893.174,425.414Z" transform="translate(0 0.197)"/>
    <path class="cls-1" d="M964.541,433.939V414.486q0-5.889-1.846-8.437t-6.064-2.549a8,8,0,0,0-4.658,1.509,10.388,10.388,0,0,0-3.428,4.131,12.985,12.985,0,0,0-1.26,5.7v19.1h-3.018V414.252q0-10.752-8.174-10.752a8,8,0,0,0-6.533,3.311,13.27,13.27,0,0,0-2.607,8.467v18.662h-3.047v-32.4h3.047v5.391h.117q3.369-6.182,9.9-6.182a9.421,9.421,0,0,1,6.006,2.007,9.911,9.911,0,0,1,3.457,5.376,12.665,12.665,0,0,1,4.277-5.405,10.519,10.519,0,0,1,6.24-1.978q10.635,0,10.635,13.154v20.039Z" transform="translate(0 0.197)"/>
    <path class="cls-1" d="M990.322,434.73a15.409,15.409,0,0,1-8.086-2.109,13.98,13.98,0,0,1-5.405-5.918,19.46,19.46,0,0,1-1.89-8.76,20.485,20.485,0,0,1,1.919-9.126,13.721,13.721,0,0,1,5.508-5.991,16.322,16.322,0,0,1,8.335-2.08q6.943,0,10.957,4.556t4.014,12.5a20,20,0,0,1-1.89,8.862,13.857,13.857,0,0,1-5.376,5.977A15.394,15.394,0,0,1,990.322,434.73Zm.234-31.23a11.305,11.305,0,0,0-9.126,3.94q-3.325,3.94-3.325,10.562,0,6.357,3.311,10.166a11.3,11.3,0,0,0,8.994,3.809q5.8,0,8.965-3.75t3.164-10.488q0-6.914-3.105-10.576T990.557,403.5Z" transform="translate(0 0.197)"/>
    <path class="cls-1" d="M1035.088,433.939V428.08h-.117q-3.34,6.65-10.43,6.65-11.484,0-11.484-14.414V401.537h3.076v18.047q0,6.475,2.153,9.434t6.782,2.959a9.024,9.024,0,0,0,7.236-3.3,12.965,12.965,0,0,0,2.783-8.657V401.537h3.047v32.4Z" transform="translate(0 0.197)"/>
    <path class="cls-1" d="M1070.537,433.939V415.1q0-11.6-8.379-11.6a9.761,9.761,0,0,0-7.6,3.354,12.24,12.24,0,0,0-3,8.481v18.6h-3.047v-32.4h3.047V407.4h.117a11.747,11.747,0,0,1,11.045-6.65q5.244,0,8.027,3.5t2.783,9.976v19.717Z" transform="translate(0 0.197)"/>
    <path class="cls-1" d="M1096.23,433.5a9.949,9.949,0,0,1-4.307,1.084q-7.236,0-7.236-8.643v-21.65h-5.83v-2.754h5.83v-8.379l2.988-1.025v9.4h8.555v2.754h-8.555v21.24a8.564,8.564,0,0,0,1.055,4.834,4.139,4.139,0,0,0,3.633,1.494,7.961,7.961,0,0,0,3.867-1.172Z" transform="translate(0 0.197)"/>
    <path class="cls-1" d="M1148.086,433.939h-2.842l-7.061-24.375a25.422,25.422,0,0,1-.5-2.7h-.176a10.9,10.9,0,0,1-.615,2.637l-7.881,24.434h-2.842l-9.785-32.4h3.34l7.5,25.781a14.946,14.946,0,0,1,.439,2.725h.264a14.449,14.449,0,0,1,.615-2.725l8.145-25.781h2.168l7.295,25.781a16.8,16.8,0,0,1,.439,2.725h.264a10.846,10.846,0,0,1,.527-2.725l7.646-25.781h3.076Z" transform="translate(0 0.197)"/>
    <path class="cls-1" d="M1165.928,393.363a2.429,2.429,0,0,1-1.714-.7,2.382,2.382,0,0,1-.747-1.816,2.223,2.223,0,0,1,.732-1.685,2.44,2.44,0,0,1,1.729-.688,2.586,2.586,0,0,1,1.743.645,2.167,2.167,0,0,1,.747,1.729,2.432,2.432,0,0,1-.732,1.787A2.4,2.4,0,0,1,1165.928,393.363Zm-1.494,40.576v-32.4h3.047v32.4Z" transform="translate(0 0.197)"/>
    <path class="cls-1" d="M1190.8,433.5a9.949,9.949,0,0,1-4.307,1.084q-7.236,0-7.236-8.643v-21.65h-5.83v-2.754h5.83v-8.379l2.988-1.025v9.4h8.555v2.754h-8.555v21.24a8.564,8.564,0,0,0,1.055,4.834,4.139,4.139,0,0,0,3.633,1.494,7.961,7.961,0,0,0,3.867-1.172Z" transform="translate(0 0.197)"/>
    <path class="cls-1" d="M1219.248,433.939V414.545q0-5.713-2.08-8.379t-6.5-2.666a9.648,9.648,0,0,0-5.259,1.509,10.378,10.378,0,0,0-3.765,4.292,13.948,13.948,0,0,0-1.377,6.27v18.369h-3.047V385.98h3.047v21.357h.117q3.9-6.592,11.1-6.592,5.3,0,8.027,3.369t2.725,9.727v20.1Z" transform="translate(0 0.197)"/>
    <path class="cls-1" d="M1262.725,433.5a9.949,9.949,0,0,1-4.307,1.084q-7.236,0-7.236-8.643v-21.65h-5.83v-2.754h5.83v-8.379l2.988-1.025v9.4h8.555v2.754h-8.555v21.24a8.564,8.564,0,0,0,1.055,4.834,4.139,4.139,0,0,0,3.633,1.494,7.961,7.961,0,0,0,3.867-1.172Z" transform="translate(0 0.197)"/>
    <path class="cls-1" d="M1291.172,433.939V414.545q0-5.713-2.08-8.379t-6.5-2.666a9.648,9.648,0,0,0-5.259,1.509,10.378,10.378,0,0,0-3.765,4.292,13.948,13.948,0,0,0-1.377,6.27v18.369h-3.047V385.98h3.047v21.357h.117q3.9-6.592,11.1-6.592,5.3,0,8.027,3.369t2.725,9.727v20.1Z" transform="translate(0 0.197)"/>
    <path class="cls-1" d="M1304.736,417.943q0,6.592,3.047,10.313a10.307,10.307,0,0,0,8.438,3.721,17.219,17.219,0,0,0,10.635-3.984v3.193a19.1,19.1,0,0,1-11.25,3.545,12.511,12.511,0,0,1-10.269-4.644q-3.765-4.644-3.765-12.5a19.558,19.558,0,0,1,1.86-8.511,14.8,14.8,0,0,1,5.186-6.123,13.262,13.262,0,0,1,7.515-2.212,11.131,11.131,0,0,1,9.229,4.16q3.311,4.16,3.311,11.66v1.377Zm20.8-2.754q-.176-5.537-2.681-8.613a8.349,8.349,0,0,0-6.841-3.076,9.949,9.949,0,0,0-7.515,3.076,14.631,14.631,0,0,0-3.618,8.613Z" transform="translate(0 0.197)"/>
    <path class="cls-1" d="M3.516,500.9a12.624,12.624,0,0,0,3.97,2.227,12.415,12.415,0,0,0,4.116.85q7.559,0,7.559-6.123a4.773,4.773,0,0,0-1.509-3.53,19.743,19.743,0,0,0-5.61-3.267,18.815,18.815,0,0,1-6.475-4.087A7.679,7.679,0,0,1,3.6,481.594a7.839,7.839,0,0,1,3.047-6.372,11.6,11.6,0,0,1,7.559-2.476,14.442,14.442,0,0,1,7.148,1.7v3.4a13.659,13.659,0,0,0-7.5-2.344,7.8,7.8,0,0,0-5.1,1.626,5.266,5.266,0,0,0-1.992,4.292,5.813,5.813,0,0,0,.6,2.871,6.212,6.212,0,0,0,1.992,1.992,28.132,28.132,0,0,0,4.087,2.139,32.083,32.083,0,0,1,5.435,2.886,8.318,8.318,0,0,1,2.666,2.813,7.857,7.857,0,0,1,.776,3.677,7.962,7.962,0,0,1-3,6.475,12.159,12.159,0,0,1-7.954,2.461A13.306,13.306,0,0,1,3.516,504.5Z" transform="translate(0 0.197)"/>
    <path class="cls-1" d="M30.469,505.939V457.98h3.047v47.959Z" transform="translate(0 0.197)"/>
    <path class="cls-1" d="M45.381,465.363a2.429,2.429,0,0,1-1.714-.7,2.382,2.382,0,0,1-.747-1.816,2.223,2.223,0,0,1,.732-1.685,2.439,2.439,0,0,1,1.729-.688,2.587,2.587,0,0,1,1.743.645,2.167,2.167,0,0,1,.747,1.729,2.433,2.433,0,0,1-.732,1.787A2.4,2.4,0,0,1,45.381,465.363Zm-1.494,40.576v-32.4h3.047v32.4Z" transform="translate(0 0.197)"/>
    <path class="cls-1" d="M80.273,505.939V500.08h-.117a11.46,11.46,0,0,1-4.8,4.922A14.072,14.072,0,0,1,68.5,506.73a12.159,12.159,0,0,1-9.814-4.453q-3.721-4.453-3.721-11.982a21.381,21.381,0,0,1,1.875-9.126,14.433,14.433,0,0,1,5.288-6.226,13.9,13.9,0,0,1,7.69-2.2q7.266,0,10.342,5.947h.117V457.98H83.32v47.959Zm0-19.687a10.644,10.644,0,0,0-2.93-7.734,10.071,10.071,0,0,0-7.559-3.018,10.342,10.342,0,0,0-8.423,3.984q-3.237,3.984-3.237,10.576,0,6.416,2.871,10.166a9.264,9.264,0,0,0,7.764,3.75,11.026,11.026,0,0,0,8.408-3.281,11.858,11.858,0,0,0,3.105-8.5Z" transform="translate(0 0.197)"/>
    <path class="cls-1" d="M94.512,489.943q0,6.592,3.047,10.313A10.307,10.307,0,0,0,106,503.977a17.221,17.221,0,0,0,10.635-3.984v3.193a19.1,19.1,0,0,1-11.25,3.545,12.51,12.51,0,0,1-10.269-4.644q-3.765-4.644-3.765-12.5a19.551,19.551,0,0,1,1.86-8.511,14.8,14.8,0,0,1,5.186-6.123,13.259,13.259,0,0,1,7.515-2.212,11.132,11.132,0,0,1,9.229,4.16q3.311,4.16,3.311,11.66v1.377Zm20.8-2.754q-.176-5.537-2.681-8.613a8.349,8.349,0,0,0-6.841-3.076,9.949,9.949,0,0,0-7.515,3.076,14.631,14.631,0,0,0-3.618,8.613Z" transform="translate(0 0.197)"/>
    <path class="cls-1" d="M141.855,476.7a5.76,5.76,0,0,0-3.457-1.055q-4.014,0-6.475,4.1t-2.461,10.9v15.293h-2.988v-32.4h2.988v7.148h.117a11.792,11.792,0,0,1,3.486-5.713,8.247,8.247,0,0,1,5.566-2.08,8.461,8.461,0,0,1,3.223.586Z" transform="translate(0 0.197)"/>
    <path class="cls-1" d="M141.738,513.82h-2.52l4.688-15.059h3.311Z" transform="translate(0 0.197)"/>
    <path class="cls-1" d="M194.355,505.939v-6.416h-.117a12.942,12.942,0,0,1-4.57,5.288,11.521,11.521,0,0,1-6.445,1.919,10.276,10.276,0,0,1-7.295-2.563,8.584,8.584,0,0,1-2.754-6.577q0-8.613,11.221-10.283l9.961-1.494q0-10.312-7.793-10.312-5.361,0-10.43,4.277v-3.6a15.9,15.9,0,0,1,4.966-2.5,19,19,0,0,1,5.757-.923q5.1,0,7.822,3.091t2.725,9.038v21.064Zm-17.988-8.525a6.154,6.154,0,0,0,1.963,4.761,7.452,7.452,0,0,0,5.244,1.8,10.062,10.062,0,0,0,5.493-1.567,10.711,10.711,0,0,0,3.882-4.395,13.914,13.914,0,0,0,1.406-6.284v-3.164l-8.848,1.26q-5.01.7-7.075,2.461A6.358,6.358,0,0,0,176.367,497.414Z" transform="translate(0 0.197)"/>
    <path class="cls-1" d="M229.131,505.939V487.1q0-11.6-8.379-11.6a9.761,9.761,0,0,0-7.6,3.354,12.237,12.237,0,0,0-3,8.481v18.6H207.1v-32.4h3.047V479.4h.117a11.747,11.747,0,0,1,11.045-6.65q5.244,0,8.027,3.5t2.783,9.976v19.717Z" transform="translate(0 0.197)"/>
    <path class="cls-1" d="M264.844,505.939V500.08h-.117a11.46,11.46,0,0,1-4.8,4.922,14.072,14.072,0,0,1-6.855,1.729,12.159,12.159,0,0,1-9.814-4.453q-3.721-4.453-3.721-11.982a21.381,21.381,0,0,1,1.875-9.126,14.433,14.433,0,0,1,5.288-6.226,13.9,13.9,0,0,1,7.69-2.2q7.266,0,10.342,5.947h.117V457.98h3.047v47.959Zm0-19.687a10.644,10.644,0,0,0-2.93-7.734,10.071,10.071,0,0,0-7.559-3.018,10.342,10.342,0,0,0-8.423,3.984q-3.237,3.984-3.237,10.576,0,6.416,2.871,10.166a9.264,9.264,0,0,0,7.764,3.75,11.026,11.026,0,0,0,8.408-3.281,11.858,11.858,0,0,0,3.105-8.5Z" transform="translate(0 0.197)"/>
    <path class="cls-1" d="M317.08,504.5a15.913,15.913,0,0,1-8.584,2.227,14.651,14.651,0,0,1-7.749-2.051,13.561,13.561,0,0,1-5.215-5.8,19.322,19.322,0,0,1-1.831-8.584,19.553,19.553,0,0,1,2.08-9.082,15.167,15.167,0,0,1,5.8-6.255,16.136,16.136,0,0,1,8.408-2.212,17.622,17.622,0,0,1,7.236,1.523v3.369a14.443,14.443,0,0,0-7.646-2.139,11.981,11.981,0,0,0-11.118,7.046,17.4,17.4,0,0,0-1.6,7.573q0,6.27,3.223,10.063a10.664,10.664,0,0,0,8.555,3.794,13.931,13.931,0,0,0,8.438-2.607Z" transform="translate(0 0.197)"/>
    <path class="cls-1" d="M324.873,505.939V457.98h3.047v47.959Z" transform="translate(0 0.197)"/>
    <path class="cls-1" d="M339.785,465.363a2.429,2.429,0,0,1-1.714-.7,2.382,2.382,0,0,1-.747-1.816,2.223,2.223,0,0,1,.732-1.685,2.439,2.439,0,0,1,1.729-.688,2.587,2.587,0,0,1,1.743.645,2.167,2.167,0,0,1,.747,1.729,2.433,2.433,0,0,1-.732,1.787A2.4,2.4,0,0,1,339.785,465.363Zm-1.494,40.576v-32.4h3.047v32.4Z" transform="translate(0 0.197)"/>
    <path class="cls-1" d="M372.744,504.5a15.913,15.913,0,0,1-8.584,2.227,14.651,14.651,0,0,1-7.749-2.051,13.561,13.561,0,0,1-5.215-5.8,19.322,19.322,0,0,1-1.831-8.584,19.553,19.553,0,0,1,2.08-9.082,15.167,15.167,0,0,1,5.8-6.255,16.136,16.136,0,0,1,8.408-2.212,17.622,17.622,0,0,1,7.236,1.523v3.369a14.443,14.443,0,0,0-7.646-2.139,11.981,11.981,0,0,0-11.118,7.046,17.4,17.4,0,0,0-1.6,7.573q0,6.27,3.223,10.063a10.664,10.664,0,0,0,8.555,3.794,13.931,13.931,0,0,0,8.438-2.607Z" transform="translate(0 0.197)"/>
    <path class="cls-1" d="M399.141,505.939,383.7,489.973h-.117v15.967h-3.047V457.98h3.047v30.879h.117l14.648-15.322h3.926l-15.381,15.7,16.611,16.7Z" transform="translate(0 0.197)"/>
    <path class="cls-1" d="M440.215,505.5a9.952,9.952,0,0,1-4.307,1.084q-7.236,0-7.236-8.643v-21.65h-5.83v-2.754h5.83v-8.379l2.988-1.025v9.4h8.555v2.754H431.66v21.24a8.564,8.564,0,0,0,1.055,4.834,4.139,4.139,0,0,0,3.633,1.494,7.964,7.964,0,0,0,3.867-1.172Z" transform="translate(0 0.197)"/>
    <path class="cls-1" d="M468.662,505.939V486.545q0-5.713-2.08-8.379t-6.5-2.666a9.647,9.647,0,0,0-5.259,1.509,10.374,10.374,0,0,0-3.765,4.292,13.942,13.942,0,0,0-1.377,6.27v18.369h-3.047V457.98h3.047v21.357h.117q3.9-6.592,11.1-6.592,5.3,0,8.027,3.369t2.725,9.727v20.1Z" transform="translate(0 0.197)"/>
    <path class="cls-1" d="M482.227,489.943q0,6.592,3.047,10.313a10.307,10.307,0,0,0,8.438,3.721,17.221,17.221,0,0,0,10.635-3.984v3.193a19.1,19.1,0,0,1-11.25,3.545,12.51,12.51,0,0,1-10.269-4.644q-3.765-4.644-3.765-12.5a19.551,19.551,0,0,1,1.86-8.511,14.8,14.8,0,0,1,5.186-6.123,13.259,13.259,0,0,1,7.515-2.212,11.132,11.132,0,0,1,9.229,4.16q3.311,4.16,3.311,11.66v1.377Zm20.8-2.754q-.176-5.537-2.681-8.613a8.349,8.349,0,0,0-6.841-3.076,9.949,9.949,0,0,0-7.515,3.076,14.631,14.631,0,0,0-3.618,8.613Z" transform="translate(0 0.197)"/>
    <path class="cls-1" d="M530.3,500.9a12.624,12.624,0,0,0,3.97,2.227,12.415,12.415,0,0,0,4.116.85q7.559,0,7.559-6.123a4.773,4.773,0,0,0-1.509-3.53,19.743,19.743,0,0,0-5.61-3.267,18.815,18.815,0,0,1-6.475-4.087,7.679,7.679,0,0,1-1.963-5.376,7.839,7.839,0,0,1,3.047-6.372A11.6,11.6,0,0,1,541,472.746a14.442,14.442,0,0,1,7.148,1.7v3.4a13.659,13.659,0,0,0-7.5-2.344,7.8,7.8,0,0,0-5.1,1.626,5.266,5.266,0,0,0-1.992,4.292,5.813,5.813,0,0,0,.6,2.871,6.212,6.212,0,0,0,1.992,1.992,28.132,28.132,0,0,0,4.087,2.139,32.083,32.083,0,0,1,5.435,2.886,8.318,8.318,0,0,1,2.666,2.813,7.857,7.857,0,0,1,.776,3.677,7.962,7.962,0,0,1-3,6.475,12.159,12.159,0,0,1-7.954,2.461A13.306,13.306,0,0,1,530.3,504.5Z" transform="translate(0 0.197)"/>
    <path class="cls-1" d="M578.613,505.939V500.08H578.5q-3.34,6.65-10.43,6.65-11.485,0-11.484-14.414V473.537h3.076v18.047q0,6.475,2.153,9.434t6.782,2.959a9.025,9.025,0,0,0,7.236-3.3,12.965,12.965,0,0,0,2.783-8.657V473.537h3.047v32.4Z" transform="translate(0 0.197)"/>
    <path class="cls-1" d="M595.078,500.256v5.684h-3.047V457.98h3.047v22.178h.117a12.962,12.962,0,0,1,5.01-5.493,13.546,13.546,0,0,1,7.061-1.919,11.746,11.746,0,0,1,9.624,4.292q3.5,4.292,3.5,11.528a23.6,23.6,0,0,1-1.8,9.463,14.56,14.56,0,0,1-5.127,6.431,13.113,13.113,0,0,1-7.573,2.271,11.36,11.36,0,0,1-10.693-6.475Zm0-8.027a12.661,12.661,0,0,0,1.421,5.947,10.613,10.613,0,0,0,9.624,5.8,9.488,9.488,0,0,0,8.042-4.219q3.061-4.219,3.062-11.133,0-6.006-2.827-9.565a9.145,9.145,0,0,0-7.544-3.56,11.128,11.128,0,0,0-8.481,3.5,12.773,12.773,0,0,0-3.3,9.126Z" transform="translate(0 0.197)"/>
    <path class="cls-1" d="M669.053,505.939V486.486q0-5.889-1.846-8.437t-6.064-2.549a8,8,0,0,0-4.658,1.509,10.388,10.388,0,0,0-3.428,4.131,12.985,12.985,0,0,0-1.26,5.7v19.1h-3.018V486.252q0-10.752-8.174-10.752a8,8,0,0,0-6.533,3.311,13.267,13.267,0,0,0-2.607,8.467v18.662h-3.047v-32.4h3.047v5.391h.117q3.368-6.182,9.9-6.182a9.422,9.422,0,0,1,6.006,2.007,9.911,9.911,0,0,1,3.457,5.376,12.665,12.665,0,0,1,4.277-5.405,10.519,10.519,0,0,1,6.24-1.978q10.635,0,10.635,13.154v20.039Z" transform="translate(0 0.197)"/>
    <path class="cls-1" d="M683.291,465.363a2.429,2.429,0,0,1-1.714-.7,2.382,2.382,0,0,1-.747-1.816,2.223,2.223,0,0,1,.732-1.685,2.44,2.44,0,0,1,1.729-.688,2.586,2.586,0,0,1,1.743.645,2.167,2.167,0,0,1,.747,1.729,2.432,2.432,0,0,1-.732,1.787A2.4,2.4,0,0,1,683.291,465.363ZM681.8,505.939v-32.4h3.047v32.4Z" transform="translate(0 0.197)"/>
    <path class="cls-1" d="M708.164,505.5a9.949,9.949,0,0,1-4.307,1.084q-7.236,0-7.236-8.643v-21.65h-5.83v-2.754h5.83v-8.379l2.988-1.025v9.4h8.555v2.754h-8.555v21.24a8.564,8.564,0,0,0,1.055,4.834,4.139,4.139,0,0,0,3.633,1.494,7.961,7.961,0,0,0,3.867-1.172Z" transform="translate(0 0.197)"/>
    <path class="cls-1" d="M735.41,500.256v5.684h-3.047V457.98h3.047v22.178h.117a12.968,12.968,0,0,1,5.01-5.493,13.547,13.547,0,0,1,7.061-1.919,11.746,11.746,0,0,1,9.624,4.292q3.5,4.292,3.5,11.528a23.6,23.6,0,0,1-1.8,9.463,14.557,14.557,0,0,1-5.127,6.431,13.112,13.112,0,0,1-7.573,2.271,11.36,11.36,0,0,1-10.693-6.475Zm0-8.027a12.667,12.667,0,0,0,1.421,5.947,10.613,10.613,0,0,0,9.624,5.8,9.488,9.488,0,0,0,8.042-4.219q3.062-4.219,3.062-11.133,0-6.006-2.827-9.565a9.145,9.145,0,0,0-7.544-3.56,11.128,11.128,0,0,0-8.481,3.5,12.773,12.773,0,0,0-3.3,9.126Z" transform="translate(0 0.197)"/>
    <path class="cls-1" d="M790.107,505.939V500.08h-.117q-3.34,6.65-10.43,6.65-11.484,0-11.484-14.414V473.537h3.076v18.047q0,6.475,2.153,9.434t6.782,2.959a9.024,9.024,0,0,0,7.236-3.3,12.965,12.965,0,0,0,2.783-8.657V473.537h3.047v32.4Z" transform="translate(0 0.197)"/>
    <path class="cls-1" d="M816.475,505.5a9.949,9.949,0,0,1-4.307,1.084q-7.236,0-7.236-8.643v-21.65H799.1v-2.754h5.83v-8.379l2.988-1.025v9.4h8.555v2.754H807.92v21.24a8.564,8.564,0,0,0,1.055,4.834,4.139,4.139,0,0,0,3.633,1.494,7.961,7.961,0,0,0,3.867-1.172Z" transform="translate(0 0.197)"/>
    <path class="cls-1" d="M835.84,505.5a9.949,9.949,0,0,1-4.307,1.084q-7.236,0-7.236-8.643v-21.65h-5.83v-2.754h5.83v-8.379l2.988-1.025v9.4h8.555v2.754h-8.555v21.24a8.564,8.564,0,0,0,1.055,4.834,4.139,4.139,0,0,0,3.633,1.494,7.961,7.961,0,0,0,3.867-1.172Z" transform="translate(0 0.197)"/>
    <path class="cls-1" d="M854.795,506.73a15.409,15.409,0,0,1-8.086-2.109A13.98,13.98,0,0,1,841.3,498.7a19.46,19.46,0,0,1-1.89-8.76,20.485,20.485,0,0,1,1.919-9.126,13.721,13.721,0,0,1,5.508-5.991,16.322,16.322,0,0,1,8.335-2.08q6.943,0,10.957,4.556t4.014,12.5a20,20,0,0,1-1.89,8.862,13.857,13.857,0,0,1-5.376,5.977A15.394,15.394,0,0,1,854.795,506.73Zm.234-31.23a11.305,11.305,0,0,0-9.126,3.94q-3.325,3.94-3.325,10.562,0,6.357,3.311,10.166a11.3,11.3,0,0,0,8.994,3.809q5.8,0,8.965-3.75t3.164-10.488q0-6.914-3.105-10.576T855.029,475.5Z" transform="translate(0 0.197)"/>
    <path class="cls-1" d="M900.234,505.939V487.1q0-11.6-8.379-11.6a9.761,9.761,0,0,0-7.6,3.354,12.24,12.24,0,0,0-3,8.481v18.6H878.2v-32.4h3.047V479.4h.117a11.747,11.747,0,0,1,11.045-6.65q5.244,0,8.027,3.5t2.783,9.976v19.717Z" transform="translate(0 0.197)"/>
    <path class="cls-1" d="M914.971,506.5a2.453,2.453,0,0,1-1.846-.762,2.691,2.691,0,0,1,0-3.691,2.5,2.5,0,0,1,1.846-.732,2.616,2.616,0,0,1,1.86.732,2.464,2.464,0,0,1,.776,1.875,2.4,2.4,0,0,1-.806,1.831A2.62,2.62,0,0,1,914.971,506.5Z" transform="translate(0 0.197)"/>
    <path class="cls-1" d="M958.916,488.713v17.227h-3.223V488.8l-13.916-28.242h3.633l10.576,21.8q.645,1.377,1.377,3.34h.117q.176-.41.425-.967t12.173-24.17h3.486Z" transform="translate(0 0.197)"/>
    <path class="cls-1" d="M987.51,506.73a15.409,15.409,0,0,1-8.086-2.109,13.98,13.98,0,0,1-5.405-5.918,19.46,19.46,0,0,1-1.89-8.76,20.485,20.485,0,0,1,1.919-9.126,13.721,13.721,0,0,1,5.508-5.991,16.322,16.322,0,0,1,8.335-2.08q6.943,0,10.957,4.556t4.014,12.5a20,20,0,0,1-1.89,8.862,13.857,13.857,0,0,1-5.376,5.977A15.394,15.394,0,0,1,987.51,506.73Zm.234-31.23a11.305,11.305,0,0,0-9.126,3.94q-3.325,3.94-3.325,10.562,0,6.357,3.311,10.166a11.3,11.3,0,0,0,8.994,3.809q5.8,0,8.965-3.75t3.164-10.488q0-6.914-3.105-10.576T987.744,475.5Z" transform="translate(0 0.197)"/>
    <path class="cls-1" d="M1032.275,505.939V500.08h-.117q-3.34,6.65-10.43,6.65-11.484,0-11.484-14.414V473.537h3.076v18.047q0,6.475,2.153,9.434t6.782,2.959a9.024,9.024,0,0,0,7.236-3.3,12.965,12.965,0,0,0,2.783-8.657V473.537h3.047v32.4Z" transform="translate(0 0.197)"/>
    <path class="cls-1" d="M1091.133,505.939h-2.842l-7.061-24.375a25.422,25.422,0,0,1-.5-2.7h-.176a10.9,10.9,0,0,1-.615,2.637l-7.881,24.434h-2.842l-9.785-32.4h3.34l7.5,25.781a14.946,14.946,0,0,1,.439,2.725h.264a14.449,14.449,0,0,1,.615-2.725l8.145-25.781h2.168l7.295,25.781a16.8,16.8,0,0,1,.439,2.725h.264a10.846,10.846,0,0,1,.527-2.725l7.646-25.781h3.076Z" transform="translate(0 0.197)"/>
    <path class="cls-1" d="M1108.975,465.363a2.429,2.429,0,0,1-1.714-.7,2.382,2.382,0,0,1-.747-1.816,2.223,2.223,0,0,1,.732-1.685,2.44,2.44,0,0,1,1.729-.688,2.586,2.586,0,0,1,1.743.645,2.167,2.167,0,0,1,.747,1.729,2.432,2.432,0,0,1-.732,1.787A2.4,2.4,0,0,1,1108.975,465.363Zm-1.494,40.576v-32.4h3.047v32.4Z" transform="translate(0 0.197)"/>
    <path class="cls-1" d="M1120.9,505.939V457.98h3.047v47.959Z" transform="translate(0 0.197)"/>
    <path class="cls-1" d="M1134.316,505.939V457.98h3.047v47.959Z" transform="translate(0 0.197)"/>
    <path class="cls-1" d="M1178.467,505.5a9.949,9.949,0,0,1-4.307,1.084q-7.236,0-7.236-8.643v-21.65h-5.83v-2.754h5.83v-8.379l2.988-1.025v9.4h8.555v2.754h-8.555v21.24a8.564,8.564,0,0,0,1.055,4.834,4.139,4.139,0,0,0,3.633,1.494,7.961,7.961,0,0,0,3.867-1.172Z" transform="translate(0 0.197)"/>
    <path class="cls-1" d="M1206.914,505.939V486.545q0-5.713-2.08-8.379t-6.5-2.666a9.648,9.648,0,0,0-5.259,1.509,10.378,10.378,0,0,0-3.765,4.292,13.948,13.948,0,0,0-1.377,6.27v18.369h-3.047V457.98h3.047v21.357h.117q3.9-6.592,11.1-6.592,5.3,0,8.027,3.369t2.725,9.727v20.1Z" transform="translate(0 0.197)"/>
    <path class="cls-1" d="M1220.479,489.943q0,6.592,3.047,10.313a10.307,10.307,0,0,0,8.438,3.721,17.219,17.219,0,0,0,10.635-3.984v3.193a19.1,19.1,0,0,1-11.25,3.545,12.511,12.511,0,0,1-10.269-4.644q-3.765-4.644-3.765-12.5a19.558,19.558,0,0,1,1.86-8.511,14.8,14.8,0,0,1,5.186-6.123,13.262,13.262,0,0,1,7.515-2.212,11.131,11.131,0,0,1,9.229,4.16q3.311,4.16,3.311,11.66v1.377Zm20.8-2.754q-.176-5.537-2.681-8.613a8.349,8.349,0,0,0-6.841-3.076,9.949,9.949,0,0,0-7.515,3.076,14.631,14.631,0,0,0-3.618,8.613Z" transform="translate(0 0.197)"/>
    <path class="cls-1" d="M1274.473,505.939V487.1q0-11.6-8.379-11.6a9.761,9.761,0,0,0-7.6,3.354,12.24,12.24,0,0,0-3,8.481v18.6h-3.047v-32.4h3.047V479.4h.117a11.747,11.747,0,0,1,11.045-6.65q5.244,0,8.027,3.5t2.783,9.976v19.717Z" transform="translate(0 0.197)"/>
    <path class="cls-1" d="M8.232,572.256v5.684H5.186V529.98H8.232v22.178H8.35a12.962,12.962,0,0,1,5.01-5.493,13.546,13.546,0,0,1,7.061-1.919,11.746,11.746,0,0,1,9.624,4.292q3.5,4.292,3.5,11.528a23.6,23.6,0,0,1-1.8,9.463,14.56,14.56,0,0,1-5.127,6.431,13.113,13.113,0,0,1-7.573,2.271A11.36,11.36,0,0,1,8.35,572.256Zm0-8.027a12.661,12.661,0,0,0,1.421,5.947,10.613,10.613,0,0,0,9.624,5.8,9.488,9.488,0,0,0,8.042-4.219q3.061-4.219,3.062-11.133,0-6.006-2.827-9.565a9.145,9.145,0,0,0-7.544-3.56,11.128,11.128,0,0,0-8.481,3.5,12.773,12.773,0,0,0-3.3,9.126Z" transform="translate(0 0.197)"/>
    <path class="cls-1" d="M42.393,561.943q0,6.592,3.047,10.313a10.307,10.307,0,0,0,8.438,3.721,17.221,17.221,0,0,0,10.635-3.984v3.193a19.1,19.1,0,0,1-11.25,3.545,12.51,12.51,0,0,1-10.269-4.644q-3.765-4.644-3.765-12.5a19.551,19.551,0,0,1,1.86-8.511,14.8,14.8,0,0,1,5.186-6.123,13.259,13.259,0,0,1,7.515-2.212,11.132,11.132,0,0,1,9.229,4.16q3.311,4.16,3.311,11.66v1.377Zm20.8-2.754q-.176-5.537-2.681-8.613a8.349,8.349,0,0,0-6.841-3.076,9.949,9.949,0,0,0-7.515,3.076,14.631,14.631,0,0,0-3.618,8.613Z" transform="translate(0 0.197)"/>
    <path class="cls-1" d="M111.445,577.939v-6.416h-.117a12.942,12.942,0,0,1-4.57,5.288,11.521,11.521,0,0,1-6.445,1.919,10.276,10.276,0,0,1-7.295-2.563,8.584,8.584,0,0,1-2.754-6.577q0-8.613,11.221-10.283l9.961-1.494q0-10.312-7.793-10.312-5.361,0-10.43,4.277v-3.6a15.9,15.9,0,0,1,4.966-2.5,19,19,0,0,1,5.757-.923q5.1,0,7.822,3.091t2.725,9.038v21.064Zm-17.988-8.525a6.154,6.154,0,0,0,1.963,4.761,7.452,7.452,0,0,0,5.244,1.8,10.062,10.062,0,0,0,5.493-1.567,10.711,10.711,0,0,0,3.882-4.395,13.914,13.914,0,0,0,1.406-6.284v-3.164l-8.848,1.26q-5.01.7-7.075,2.461A6.358,6.358,0,0,0,93.457,569.414Z" transform="translate(0 0.197)"/>
    <path class="cls-1" d="M127.236,572.256v5.684h-3.047V529.98h3.047v22.178h.117a12.962,12.962,0,0,1,5.01-5.493,13.546,13.546,0,0,1,7.061-1.919,11.746,11.746,0,0,1,9.624,4.292q3.5,4.292,3.5,11.528a23.6,23.6,0,0,1-1.8,9.463,14.56,14.56,0,0,1-5.127,6.431,13.113,13.113,0,0,1-7.573,2.271,11.36,11.36,0,0,1-10.693-6.475Zm0-8.027a12.661,12.661,0,0,0,1.421,5.947,10.613,10.613,0,0,0,9.624,5.8,9.488,9.488,0,0,0,8.042-4.219q3.061-4.219,3.062-11.133,0-6.006-2.827-9.565a9.145,9.145,0,0,0-7.544-3.56,11.128,11.128,0,0,0-8.481,3.5,12.773,12.773,0,0,0-3.3,9.126Z" transform="translate(0 0.197)"/>
    <path class="cls-1" d="M160.576,577.939V529.98h3.047v47.959Z" transform="translate(0 0.197)"/>
    <path class="cls-1" d="M174.814,561.943q0,6.592,3.047,10.313a10.307,10.307,0,0,0,8.438,3.721,17.221,17.221,0,0,0,10.635-3.984v3.193a19.1,19.1,0,0,1-11.25,3.545,12.51,12.51,0,0,1-10.269-4.644q-3.765-4.644-3.765-12.5a19.551,19.551,0,0,1,1.86-8.511,14.8,14.8,0,0,1,5.186-6.123,13.259,13.259,0,0,1,7.515-2.212,11.132,11.132,0,0,1,9.229,4.16q3.311,4.16,3.311,11.66v1.377Zm20.8-2.754q-.176-5.537-2.681-8.613a8.349,8.349,0,0,0-6.841-3.076,9.949,9.949,0,0,0-7.515,3.076,14.631,14.631,0,0,0-3.618,8.613Z" transform="translate(0 0.197)"/>
    <path class="cls-1" d="M237.51,577.5a9.952,9.952,0,0,1-4.307,1.084q-7.236,0-7.236-8.643v-21.65h-5.83v-2.754h5.83v-8.379l2.988-1.025v9.4h8.555v2.754h-8.555v21.24a8.564,8.564,0,0,0,1.055,4.834,4.139,4.139,0,0,0,3.633,1.494,7.964,7.964,0,0,0,3.867-1.172Z" transform="translate(0 0.197)"/>
    <path class="cls-1" d="M256.465,578.73a15.409,15.409,0,0,1-8.086-2.109,13.98,13.98,0,0,1-5.405-5.918,19.46,19.46,0,0,1-1.89-8.76A20.485,20.485,0,0,1,243,552.817a13.718,13.718,0,0,1,5.508-5.991,16.32,16.32,0,0,1,8.335-2.08q6.943,0,10.957,4.556t4.014,12.5a20,20,0,0,1-1.89,8.862,13.857,13.857,0,0,1-5.376,5.977A15.4,15.4,0,0,1,256.465,578.73Zm.234-31.23a11.3,11.3,0,0,0-9.126,3.94q-3.325,3.94-3.325,10.562,0,6.357,3.311,10.166a11.3,11.3,0,0,0,8.994,3.809q5.8,0,8.965-3.75t3.164-10.488q0-6.914-3.105-10.576T256.7,547.5Z" transform="translate(0 0.197)"/>
    <path class="cls-1" d="M298.477,561.943q0,6.592,3.047,10.313a10.307,10.307,0,0,0,8.438,3.721,17.221,17.221,0,0,0,10.635-3.984v3.193a19.1,19.1,0,0,1-11.25,3.545,12.51,12.51,0,0,1-10.269-4.644q-3.765-4.644-3.765-12.5a19.551,19.551,0,0,1,1.86-8.511,14.8,14.8,0,0,1,5.186-6.123,13.259,13.259,0,0,1,7.515-2.212,11.132,11.132,0,0,1,9.229,4.16q3.311,4.16,3.311,11.66v1.377Zm20.8-2.754q-.176-5.537-2.681-8.613a8.349,8.349,0,0,0-6.841-3.076,9.949,9.949,0,0,0-7.515,3.076,14.631,14.631,0,0,0-3.618,8.613Z" transform="translate(0 0.197)"/>
    <path class="cls-1" d="M353.408,577.939V572.08h-.117a11.46,11.46,0,0,1-4.8,4.922,14.072,14.072,0,0,1-6.855,1.729,12.159,12.159,0,0,1-9.814-4.453q-3.721-4.453-3.721-11.982a21.381,21.381,0,0,1,1.875-9.126,14.433,14.433,0,0,1,5.288-6.226,13.9,13.9,0,0,1,7.69-2.2q7.266,0,10.342,5.947h.117V529.98h3.047v47.959Zm0-19.687a10.644,10.644,0,0,0-2.93-7.734,10.071,10.071,0,0,0-7.559-3.018,10.342,10.342,0,0,0-8.423,3.984q-3.237,3.984-3.237,10.576,0,6.416,2.871,10.166a9.264,9.264,0,0,0,7.764,3.75A11.026,11.026,0,0,0,350.3,572.7a11.858,11.858,0,0,0,3.105-8.5Z" transform="translate(0 0.197)"/>
    <path class="cls-1" d="M368.32,537.363a2.429,2.429,0,0,1-1.714-.7,2.382,2.382,0,0,1-.747-1.816,2.223,2.223,0,0,1,.732-1.685,2.439,2.439,0,0,1,1.729-.688,2.587,2.587,0,0,1,1.743.645,2.167,2.167,0,0,1,.747,1.729,2.433,2.433,0,0,1-.732,1.787A2.4,2.4,0,0,1,368.32,537.363Zm-1.494,40.576v-32.4h3.047v32.4Z" transform="translate(0 0.197)"/>
    <path class="cls-1" d="M393.193,577.5a9.952,9.952,0,0,1-4.307,1.084q-7.236,0-7.236-8.643v-21.65h-5.83v-2.754h5.83v-8.379l2.988-1.025v9.4h8.555v2.754h-8.555v21.24a8.564,8.564,0,0,0,1.055,4.834,4.139,4.139,0,0,0,3.633,1.494,7.964,7.964,0,0,0,3.867-1.172Z" transform="translate(0 0.197)"/>
    <path class="cls-1" d="M430.342,577.5a9.952,9.952,0,0,1-4.307,1.084q-7.236,0-7.236-8.643v-21.65h-5.83v-2.754h5.83v-8.379l2.988-1.025v9.4h8.555v2.754h-8.555v21.24a8.564,8.564,0,0,0,1.055,4.834,4.139,4.139,0,0,0,3.633,1.494,7.964,7.964,0,0,0,3.867-1.172Z" transform="translate(0 0.197)"/>
    <path class="cls-1" d="M458.789,577.939V558.545q0-5.713-2.08-8.379t-6.5-2.666a9.647,9.647,0,0,0-5.259,1.509,10.374,10.374,0,0,0-3.765,4.292,13.942,13.942,0,0,0-1.377,6.27v18.369h-3.047V529.98H439.8v21.357h.117q3.9-6.592,11.1-6.592,5.3,0,8.027,3.369t2.725,9.727v20.1Z" transform="translate(0 0.197)"/>
    <path class="cls-1" d="M472.354,561.943q0,6.592,3.047,10.313a10.307,10.307,0,0,0,8.438,3.721,17.221,17.221,0,0,0,10.635-3.984v3.193a19.1,19.1,0,0,1-11.25,3.545,12.51,12.51,0,0,1-10.269-4.644q-3.765-4.644-3.765-12.5a19.551,19.551,0,0,1,1.86-8.511,14.8,14.8,0,0,1,5.186-6.123,13.259,13.259,0,0,1,7.515-2.212,11.132,11.132,0,0,1,9.229,4.16q3.311,4.16,3.311,11.66v1.377Zm20.8-2.754q-.176-5.537-2.681-8.613a8.349,8.349,0,0,0-6.841-3.076,9.949,9.949,0,0,0-7.515,3.076,14.631,14.631,0,0,0-3.618,8.613Z" transform="translate(0 0.197)"/>
    <path class="cls-1" d="M520.43,572.9a12.624,12.624,0,0,0,3.97,2.227,12.415,12.415,0,0,0,4.116.85q7.559,0,7.559-6.123a4.773,4.773,0,0,0-1.509-3.53,19.743,19.743,0,0,0-5.61-3.267,18.815,18.815,0,0,1-6.475-4.087,7.679,7.679,0,0,1-1.963-5.376,7.839,7.839,0,0,1,3.047-6.372,11.6,11.6,0,0,1,7.559-2.476,14.442,14.442,0,0,1,7.148,1.7v3.4a13.659,13.659,0,0,0-7.5-2.344,7.8,7.8,0,0,0-5.1,1.626,5.266,5.266,0,0,0-1.992,4.292,5.813,5.813,0,0,0,.6,2.871,6.212,6.212,0,0,0,1.992,1.992,28.132,28.132,0,0,0,4.087,2.139,32.083,32.083,0,0,1,5.435,2.886,8.318,8.318,0,0,1,2.666,2.813,7.857,7.857,0,0,1,.776,3.677,7.962,7.962,0,0,1-3,6.475,12.159,12.159,0,0,1-7.954,2.461,13.306,13.306,0,0,1-7.852-2.227Z" transform="translate(0 0.197)"/>
    <path class="cls-1" d="M568.74,577.939V572.08h-.117q-3.34,6.65-10.43,6.65-11.485,0-11.484-14.414V545.537h3.076v18.047q0,6.475,2.153,9.434t6.782,2.959a9.025,9.025,0,0,0,7.236-3.3,12.965,12.965,0,0,0,2.783-8.657V545.537h3.047v32.4Z" transform="translate(0 0.197)"/>
    <path class="cls-1" d="M622.793,577.939V558.486q0-5.889-1.846-8.437t-6.064-2.549a8,8,0,0,0-4.658,1.509,10.38,10.38,0,0,0-3.428,4.131,12.985,12.985,0,0,0-1.26,5.7v19.1H602.52V558.252q0-10.752-8.174-10.752a8,8,0,0,0-6.533,3.311,13.267,13.267,0,0,0-2.607,8.467v18.662h-3.047v-32.4h3.047v5.391h.117q3.368-6.182,9.9-6.182a9.422,9.422,0,0,1,6.006,2.007,9.911,9.911,0,0,1,3.457,5.376,12.661,12.661,0,0,1,4.277-5.405,10.519,10.519,0,0,1,6.24-1.978q10.635,0,10.635,13.154v20.039Z" transform="translate(0 0.197)"/>
    <path class="cls-1" d="M676.172,577.939V558.486q0-5.889-1.846-8.437t-6.064-2.549a8,8,0,0,0-4.658,1.509,10.388,10.388,0,0,0-3.428,4.131,12.985,12.985,0,0,0-1.26,5.7v19.1H655.9V558.252q0-10.752-8.174-10.752a8,8,0,0,0-6.533,3.311,13.267,13.267,0,0,0-2.607,8.467v18.662h-3.047v-32.4h3.047v5.391h.117q3.368-6.182,9.9-6.182a9.421,9.421,0,0,1,6.006,2.007,9.911,9.911,0,0,1,3.457,5.376,12.665,12.665,0,0,1,4.277-5.405,10.519,10.519,0,0,1,6.24-1.978q10.635,0,10.635,13.154v20.039Z" transform="translate(0 0.197)"/>
    <path class="cls-1" d="M708.223,577.939v-6.416h-.117a12.935,12.935,0,0,1-4.57,5.288,11.521,11.521,0,0,1-6.445,1.919,10.278,10.278,0,0,1-7.295-2.563,8.584,8.584,0,0,1-2.754-6.577q0-8.613,11.221-10.283l9.961-1.494q0-10.312-7.793-10.312-5.361,0-10.43,4.277v-3.6a15.912,15.912,0,0,1,4.966-2.5,19,19,0,0,1,5.757-.923q5.1,0,7.822,3.091t2.725,9.038v21.064Zm-17.988-8.525a6.154,6.154,0,0,0,1.963,4.761,7.452,7.452,0,0,0,5.244,1.8,10.059,10.059,0,0,0,5.493-1.567,10.711,10.711,0,0,0,3.882-4.395,13.914,13.914,0,0,0,1.406-6.284v-3.164l-8.848,1.26q-5.01.7-7.075,2.461A6.358,6.358,0,0,0,690.234,569.414Z" transform="translate(0 0.197)"/>
    <path class="cls-1" d="M736.348,548.7a5.759,5.759,0,0,0-3.457-1.055q-4.014,0-6.475,4.1t-2.461,10.9v15.293h-2.988v-32.4h2.988v7.148h.117a11.8,11.8,0,0,1,3.486-5.713,8.247,8.247,0,0,1,5.566-2.08,8.459,8.459,0,0,1,3.223.586Z" transform="translate(0 0.197)"/>
    <path class="cls-1" d="M743.525,593.145a6.759,6.759,0,0,1-2.549-.439v-2.988a8.036,8.036,0,0,0,2.666.439q3.867,0,6.123-5.332l2.988-7.148-12.275-32.139h3.369l9.727,26.338.732,2.373h.117l.762-2.227,10.371-26.484h3.252l-15.7,38.965a17.784,17.784,0,0,1-4.072,6.636A7.924,7.924,0,0,1,743.525,593.145Z" transform="translate(0 0.197)"/>
    <path class="cls-1" d="M795.293,572.256v5.684h-3.047V529.98h3.047v22.178h.117a12.968,12.968,0,0,1,5.01-5.493,13.547,13.547,0,0,1,7.061-1.919,11.746,11.746,0,0,1,9.624,4.292q3.5,4.292,3.5,11.528a23.6,23.6,0,0,1-1.8,9.463,14.557,14.557,0,0,1-5.127,6.431,13.112,13.112,0,0,1-7.573,2.271,11.36,11.36,0,0,1-10.693-6.475Zm0-8.027a12.667,12.667,0,0,0,1.421,5.947,10.613,10.613,0,0,0,9.624,5.8,9.488,9.488,0,0,0,8.042-4.219q3.062-4.219,3.062-11.133,0-6.006-2.827-9.565a9.145,9.145,0,0,0-7.544-3.56,11.128,11.128,0,0,0-8.481,3.5,12.773,12.773,0,0,0-3.3,9.126Z" transform="translate(0 0.197)"/>
    <path class="cls-1" d="M829.453,561.943q0,6.592,3.047,10.313a10.307,10.307,0,0,0,8.438,3.721,17.219,17.219,0,0,0,10.635-3.984v3.193a19.1,19.1,0,0,1-11.25,3.545,12.511,12.511,0,0,1-10.269-4.644q-3.765-4.644-3.765-12.5a19.558,19.558,0,0,1,1.86-8.511,14.8,14.8,0,0,1,5.186-6.123,13.262,13.262,0,0,1,7.515-2.212,11.131,11.131,0,0,1,9.229,4.16q3.311,4.16,3.311,11.66v1.377Zm20.8-2.754q-.176-5.537-2.681-8.613a8.349,8.349,0,0,0-6.841-3.076,9.949,9.949,0,0,0-7.515,3.076,14.631,14.631,0,0,0-3.618,8.613Z" transform="translate(0 0.197)"/>
    <path class="cls-1" d="M875.684,533.115a5.743,5.743,0,0,0-3.545-.908q-5.947,0-5.947,8v5.332h8.525v2.754h-8.525v29.648h-3.018V548.291h-5.8v-2.754h5.8v-5.713a11.2,11.2,0,0,1,2.417-7.559,8.289,8.289,0,0,1,6.636-2.812,8.491,8.491,0,0,1,3.457.615Z" transform="translate(0 0.197)"/>
    <path class="cls-1" d="M892.471,578.73a15.409,15.409,0,0,1-8.086-2.109,13.98,13.98,0,0,1-5.405-5.918,19.46,19.46,0,0,1-1.89-8.76,20.485,20.485,0,0,1,1.919-9.126,13.721,13.721,0,0,1,5.508-5.991,16.322,16.322,0,0,1,8.335-2.08q6.943,0,10.957,4.556t4.014,12.5a20,20,0,0,1-1.89,8.862,13.857,13.857,0,0,1-5.376,5.977A15.394,15.394,0,0,1,892.471,578.73Zm.234-31.23a11.305,11.305,0,0,0-9.126,3.94q-3.325,3.94-3.325,10.562,0,6.357,3.311,10.166a11.3,11.3,0,0,0,8.994,3.809q5.8,0,8.965-3.75t3.164-10.488q0-6.914-3.105-10.576T892.705,547.5Z" transform="translate(0 0.197)"/>
    <path class="cls-1" d="M931.26,548.7a5.759,5.759,0,0,0-3.457-1.055q-4.014,0-6.475,4.1t-2.461,10.9v15.293h-2.988v-32.4h2.988v7.148h.117a11.8,11.8,0,0,1,3.486-5.713,8.247,8.247,0,0,1,5.566-2.08,8.459,8.459,0,0,1,3.223.586Z" transform="translate(0 0.197)"/>
    <path class="cls-1" d="M937.295,561.943q0,6.592,3.047,10.313a10.307,10.307,0,0,0,8.438,3.721,17.219,17.219,0,0,0,10.635-3.984v3.193a19.1,19.1,0,0,1-11.25,3.545,12.511,12.511,0,0,1-10.269-4.644q-3.765-4.644-3.765-12.5a19.558,19.558,0,0,1,1.86-8.511,14.8,14.8,0,0,1,5.186-6.123,13.262,13.262,0,0,1,7.515-2.212,11.131,11.131,0,0,1,9.229,4.16q3.311,4.16,3.311,11.66v1.377Zm20.8-2.754q-.176-5.537-2.681-8.613a8.349,8.349,0,0,0-6.841-3.076,9.949,9.949,0,0,0-7.515,3.076,14.631,14.631,0,0,0-3.618,8.613Z" transform="translate(0 0.197)"/>
    <path class="cls-1" d="M985.547,593.145a6.759,6.759,0,0,1-2.549-.439v-2.988a8.036,8.036,0,0,0,2.666.439q3.867,0,6.123-5.332l2.988-7.148L982.5,545.537h3.369l9.727,26.338.732,2.373h.117l.762-2.227,10.371-26.484h3.252l-15.7,38.965a17.784,17.784,0,0,1-4.072,6.636A7.924,7.924,0,0,1,985.547,593.145Z" transform="translate(0 0.197)"/>
    <path class="cls-1" d="M1029.2,578.73a15.409,15.409,0,0,1-8.086-2.109,13.98,13.98,0,0,1-5.405-5.918,19.46,19.46,0,0,1-1.89-8.76,20.485,20.485,0,0,1,1.919-9.126,13.721,13.721,0,0,1,5.508-5.991,16.322,16.322,0,0,1,8.335-2.08q6.943,0,10.957,4.556t4.014,12.5a20,20,0,0,1-1.89,8.862,13.857,13.857,0,0,1-5.376,5.977A15.394,15.394,0,0,1,1029.2,578.73Zm.234-31.23a11.305,11.305,0,0,0-9.126,3.94q-3.325,3.94-3.325,10.562,0,6.357,3.311,10.166a11.3,11.3,0,0,0,8.994,3.809q5.8,0,8.965-3.75t3.164-10.488q0-6.914-3.105-10.576T1029.434,547.5Z" transform="translate(0 0.197)"/>
    <path class="cls-1" d="M1073.965,577.939V572.08h-.117q-3.34,6.65-10.43,6.65-11.484,0-11.484-14.414V545.537h3.076v18.047q0,6.475,2.153,9.434t6.782,2.959a9.024,9.024,0,0,0,7.236-3.3,12.965,12.965,0,0,0,2.783-8.657V545.537h3.047v32.4Z" transform="translate(0 0.197)"/>
    <path class="cls-1" d="M1105.986,561.943q0,6.592,3.047,10.313a10.307,10.307,0,0,0,8.438,3.721,17.219,17.219,0,0,0,10.635-3.984v3.193a19.1,19.1,0,0,1-11.25,3.545,12.511,12.511,0,0,1-10.269-4.644q-3.765-4.644-3.765-12.5a19.558,19.558,0,0,1,1.86-8.511,14.8,14.8,0,0,1,5.186-6.123,13.262,13.262,0,0,1,7.515-2.212,11.131,11.131,0,0,1,9.229,4.16q3.311,4.16,3.311,11.66v1.377Zm20.8-2.754q-.176-5.537-2.681-8.613a8.349,8.349,0,0,0-6.841-3.076,9.949,9.949,0,0,0-7.515,3.076,14.631,14.631,0,0,0-3.618,8.613Z" transform="translate(0 0.197)"/>
    <path class="cls-1" d="M1148.145,562.061l10.576,15.879h-3.838l-8.5-13.623h-.146l-8.76,13.623h-3.662l10.811-15.82-10.635-16.582h3.545l7.178,11.572,1.641,2.783h.176l.762-1.289,8.32-13.066h3.516Z" transform="translate(0 0.197)"/>
    <path class="cls-1" d="M1168.389,572.256v20.6h-3.047V545.537h3.047v6.621h.117a12.978,12.978,0,0,1,4.893-5.464,13.41,13.41,0,0,1,7.178-1.948,11.78,11.78,0,0,1,9.624,4.263q3.5,4.263,3.5,11.558a23.566,23.566,0,0,1-1.816,9.463,14.571,14.571,0,0,1-5.127,6.445,13.1,13.1,0,0,1-7.559,2.256,11.36,11.36,0,0,1-10.693-6.475Zm0-8.027a12.774,12.774,0,0,0,1.406,5.947,10.485,10.485,0,0,0,3.955,4.263,10.787,10.787,0,0,0,5.684,1.538,9.3,9.3,0,0,0,5.771-1.934,12.319,12.319,0,0,0,3.94-5.479,21.57,21.57,0,0,0,1.392-7.939q0-6.006-2.827-9.565a9.145,9.145,0,0,0-7.544-3.56,11.634,11.634,0,0,0-6.182,1.626,10.949,10.949,0,0,0-4.131,4.541,14.182,14.182,0,0,0-1.465,6.46Z" transform="translate(0 0.197)"/>
    <path class="cls-1" d="M1214.766,578.73a15.409,15.409,0,0,1-8.086-2.109,13.98,13.98,0,0,1-5.405-5.918,19.46,19.46,0,0,1-1.89-8.76,20.485,20.485,0,0,1,1.919-9.126,13.721,13.721,0,0,1,5.508-5.991,16.322,16.322,0,0,1,8.335-2.08q6.943,0,10.957,4.556t4.014,12.5a20,20,0,0,1-1.89,8.862,13.857,13.857,0,0,1-5.376,5.977A15.394,15.394,0,0,1,1214.766,578.73ZM1215,547.5a11.305,11.305,0,0,0-9.126,3.94q-3.325,3.94-3.325,10.562,0,6.357,3.311,10.166a11.3,11.3,0,0,0,8.994,3.809q5.8,0,8.965-3.75t3.164-10.488q0-6.914-3.105-10.576T1215,547.5Z" transform="translate(0 0.197)"/>
    <path class="cls-1" d="M1253.555,548.7a5.759,5.759,0,0,0-3.457-1.055q-4.014,0-6.475,4.1t-2.461,10.9v15.293h-2.988v-32.4h2.988v7.148h.117a11.8,11.8,0,0,1,3.486-5.713,8.247,8.247,0,0,1,5.566-2.08,8.459,8.459,0,0,1,3.223.586Z" transform="translate(0 0.197)"/>
    <path class="cls-1" d="M1274.443,577.5a9.949,9.949,0,0,1-4.307,1.084q-7.236,0-7.236-8.643v-21.65h-5.83v-2.754h5.83v-8.379l2.988-1.025v9.4h8.555v2.754h-8.555v21.24a8.564,8.564,0,0,0,1.055,4.834,4.139,4.139,0,0,0,3.633,1.494,7.961,7.961,0,0,0,3.867-1.172Z" transform="translate(0 0.197)"/>
    <path class="cls-1" d="M18.135,649.5a9.952,9.952,0,0,1-4.307,1.084q-7.236,0-7.236-8.643v-21.65H.762v-2.754h5.83v-8.379l2.988-1.025v9.4h8.555v2.754H9.58v21.24a8.564,8.564,0,0,0,1.055,4.834,4.139,4.139,0,0,0,3.633,1.494,7.964,7.964,0,0,0,3.867-1.172Z" transform="translate(0 0.197)"/>
    <path class="cls-1" d="M46.582,649.939V630.545q0-5.713-2.08-8.379T38,619.5a9.647,9.647,0,0,0-5.259,1.509,10.374,10.374,0,0,0-3.765,4.292,13.942,13.942,0,0,0-1.377,6.27v18.369H24.551V601.98H27.6v21.357h.117q3.9-6.592,11.1-6.592,5.3,0,8.027,3.369t2.725,9.727v20.1Z" transform="translate(0 0.197)"/>
    <path class="cls-1" d="M60.146,633.943q0,6.592,3.047,10.313a10.307,10.307,0,0,0,8.438,3.721,17.221,17.221,0,0,0,10.635-3.984v3.193a19.1,19.1,0,0,1-11.25,3.545,12.51,12.51,0,0,1-10.269-4.644q-3.765-4.644-3.765-12.5a19.551,19.551,0,0,1,1.86-8.511,14.8,14.8,0,0,1,5.186-6.123,13.259,13.259,0,0,1,7.515-2.212,11.132,11.132,0,0,1,9.229,4.16q3.311,4.16,3.311,11.66v1.377Zm20.8-2.754q-.176-5.537-2.681-8.613a8.349,8.349,0,0,0-6.841-3.076,9.949,9.949,0,0,0-7.515,3.076,14.631,14.631,0,0,0-3.618,8.613Z" transform="translate(0 0.197)"/>
    <path class="cls-1" d="M124.16,605.115a5.743,5.743,0,0,0-3.545-.908q-5.948,0-5.947,8v5.332h8.525v2.754h-8.525v29.648H111.65V620.291h-5.8v-2.754h5.8v-5.713a11.2,11.2,0,0,1,2.417-7.559,8.289,8.289,0,0,1,6.636-2.812,8.493,8.493,0,0,1,3.457.615Z" transform="translate(0 0.197)"/>
    <path class="cls-1" d="M129.4,609.363a2.429,2.429,0,0,1-1.714-.7,2.382,2.382,0,0,1-.747-1.816,2.223,2.223,0,0,1,.732-1.685,2.439,2.439,0,0,1,1.729-.688,2.587,2.587,0,0,1,1.743.645,2.167,2.167,0,0,1,.747,1.729,2.433,2.433,0,0,1-.732,1.787A2.4,2.4,0,0,1,129.4,609.363Zm-1.494,40.576v-32.4h3.047v32.4Z" transform="translate(0 0.197)"/>
    <path class="cls-1" d="M163.359,649.939V631.1q0-11.6-8.379-11.6a9.761,9.761,0,0,0-7.6,3.354,12.237,12.237,0,0,0-3,8.481v18.6h-3.047v-32.4h3.047V623.4h.117a11.747,11.747,0,0,1,11.045-6.65q5.244,0,8.027,3.5t2.783,9.976v19.717Z" transform="translate(0 0.197)"/>
    <path class="cls-1" d="M177.6,609.363a2.429,2.429,0,0,1-1.714-.7,2.382,2.382,0,0,1-.747-1.816,2.223,2.223,0,0,1,.732-1.685,2.439,2.439,0,0,1,1.729-.688,2.587,2.587,0,0,1,1.743.645,2.167,2.167,0,0,1,.747,1.729,2.433,2.433,0,0,1-.732,1.787A2.4,2.4,0,0,1,177.6,609.363ZM176.1,649.939v-32.4h3.047v32.4Z" transform="translate(0 0.197)"/>
    <path class="cls-1" d="M187.852,644.9a12.624,12.624,0,0,0,3.97,2.227,12.415,12.415,0,0,0,4.116.85q7.559,0,7.559-6.123a4.773,4.773,0,0,0-1.509-3.53,19.743,19.743,0,0,0-5.61-3.267,18.815,18.815,0,0,1-6.475-4.087,7.679,7.679,0,0,1-1.963-5.376,7.839,7.839,0,0,1,3.047-6.372,11.6,11.6,0,0,1,7.559-2.476,14.442,14.442,0,0,1,7.148,1.7v3.4a13.659,13.659,0,0,0-7.5-2.344,7.8,7.8,0,0,0-5.1,1.626,5.266,5.266,0,0,0-1.992,4.292,5.813,5.813,0,0,0,.6,2.871,6.212,6.212,0,0,0,1.992,1.992,28.132,28.132,0,0,0,4.087,2.139,32.083,32.083,0,0,1,5.435,2.886,8.318,8.318,0,0,1,2.666,2.813,7.857,7.857,0,0,1,.776,3.677,7.962,7.962,0,0,1-3,6.475,12.159,12.159,0,0,1-7.954,2.461,13.306,13.306,0,0,1-7.852-2.227Z" transform="translate(0 0.197)"/>
    <path class="cls-1" d="M236.836,649.939V630.545q0-5.713-2.08-8.379t-6.5-2.666a9.647,9.647,0,0,0-5.259,1.509,10.374,10.374,0,0,0-3.765,4.292,13.942,13.942,0,0,0-1.377,6.27v18.369H214.8V601.98h3.047v21.357h.117q3.9-6.592,11.1-6.592,5.3,0,8.027,3.369t2.725,9.727v20.1Z" transform="translate(0 0.197)"/>
    <path class="cls-1" d="M250.4,633.943q0,6.592,3.047,10.313a10.307,10.307,0,0,0,8.437,3.721,17.221,17.221,0,0,0,10.635-3.984v3.193a19.1,19.1,0,0,1-11.25,3.545A12.51,12.51,0,0,1,251,646.087q-3.765-4.644-3.765-12.5a19.551,19.551,0,0,1,1.86-8.511,14.8,14.8,0,0,1,5.186-6.123,13.259,13.259,0,0,1,7.515-2.212,11.132,11.132,0,0,1,9.229,4.16q3.311,4.16,3.311,11.66v1.377Zm20.8-2.754q-.176-5.537-2.681-8.613a8.349,8.349,0,0,0-6.841-3.076,9.949,9.949,0,0,0-7.515,3.076,14.631,14.631,0,0,0-3.618,8.613Z" transform="translate(0 0.197)"/>
    <path class="cls-1" d="M305.332,649.939V644.08h-.117a11.46,11.46,0,0,1-4.8,4.922,14.072,14.072,0,0,1-6.855,1.729,12.159,12.159,0,0,1-9.814-4.453q-3.721-4.453-3.721-11.982a21.381,21.381,0,0,1,1.875-9.126,14.433,14.433,0,0,1,5.288-6.226,13.9,13.9,0,0,1,7.69-2.2q7.266,0,10.342,5.947h.117V601.98h3.047v47.959Zm0-19.687a10.644,10.644,0,0,0-2.93-7.734,10.071,10.071,0,0,0-7.559-3.018,10.342,10.342,0,0,0-8.423,3.984q-3.237,3.984-3.237,10.576,0,6.416,2.871,10.166a9.264,9.264,0,0,0,7.764,3.75,11.026,11.026,0,0,0,8.408-3.281,11.858,11.858,0,0,0,3.105-8.5Z" transform="translate(0 0.197)"/>
    <path class="cls-1" d="M350.8,605.115a5.743,5.743,0,0,0-3.545-.908q-5.948,0-5.947,8v5.332h8.525v2.754h-8.525v29.648h-3.018V620.291h-5.8v-2.754h5.8v-5.713a11.2,11.2,0,0,1,2.417-7.559,8.289,8.289,0,0,1,6.636-2.812,8.493,8.493,0,0,1,3.457.615Z" transform="translate(0 0.197)"/>
    <path class="cls-1" d="M356.045,609.363a2.429,2.429,0,0,1-1.714-.7,2.382,2.382,0,0,1-.747-1.816,2.223,2.223,0,0,1,.732-1.685,2.439,2.439,0,0,1,1.729-.688,2.587,2.587,0,0,1,1.743.645,2.167,2.167,0,0,1,.747,1.729,2.433,2.433,0,0,1-.732,1.787A2.4,2.4,0,0,1,356.045,609.363Zm-1.494,40.576v-32.4H357.6v32.4Z" transform="translate(0 0.197)"/>
    <path class="cls-1" d="M367.969,649.939V601.98h3.047v47.959Z" transform="translate(0 0.197)"/>
    <path class="cls-1" d="M382.207,633.943q0,6.592,3.047,10.313a10.307,10.307,0,0,0,8.438,3.721,17.221,17.221,0,0,0,10.635-3.984v3.193a19.1,19.1,0,0,1-11.25,3.545,12.51,12.51,0,0,1-10.269-4.644q-3.765-4.644-3.765-12.5a19.551,19.551,0,0,1,1.86-8.511,14.8,14.8,0,0,1,5.186-6.123,13.259,13.259,0,0,1,7.515-2.212,11.132,11.132,0,0,1,9.229,4.16q3.311,4.16,3.311,11.66v1.377Zm20.8-2.754q-.176-5.537-2.681-8.613a8.349,8.349,0,0,0-6.841-3.076,9.949,9.949,0,0,0-7.515,3.076,14.631,14.631,0,0,0-3.618,8.613Z" transform="translate(0 0.197)"/>
    <path class="cls-1" d="M416.162,650.5a2.451,2.451,0,0,1-1.846-.762,2.691,2.691,0,0,1,0-3.691,2.5,2.5,0,0,1,1.846-.732,2.617,2.617,0,0,1,1.86.732,2.466,2.466,0,0,1,.776,1.875,2.4,2.4,0,0,1-.806,1.831A2.621,2.621,0,0,1,416.162,650.5Z" transform="translate(0 0.197)"/>
  </g>
</svg>
